<svg width="131" height="43" viewBox="0 0 131 43" fill="none" xmlns="http://www.w3.org/2000/svg">
<g filter="url(#filter0_d_2455_7211)">
<path d="M20.2812 26.625C20.2812 27.3229 20.1927 27.9479 20.0156 28.5C19.8385 29.0625 19.6042 29.5521 19.3125 29.9688C19.0208 30.3958 18.6823 30.7552 18.2969 31.0469C17.9115 31.349 17.5052 31.5938 17.0781 31.7812C16.6615 31.9688 16.2344 32.1042 15.7969 32.1875C15.3698 32.2812 14.9635 32.3281 14.5781 32.3281H7.25V28.2656H14.5781C15.1302 28.2656 15.5417 28.125 15.8125 27.8438C16.0833 27.5625 16.2188 27.1562 16.2188 26.625V13.7969C16.2188 13.2656 16.0833 12.8646 15.8125 12.5938C15.5417 12.3125 15.1302 12.1719 14.5781 12.1719H7.25C6.75 12.1719 6.35417 12.3281 6.0625 12.6406C5.77083 12.9427 5.625 13.3281 5.625 13.7969V19.2969C5.625 19.8281 5.76562 20.2344 6.04688 20.5156C6.32812 20.7969 6.73958 20.9375 7.28125 20.9375H14.5781V25H7.25C6.86458 25 6.45833 24.9583 6.03125 24.875C5.60417 24.7812 5.17708 24.6406 4.75 24.4531C4.33333 24.2656 3.93229 24.026 3.54688 23.7344C3.16146 23.4323 2.82292 23.0729 2.53125 22.6562C2.23958 22.2292 2.00521 21.7396 1.82812 21.1875C1.65104 20.625 1.5625 19.9948 1.5625 19.2969V13.7969C1.5625 13.4115 1.60417 13.0052 1.6875 12.5781C1.78125 12.151 1.92188 11.7292 2.10938 11.3125C2.29688 10.8854 2.53646 10.4792 2.82812 10.0938C3.13021 9.70833 3.48958 9.36979 3.90625 9.07812C4.33333 8.78646 4.82292 8.55208 5.375 8.375C5.92708 8.19792 6.55208 8.10938 7.25 8.10938H14.5781C14.9635 8.10938 15.3698 8.15625 15.7969 8.25C16.2344 8.33333 16.6615 8.46875 17.0781 8.65625C17.5052 8.84375 17.9115 9.08854 18.2969 9.39062C18.6823 9.68229 19.0208 10.0417 19.3125 10.4688C19.6042 10.8854 19.8385 11.3698 20.0156 11.9219C20.1927 12.474 20.2812 13.099 20.2812 13.7969V26.625ZM41.4375 19.4062C41.4375 19.9688 41.3385 20.5781 41.1406 21.2344C40.9427 21.8802 40.6198 22.4844 40.1719 23.0469C39.7344 23.599 39.1562 24.0625 38.4375 24.4375C37.7292 24.8125 36.8646 25 35.8438 25H28.5156C27.9531 25 27.3438 24.901 26.6875 24.7031C26.0417 24.5052 25.4375 24.1875 24.875 23.75C24.3229 23.3021 23.8594 22.724 23.4844 22.0156C23.1094 21.2969 22.9219 20.4271 22.9219 19.4062C22.9219 18.8438 23.0208 18.2344 23.2188 17.5781C23.4167 16.9219 23.7344 16.3177 24.1719 15.7656C24.6198 15.2031 25.1979 14.7344 25.9062 14.3594C26.625 13.9844 27.4948 13.7969 28.5156 13.7969H35.8438V17.6719H28.5156C27.9635 17.6719 27.5365 17.8438 27.2344 18.1875C26.9323 18.5208 26.7812 18.9375 26.7812 19.4375C26.7812 19.9688 26.9531 20.3854 27.2969 20.6875C27.651 20.9792 28.0677 21.125 28.5469 21.125H35.8438C36.3958 21.125 36.8229 20.9583 37.125 20.625C37.4271 20.2917 37.5781 19.875 37.5781 19.375V13.7031C37.5781 13.1719 37.4115 12.75 37.0781 12.4375C36.7552 12.125 36.3438 11.9688 35.8438 11.9688H26.9219V8.10938H35.8438C36.4062 8.10938 37.0104 8.20833 37.6562 8.40625C38.3125 8.60417 38.9167 8.92708 39.4688 9.375C40.0312 9.8125 40.5 10.3906 40.875 11.1094C41.25 11.8177 41.4375 12.6823 41.4375 13.7031V19.4062ZM52.3281 25H50.5156C49.9323 25 49.3073 24.901 48.6406 24.7031C47.9844 24.5052 47.3698 24.1823 46.7969 23.7344C46.224 23.276 45.75 22.6875 45.375 21.9688C45 21.2396 44.8125 20.349 44.8125 19.2969V0.96875H48.875V19.2969C48.875 19.7969 49.0312 20.1979 49.3438 20.5C49.6562 20.7917 50.0469 20.9375 50.5156 20.9375H52.3281V25ZM62.3594 25H60.5469C59.9635 25 59.3385 24.901 58.6719 24.7031C58.0156 24.5052 57.401 24.1823 56.8281 23.7344C56.2552 23.276 55.7812 22.6875 55.4062 21.9688C55.0312 21.2396 54.8438 20.349 54.8438 19.2969V0.96875H58.9062V19.2969C58.9062 19.7969 59.0625 20.1979 59.375 20.5C59.6875 20.7917 60.0781 20.9375 60.5469 20.9375H62.3594V25ZM83.1406 13.7031C83.1406 14.2656 83.0417 14.875 82.8438 15.5312C82.6458 16.1771 82.3229 16.7812 81.875 17.3438C81.4375 17.8958 80.8594 18.3594 80.1406 18.7344C79.4323 19.1094 78.5677 19.2969 77.5469 19.2969H70.2188V15.4375H77.5469C78.099 15.4375 78.526 15.2708 78.8281 14.9375C79.1302 14.5938 79.2812 14.1719 79.2812 13.6719C79.2812 13.1406 79.1094 12.724 78.7656 12.4219C78.4323 12.1198 78.026 11.9688 77.5469 11.9688H70.2188C69.6667 11.9688 69.2396 12.1406 68.9375 12.4844C68.6354 12.8177 68.4844 13.2344 68.4844 13.7344V19.4062C68.4844 19.9479 68.651 20.3698 68.9844 20.6719C69.3281 20.974 69.75 21.125 70.25 21.125H77.5469V25H70.2188C69.6562 25 69.0469 24.901 68.3906 24.7031C67.7448 24.5052 67.1406 24.1875 66.5781 23.75C66.026 23.3021 65.5625 22.724 65.1875 22.0156C64.8125 21.2969 64.625 20.4271 64.625 19.4062V13.7031C64.625 13.1406 64.724 12.5365 64.9219 11.8906C65.1198 11.2344 65.4375 10.6302 65.875 10.0781C66.3229 9.51562 66.901 9.04688 67.6094 8.67188C68.3281 8.29688 69.1979 8.10938 70.2188 8.10938H77.5469C78.1094 8.10938 78.7135 8.20833 79.3594 8.40625C80.0156 8.60417 80.6198 8.92708 81.1719 9.375C81.7344 9.8125 82.2031 10.3906 82.5781 11.1094C82.9531 11.8177 83.1406 12.6823 83.1406 13.7031ZM100.656 12.1719H91.5156C90.9635 12.1719 90.5469 12.3125 90.2656 12.5938C89.9844 12.8646 89.8438 13.2656 89.8438 13.7969V25H85.7812V13.7969C85.7812 13.099 85.8698 12.474 86.0469 11.9219C86.224 11.3698 86.4583 10.8854 86.75 10.4688C87.0521 10.0417 87.3958 9.68229 87.7812 9.39062C88.1667 9.08854 88.5677 8.84375 88.9844 8.65625C89.4115 8.46875 89.8385 8.33333 90.2656 8.25C90.7031 8.15625 91.1094 8.10938 91.4844 8.10938H100.656V12.1719ZM121.969 26.625C121.969 27.3229 121.88 27.9479 121.703 28.5C121.526 29.0625 121.292 29.5521 121 29.9688C120.708 30.3958 120.37 30.7552 119.984 31.0469C119.599 31.349 119.193 31.5938 118.766 31.7812C118.349 31.9688 117.927 32.1042 117.5 32.1875C117.073 32.2812 116.667 32.3281 116.281 32.3281H108.953V28.2656H116.281C116.823 28.2656 117.229 28.125 117.5 27.8438C117.771 27.5625 117.906 27.1562 117.906 26.625V8.10938H121.969V26.625ZM116.281 25H108.953C108.37 25 107.745 24.901 107.078 24.7031C106.422 24.5052 105.807 24.1823 105.234 23.7344C104.661 23.276 104.188 22.6875 103.812 21.9688C103.438 21.2396 103.25 20.349 103.25 19.2969V8.10938H107.312V19.2969C107.312 19.8281 107.453 20.2344 107.734 20.5156C108.016 20.7969 108.432 20.9375 108.984 20.9375H116.281V25Z" fill="white"/>
<path d="M20.0156 28.5L18.1112 27.8891L18.1079 27.8994L20.0156 28.5ZM19.3125 29.9688L17.674 28.8218L17.6674 28.8313L17.6609 28.8408L19.3125 29.9688ZM18.2969 31.0469L17.09 29.4521L17.0765 29.4623L17.0631 29.4728L18.2969 31.0469ZM17.0781 31.7812L16.2741 29.95L16.2658 29.9536L16.2574 29.9574L17.0781 31.7812ZM15.7969 32.1875L15.4227 30.2228L15.3953 30.228L15.3681 30.234L15.7969 32.1875ZM7.25 32.3281H5.25V34.3281H7.25V32.3281ZM7.25 28.2656V26.2656H5.25V28.2656H7.25ZM15.8125 27.8438L17.2531 29.231L15.8125 27.8438ZM15.8125 12.5938L14.3719 13.981L14.3849 13.9946L14.3983 14.008L15.8125 12.5938ZM6.0625 12.6406L7.5013 14.0298L7.51306 14.0176L7.52461 14.0053L6.0625 12.6406ZM14.5781 20.9375H16.5781V18.9375H14.5781V20.9375ZM14.5781 25V27H16.5781V25H14.5781ZM6.03125 24.875L5.60244 26.8285L5.62528 26.8335L5.64823 26.838L6.03125 24.875ZM4.75 24.4531L3.92927 26.277L3.93763 26.2807L3.94602 26.2844L4.75 24.4531ZM3.54688 23.7344L2.31311 25.3085L2.32646 25.319L2.33999 25.3292L3.54688 23.7344ZM2.53125 22.6562L0.879648 23.7842L0.886162 23.7937L0.892786 23.8032L2.53125 22.6562ZM1.82812 21.1875L-0.0796013 21.7881L-0.0763056 21.7984L1.82812 21.1875ZM1.6875 12.5781L-0.265989 12.1493L-0.271003 12.1722L-0.275481 12.1951L1.6875 12.5781ZM2.10938 11.3125L3.93322 12.1332L3.93698 12.1249L3.94066 12.1165L2.10938 11.3125ZM2.82812 10.0938L1.25401 8.85999L1.24355 8.87334L1.23331 8.88686L2.82812 10.0938ZM3.90625 9.07812L2.77833 7.42652L2.76879 7.43304L2.75933 7.43966L3.90625 9.07812ZM15.7969 8.25L15.3681 10.2035L15.3953 10.2095L15.4227 10.2147L15.7969 8.25ZM17.0781 8.65625L16.2574 10.4801L16.2658 10.4839L16.2741 10.4875L17.0781 8.65625ZM18.2969 9.39062L17.0631 10.9647L17.0765 10.9752L17.09 10.9854L18.2969 9.39062ZM19.3125 10.4688L17.6609 11.5967L17.6674 11.6062L17.674 11.6157L19.3125 10.4688ZM18.2812 26.625C18.2812 27.1564 18.2136 27.5699 18.1112 27.8891L21.9201 29.1109C22.1718 28.3259 22.2812 27.4894 22.2812 26.625H18.2812ZM18.1079 27.8994C17.9826 28.2975 17.8316 28.5967 17.674 28.8218L20.951 31.1157C21.3767 30.5075 21.6945 29.8275 21.9233 29.1006L18.1079 27.8994ZM17.6609 28.8408C17.4827 29.1018 17.2912 29.2998 17.09 29.4521L19.5038 32.6417C20.0734 32.2106 20.559 31.6899 20.9641 31.0967L17.6609 28.8408ZM17.0631 29.4728C16.803 29.6766 16.5403 29.8331 16.2741 29.95L17.8821 33.6125C18.4701 33.3544 19.0199 33.0213 19.5306 32.621L17.0631 29.4728ZM16.2574 29.9574C15.9798 30.0823 15.7024 30.1695 15.4227 30.2228L16.1711 34.1522C16.7664 34.0388 17.3431 33.8552 17.8989 33.6051L16.2574 29.9574ZM15.3681 30.234C15.0634 30.3009 14.8016 30.3281 14.5781 30.3281V34.3281C15.1255 34.3281 15.6762 34.2616 16.2257 34.141L15.3681 30.234ZM14.5781 30.3281H7.25V34.3281H14.5781V30.3281ZM9.25 32.3281V28.2656H5.25V32.3281H9.25ZM7.25 30.2656H14.5781V26.2656H7.25V30.2656ZM14.5781 30.2656C15.4449 30.2656 16.4716 30.0426 17.2531 29.231L14.3719 26.4565C14.4812 26.3429 14.5934 26.2883 14.654 26.2676C14.704 26.2506 14.6906 26.2656 14.5781 26.2656V30.2656ZM17.2531 29.231C17.9961 28.4595 18.2188 27.4834 18.2188 26.625H14.2188C14.2188 26.7253 14.2055 26.7387 14.2198 26.6957C14.2275 26.6727 14.2422 26.6362 14.2684 26.5919C14.2949 26.5471 14.3294 26.5006 14.3719 26.4565L17.2531 29.231ZM18.2188 26.625V13.7969H14.2188V26.625H18.2188ZM18.2188 13.7969C18.2188 12.9443 17.9983 11.9511 17.2267 11.1795L14.3983 14.008C14.2939 13.9036 14.2426 13.7976 14.2223 13.7375C14.2052 13.687 14.2188 13.6958 14.2188 13.7969H18.2188ZM17.2531 11.2065C16.4716 10.3949 15.4449 10.1719 14.5781 10.1719V14.1719C14.6906 14.1719 14.704 14.1869 14.654 14.1699C14.5934 14.1492 14.4812 14.0946 14.3719 13.981L17.2531 11.2065ZM14.5781 10.1719H7.25V14.1719H14.5781V10.1719ZM7.25 10.1719C6.29826 10.1719 5.33506 10.4888 4.60039 11.276L7.52461 14.0053C7.46863 14.0652 7.39223 14.1179 7.31246 14.1494C7.23948 14.1782 7.20818 14.1719 7.25 14.1719V10.1719ZM4.6237 11.2514C3.92891 11.971 3.625 12.8754 3.625 13.7969H7.625C7.625 13.7714 7.62853 13.8017 7.60495 13.864C7.57986 13.9303 7.5405 13.9892 7.5013 14.0298L4.6237 11.2514ZM3.625 13.7969V19.2969H7.625V13.7969H3.625ZM3.625 19.2969C3.625 20.1747 3.86377 21.1609 4.63266 21.9298L7.46109 19.1014C7.50324 19.1436 7.5388 19.1893 7.56695 19.2352C7.59481 19.2806 7.6113 19.3194 7.62044 19.3458C7.63783 19.396 7.625 19.3903 7.625 19.2969H3.625ZM4.63266 21.9298C5.40835 22.7055 6.40593 22.9375 7.28125 22.9375V18.9375C7.17864 18.9375 7.16677 18.9236 7.21322 18.9395C7.23798 18.948 7.27646 18.964 7.32253 18.992C7.36915 19.0204 7.41671 19.057 7.46109 19.1014L4.63266 21.9298ZM7.28125 22.9375H14.5781V18.9375H7.28125V22.9375ZM12.5781 20.9375V25H16.5781V20.9375H12.5781ZM14.5781 23H7.25V27H14.5781V23ZM7.25 23C7.00836 23 6.73103 22.9738 6.41427 22.912L5.64823 26.838C6.18563 26.9428 6.7208 27 7.25 27V23ZM6.46006 22.9215C6.17 22.8578 5.86832 22.7598 5.55398 22.6218L3.94602 26.2844C4.48585 26.5214 5.03833 26.7047 5.60244 26.8285L6.46006 22.9215ZM5.57073 22.6293C5.29863 22.5068 5.02635 22.3458 4.75376 22.1396L2.33999 25.3292C2.83823 25.7062 3.36804 26.0244 3.92927 26.277L5.57073 22.6293ZM4.78064 22.1603C4.55637 21.9845 4.35268 21.7707 4.16971 21.5093L0.892786 23.8032C1.29315 24.3751 1.76655 24.8801 2.31311 25.3085L4.78064 22.1603ZM4.18285 21.5283C4.0122 21.2785 3.85776 20.967 3.73256 20.5766L-0.0763056 21.7984C0.152657 22.5122 0.466963 23.1799 0.879648 23.7842L4.18285 21.5283ZM3.73582 20.5869C3.62994 20.2506 3.5625 19.8274 3.5625 19.2969H-0.4375C-0.4375 20.1622 -0.327855 20.9994 -0.0795735 21.7881L3.73582 20.5869ZM3.5625 19.2969V13.7969H-0.4375V19.2969H3.5625ZM3.5625 13.7969C3.5625 13.5552 3.58867 13.2779 3.65048 12.9611L-0.275481 12.1951C-0.380341 12.7325 -0.4375 13.2677 -0.4375 13.7969H3.5625ZM3.64099 13.0069C3.70386 12.7205 3.7998 12.4297 3.93322 12.1332L0.285532 10.4918C0.0439516 11.0286 -0.14136 11.5816 -0.265989 12.1493L3.64099 13.0069ZM3.94066 12.1165C4.06311 11.8376 4.22214 11.566 4.42294 11.3006L1.23331 8.88686C0.850774 9.39236 0.530641 9.93326 0.278087 10.5085L3.94066 12.1165ZM4.40224 11.3275C4.57802 11.1032 4.7918 10.8996 5.05317 10.7166L2.75933 7.43966C2.18737 7.84003 1.6824 8.31342 1.25401 8.85999L4.40224 11.3275ZM5.03417 10.7297C5.28405 10.5591 5.59551 10.4046 5.98586 10.2794L4.76414 6.47057C4.05032 6.69953 3.38262 7.01384 2.77833 7.42652L5.03417 10.7297ZM5.98586 10.2794C6.30505 10.177 6.71858 10.1094 7.25 10.1094V6.10938C6.38558 6.10938 5.54912 6.21879 4.76414 6.47057L5.98586 10.2794ZM7.25 10.1094H14.5781V6.10938H7.25V10.1094ZM14.5781 10.1094C14.8016 10.1094 15.0634 10.1366 15.3681 10.2035L16.2257 6.29651C15.6762 6.1759 15.1255 6.10938 14.5781 6.10938V10.1094ZM15.4227 10.2147C15.7024 10.268 15.9798 10.3552 16.2574 10.4801L17.8989 6.83241C17.3431 6.58232 16.7664 6.39871 16.1711 6.28532L15.4227 10.2147ZM16.2741 10.4875C16.5403 10.6044 16.803 10.7609 17.0631 10.9647L19.5306 7.81651C19.0199 7.41619 18.4701 7.08312 17.8821 6.82496L16.2741 10.4875ZM17.09 10.9854C17.2912 11.1377 17.4827 11.3357 17.6609 11.5967L20.9641 9.34083C20.559 8.74762 20.0734 8.22689 19.5038 7.79581L17.09 10.9854ZM17.674 11.6157C17.8359 11.8469 17.987 12.1454 18.1112 12.5327L21.9201 11.311C21.6901 10.5942 21.3725 9.92398 20.951 9.32183L17.674 11.6157ZM18.1112 12.5327C18.2136 12.8519 18.2812 13.2655 18.2812 13.7969H22.2812C22.2812 12.9325 22.1718 12.096 21.9201 11.311L18.1112 12.5327ZM18.2812 13.7969V26.625H22.2812V13.7969H18.2812ZM41.1406 21.2344L43.0529 21.8204L43.0554 21.8119L41.1406 21.2344ZM40.1719 23.0469L38.6073 21.801L38.6044 21.8047L40.1719 23.0469ZM38.4375 24.4375L37.5124 22.6643L37.5017 22.6699L38.4375 24.4375ZM26.6875 24.7031L26.1015 26.6154L26.11 26.6179L26.6875 24.7031ZM24.875 23.75L23.6149 25.3031L23.6309 25.3161L23.6471 25.3287L24.875 23.75ZM23.4844 22.0156L21.7112 22.9408L21.7168 22.9514L23.4844 22.0156ZM23.2188 17.5781L21.3039 17.0006L23.2188 17.5781ZM24.1719 15.7656L22.6073 14.5198L22.6044 14.5235L24.1719 15.7656ZM25.9062 14.3594L24.9811 12.5862L24.9705 12.5918L25.9062 14.3594ZM35.8438 13.7969H37.8438V11.7969H35.8438V13.7969ZM35.8438 17.6719V19.6719H37.8438V17.6719H35.8438ZM27.2344 18.1875L28.7163 19.5305L28.7266 19.5192L28.7367 19.5077L27.2344 18.1875ZM27.2969 20.6875L25.9766 22.1898L26.0007 22.211L26.0255 22.2314L27.2969 20.6875ZM37.0781 12.4375L35.6873 13.8747L35.6987 13.8857L35.7102 13.8966L37.0781 12.4375ZM26.9219 11.9688H24.9219V13.9688H26.9219V11.9688ZM26.9219 8.10938V6.10938H24.9219V8.10938H26.9219ZM37.6562 8.40625L37.0702 10.3185L37.0788 10.3211L37.6562 8.40625ZM39.4688 9.375L38.2087 10.9281L38.2246 10.9411L38.2409 10.9537L39.4688 9.375ZM40.875 11.1094L39.1018 12.0345L39.1074 12.0452L40.875 11.1094ZM39.4375 19.4062C39.4375 19.7359 39.3791 20.1486 39.2258 20.6569L43.0554 21.8119C43.298 21.0077 43.4375 20.2016 43.4375 19.4062H39.4375ZM39.2284 20.6484C39.1086 21.0393 38.9092 21.4219 38.6073 21.801L41.7364 24.2927C42.3304 23.5468 42.7768 22.7212 43.0528 21.8204L39.2284 20.6484ZM38.6044 21.8047C38.3658 22.1058 38.0195 22.3998 37.5124 22.6643L39.3626 26.2107C40.293 25.7252 41.103 25.0921 41.7394 24.289L38.6044 21.8047ZM37.5017 22.6699C37.1499 22.8562 36.6254 23 35.8438 23V27C37.1037 27 38.3084 26.7688 39.3733 26.2051L37.5017 22.6699ZM35.8438 23H28.5156V27H35.8438V23ZM28.5156 23C28.186 23 27.7733 22.9416 27.265 22.7883L26.11 26.6179C26.9142 26.8605 27.7203 27 28.5156 27V23ZM27.2735 22.7909C26.8727 22.6681 26.4841 22.4678 26.1029 22.1713L23.6471 25.3287C24.3909 25.9072 25.2106 26.3423 26.1015 26.6153L27.2735 22.7909ZM26.1351 22.1969C25.817 21.9388 25.517 21.5806 25.252 21.0798L21.7168 22.9514C22.2017 23.8673 22.8288 24.6654 23.6149 25.3031L26.1351 22.1969ZM25.2575 21.0905C25.0652 20.7219 24.9219 20.1866 24.9219 19.4062H20.9219C20.9219 20.6676 21.1535 21.8719 21.7112 22.9408L25.2575 21.0905ZM24.9219 19.4062C24.9219 19.0766 24.9803 18.6639 25.1336 18.1556L21.3039 17.0006C21.0614 17.8048 20.9219 18.6109 20.9219 19.4062H24.9219ZM25.1336 18.1556C25.2566 17.7476 25.4541 17.3678 25.7394 17.0078L22.6044 14.5235C22.0147 15.2676 21.5767 16.0962 21.3039 17.0006L25.1336 18.1556ZM25.7364 17.0115C25.9942 16.6877 26.349 16.388 26.842 16.127L24.9705 12.5918C24.0468 13.0808 23.2454 13.7185 22.6073 14.5198L25.7364 17.0115ZM26.8314 16.1325C27.2 15.9402 27.7353 15.7969 28.5156 15.7969V11.7969C27.2543 11.7969 26.05 12.0285 24.9811 12.5862L26.8314 16.1325ZM28.5156 15.7969H35.8438V11.7969H28.5156V15.7969ZM33.8438 13.7969V17.6719H37.8438V13.7969H33.8438ZM35.8438 15.6719H28.5156V19.6719H35.8438V15.6719ZM28.5156 15.6719C27.5179 15.6719 26.4917 16.0028 25.732 16.8673L28.7367 19.5077C28.7116 19.5363 28.6788 19.5668 28.6391 19.5949C28.5995 19.6229 28.5609 19.6429 28.5279 19.6562C28.4619 19.6827 28.4456 19.6719 28.5156 19.6719V15.6719ZM25.7524 16.8445C25.0789 17.5876 24.7812 18.5008 24.7812 19.4375H28.7812C28.7812 19.3904 28.788 19.3953 28.7748 19.4316C28.7686 19.4488 28.7596 19.4681 28.748 19.4874C28.7363 19.5066 28.7249 19.5211 28.7163 19.5305L25.7524 16.8445ZM24.7812 19.4375C24.7812 20.4418 25.1295 21.4454 25.9766 22.1898L28.6171 19.1852C28.6413 19.2064 28.6693 19.2359 28.6964 19.2736C28.7235 19.3115 28.7443 19.3501 28.759 19.3858C28.789 19.4585 28.7812 19.4874 28.7812 19.4375H24.7812ZM26.0255 22.2314C26.7546 22.8318 27.6261 23.125 28.5469 23.125V19.125C28.5288 19.125 28.5206 19.1236 28.5206 19.1236C28.5205 19.1236 28.5219 19.1239 28.5247 19.1246C28.5276 19.1253 28.5313 19.1264 28.5357 19.1279C28.545 19.1312 28.554 19.1353 28.5614 19.1395C28.5687 19.1437 28.571 19.1459 28.5683 19.1436L26.0255 22.2314ZM28.5469 23.125H35.8438V19.125H28.5469V23.125ZM35.8438 23.125C36.8219 23.125 37.8418 22.8124 38.607 21.968L35.643 19.282C35.6703 19.2519 35.7043 19.2215 35.7439 19.1943C35.7834 19.1672 35.8207 19.1487 35.851 19.1368C35.9113 19.1133 35.9205 19.125 35.8438 19.125V23.125ZM38.607 21.968C39.2805 21.2249 39.5781 20.3117 39.5781 19.375H35.5781C35.5781 19.4221 35.5714 19.4172 35.5846 19.3809C35.5908 19.3637 35.5997 19.3444 35.6114 19.3251C35.623 19.3059 35.6345 19.2914 35.643 19.282L38.607 21.968ZM39.5781 19.375V13.7031H35.5781V19.375H39.5781ZM39.5781 13.7031C39.5781 12.7173 39.2491 11.7313 38.446 10.9784L35.7102 13.8966C35.6896 13.8772 35.6661 13.8509 35.6437 13.818C35.6212 13.785 35.6045 13.7522 35.593 13.7231C35.5695 13.6637 35.5781 13.6467 35.5781 13.7031H39.5781ZM38.469 11.0003C37.7296 10.2848 36.7991 9.96875 35.8438 9.96875V13.9688C35.8838 13.9688 35.8671 13.9746 35.8173 13.9557C35.7935 13.9466 35.7681 13.9341 35.7433 13.9183C35.7186 13.9025 35.6998 13.8869 35.6873 13.8747L38.469 11.0003ZM35.8438 9.96875H26.9219V13.9688H35.8438V9.96875ZM28.9219 11.9688V8.10938H24.9219V11.9688H28.9219ZM26.9219 10.1094H35.8438V6.10938H26.9219V10.1094ZM35.8438 10.1094C36.1725 10.1094 36.5775 10.1675 37.0702 10.3185L38.2423 6.49403C37.4434 6.24921 36.64 6.10938 35.8438 6.10938V10.1094ZM37.0788 10.3211C37.4769 10.4411 37.8508 10.6378 38.2087 10.9281L40.7288 7.82188C39.9825 7.21639 39.1481 6.7672 38.2337 6.49144L37.0788 10.3211ZM38.2409 10.9537C38.5476 11.1923 38.8413 11.5352 39.1018 12.0345L42.6482 10.1842C42.1587 9.24605 41.5149 8.43274 40.6966 7.7963L38.2409 10.9537ZM39.1074 12.0452C39.2937 12.397 39.4375 12.9214 39.4375 13.7031H43.4375C43.4375 12.4431 43.2063 11.2384 42.6426 10.1736L39.1074 12.0452ZM39.4375 13.7031V19.4062H43.4375V13.7031H39.4375ZM52.3281 25V27H54.3281V25H52.3281ZM48.6406 24.7031L48.0631 26.618L48.0714 26.6204L48.6406 24.7031ZM46.7969 23.7344L45.5475 25.2961L45.5562 25.3031L45.565 25.31L46.7969 23.7344ZM45.375 21.9688L43.5964 22.8835L43.6018 22.8939L45.375 21.9688ZM44.8125 0.96875V-1.03125H42.8125V0.96875H44.8125ZM48.875 0.96875H50.875V-1.03125H48.875V0.96875ZM49.3438 20.5L47.9537 21.938L47.9663 21.9502L47.9791 21.9621L49.3438 20.5ZM52.3281 20.9375H54.3281V18.9375H52.3281V20.9375ZM52.3281 23H50.5156V27H52.3281V23ZM50.5156 23C50.1578 23 49.7261 22.9391 49.2098 22.7858L48.0714 26.6204C48.8885 26.863 49.7068 27 50.5156 27V23ZM49.2181 22.7883C48.8133 22.6662 48.4184 22.4635 48.0287 22.1588L45.565 25.31C46.3211 25.9011 47.1554 26.3442 48.0631 26.6179L49.2181 22.7883ZM48.0463 22.1726C47.712 21.9053 47.4082 21.5421 47.1482 21.0436L43.6018 22.8939C44.0918 23.8329 44.7359 24.6468 45.5475 25.2961L48.0463 22.1726ZM47.1536 21.0541C46.9594 20.6765 46.8125 20.1182 46.8125 19.2969H42.8125C42.8125 20.5797 43.0406 21.8027 43.5964 22.8834L47.1536 21.0541ZM46.8125 19.2969V0.96875H42.8125V19.2969H46.8125ZM44.8125 2.96875H48.875V-1.03125H44.8125V2.96875ZM46.875 0.96875V19.2969H50.875V0.96875H46.875ZM46.875 19.2969C46.875 20.2502 47.1918 21.2015 47.9537 21.938L50.7338 19.062C50.7827 19.1093 50.8281 19.1757 50.8557 19.2466C50.8811 19.3117 50.875 19.338 50.875 19.2969H46.875ZM47.9791 21.9621C48.6991 22.6341 49.5935 22.9375 50.5156 22.9375V18.9375C50.4906 18.9375 50.5161 18.9341 50.5706 18.9544C50.6282 18.9759 50.6771 19.0087 50.7084 19.0379L47.9791 21.9621ZM50.5156 22.9375H52.3281V18.9375H50.5156V22.9375ZM50.3281 20.9375V25H54.3281V20.9375H50.3281ZM62.3594 25V27H64.3594V25H62.3594ZM58.6719 24.7031L58.0944 26.618L58.1027 26.6204L58.6719 24.7031ZM56.8281 23.7344L55.5787 25.2961L55.5875 25.3031L55.5963 25.31L56.8281 23.7344ZM55.4062 21.9688L53.6276 22.8835L53.6331 22.8939L55.4062 21.9688ZM54.8438 0.96875V-1.03125H52.8438V0.96875H54.8438ZM58.9062 0.96875H60.9062V-1.03125H58.9062V0.96875ZM59.375 20.5L57.985 21.938L57.9976 21.9502L58.0104 21.9621L59.375 20.5ZM62.3594 20.9375H64.3594V18.9375H62.3594V20.9375ZM62.3594 23H60.5469V27H62.3594V23ZM60.5469 23C60.1891 23 59.7573 22.9391 59.2411 22.7858L58.1027 26.6204C58.9198 26.863 59.738 27 60.5469 27V23ZM59.2494 22.7883C58.8446 22.6662 58.4497 22.4635 58.06 22.1588L55.5963 25.31C56.3524 25.9011 57.1867 26.3442 58.0944 26.6179L59.2494 22.7883ZM58.0775 22.1726C57.7433 21.9053 57.4395 21.5421 57.1794 21.0436L53.6331 22.8939C54.123 23.8329 54.7671 24.6468 55.5787 25.2961L58.0775 22.1726ZM57.1848 21.0541C56.9907 20.6765 56.8438 20.1182 56.8438 19.2969H52.8438C52.8438 20.5797 53.0718 21.8027 53.6277 22.8834L57.1848 21.0541ZM56.8438 19.2969V0.96875H52.8438V19.2969H56.8438ZM54.8438 2.96875H58.9062V-1.03125H54.8438V2.96875ZM56.9062 0.96875V19.2969H60.9062V0.96875H56.9062ZM56.9062 19.2969C56.9062 20.2502 57.223 21.2015 57.985 21.938L60.765 19.062C60.814 19.1093 60.8594 19.1757 60.887 19.2466C60.9124 19.3117 60.9062 19.338 60.9062 19.2969H56.9062ZM58.0104 21.9621C58.7304 22.6341 59.6248 22.9375 60.5469 22.9375V18.9375C60.5219 18.9375 60.5474 18.9341 60.6019 18.9544C60.6595 18.9759 60.7084 19.0087 60.7396 19.0379L58.0104 21.9621ZM60.5469 22.9375H62.3594V18.9375H60.5469V22.9375ZM60.3594 20.9375V25H64.3594V20.9375H60.3594ZM82.8438 15.5312L84.756 16.1173L84.7586 16.1087L82.8438 15.5312ZM81.875 17.3438L80.3104 16.0979L80.3075 16.1016L81.875 17.3438ZM80.1406 18.7344L79.2155 16.9612L79.2048 16.9668L80.1406 18.7344ZM70.2188 19.2969H68.2188V21.2969H70.2188V19.2969ZM70.2188 15.4375V13.4375H68.2188V15.4375H70.2188ZM78.8281 14.9375L80.3101 16.2805L80.3204 16.2692L80.3305 16.2577L78.8281 14.9375ZM78.7656 12.4219L77.4226 13.9038L77.4339 13.9141L77.4454 13.9242L78.7656 12.4219ZM68.9375 12.4844L70.4195 13.8274L70.4297 13.8161L70.4398 13.8046L68.9375 12.4844ZM68.9844 20.6719L67.6413 22.1538L67.6527 22.1641L67.6641 22.1742L68.9844 20.6719ZM77.5469 21.125H79.5469V19.125H77.5469V21.125ZM77.5469 25V27H79.5469V25H77.5469ZM68.3906 24.7031L67.8046 26.6154L67.8131 26.6179L68.3906 24.7031ZM66.5781 23.75L65.318 25.3031L65.334 25.3161L65.3502 25.3287L66.5781 23.75ZM65.1875 22.0156L63.4143 22.9408L63.4199 22.9514L65.1875 22.0156ZM64.9219 11.8906L66.8341 12.4766L66.8367 12.4681L64.9219 11.8906ZM65.875 10.0781L64.3104 8.83227L64.3075 8.83596L65.875 10.0781ZM67.6094 8.67188L66.6842 6.89867L66.6736 6.9043L67.6094 8.67188ZM79.3594 8.40625L78.7734 10.3185L78.7819 10.3211L79.3594 8.40625ZM81.1719 9.375L79.9118 10.9281L79.9278 10.9411L79.944 10.9537L81.1719 9.375ZM82.5781 11.1094L80.8049 12.0345L80.8105 12.0452L82.5781 11.1094ZM81.1406 13.7031C81.1406 14.0328 81.0822 14.4455 80.9289 14.9538L84.7586 16.1087C85.0011 15.3045 85.1406 14.4985 85.1406 13.7031H81.1406ZM80.9315 14.9452C80.8117 15.3361 80.6123 15.7188 80.3104 16.0979L83.4396 18.5896C84.0335 17.8437 84.4799 17.018 84.756 16.1173L80.9315 14.9452ZM80.3075 16.1016C80.0689 16.4027 79.7226 16.6966 79.2155 16.9612L81.0658 20.5075C81.9962 20.0221 82.8061 19.389 83.4425 18.5859L80.3075 16.1016ZM79.2048 16.9668C78.853 17.1531 78.3286 17.2969 77.5469 17.2969V21.2969C78.8069 21.2969 80.0116 21.0657 81.0764 20.502L79.2048 16.9668ZM77.5469 17.2969H70.2188V21.2969H77.5469V17.2969ZM72.2188 19.2969V15.4375H68.2188V19.2969H72.2188ZM70.2188 17.4375H77.5469V13.4375H70.2188V17.4375ZM77.5469 17.4375C78.525 17.4375 79.5449 17.1249 80.3101 16.2805L77.3462 13.5945C77.3734 13.5644 77.4074 13.534 77.4471 13.5068C77.4866 13.4797 77.5238 13.4612 77.5542 13.4493C77.6144 13.4258 77.6237 13.4375 77.5469 13.4375V17.4375ZM80.3305 16.2577C80.984 15.5141 81.2812 14.6092 81.2812 13.6719H77.2812C77.2812 13.6961 77.2794 13.7077 77.2792 13.7089C77.2791 13.7097 77.2803 13.7023 77.285 13.6891C77.2898 13.6758 77.2966 13.6609 77.3052 13.6464C77.3138 13.6319 77.3215 13.6221 77.3258 13.6173L80.3305 16.2577ZM81.2812 13.6719C81.2812 12.6676 80.933 11.664 80.0859 10.9195L77.4454 13.9242C77.4212 13.903 77.3932 13.8735 77.3661 13.8357C77.339 13.7979 77.3182 13.7593 77.3035 13.7236C77.2735 13.6509 77.2812 13.6219 77.2812 13.6719H81.2812ZM80.1087 10.9399C79.3821 10.2814 78.4872 9.96875 77.5469 9.96875V13.9688C77.5736 13.9688 77.5562 13.9724 77.514 13.9567C77.4943 13.9493 77.4748 13.9399 77.4571 13.929C77.4396 13.9182 77.4281 13.9088 77.4226 13.9038L80.1087 10.9399ZM77.5469 9.96875H70.2188V13.9688H77.5469V9.96875ZM70.2188 9.96875C69.221 9.96875 68.1949 10.2997 67.4352 11.1641L70.4398 13.8046C70.4147 13.8332 70.3819 13.8637 70.3422 13.8918C70.3026 13.9198 70.264 13.9398 70.2311 13.953C70.165 13.9796 70.1488 13.9688 70.2188 13.9688V9.96875ZM67.4555 11.1413C66.782 11.8845 66.4844 12.7976 66.4844 13.7344H70.4844C70.4844 13.6873 70.4911 13.6922 70.4779 13.7285C70.4717 13.7456 70.4628 13.7649 70.4511 13.7842C70.4395 13.8035 70.428 13.818 70.4195 13.8274L67.4555 11.1413ZM66.4844 13.7344V19.4062H70.4844V13.7344H66.4844ZM66.4844 19.4062C66.4844 20.3873 66.8051 21.396 67.6413 22.1538L70.3274 19.1899C70.3553 19.2152 70.3846 19.2476 70.4113 19.2863C70.438 19.3249 70.4569 19.3623 70.4695 19.3941C70.4946 19.4577 70.4844 19.4733 70.4844 19.4062H66.4844ZM67.6641 22.1742C68.4078 22.8277 69.3127 23.125 70.25 23.125V19.125C70.2258 19.125 70.2142 19.1232 70.213 19.123C70.2122 19.1229 70.2196 19.124 70.2327 19.1288C70.2461 19.1335 70.2609 19.1404 70.2755 19.149C70.2899 19.1575 70.2997 19.1653 70.3046 19.1695L67.6641 22.1742ZM70.25 23.125H77.5469V19.125H70.25V23.125ZM75.5469 21.125V25H79.5469V21.125H75.5469ZM77.5469 23H70.2188V27H77.5469V23ZM70.2188 23C69.8891 23 69.4764 22.9416 68.9681 22.7883L67.8131 26.6179C68.6173 26.8605 69.4234 27 70.2188 27V23ZM68.9766 22.7909C68.5758 22.6681 68.1873 22.4678 67.806 22.1713L65.3502 25.3287C66.094 25.9072 66.9138 26.3423 67.8046 26.6153L68.9766 22.7909ZM67.8382 22.1969C67.5201 21.9388 67.2202 21.5806 66.9551 21.0798L63.4199 22.9514C63.9048 23.8673 64.532 24.6654 65.318 25.3031L67.8382 22.1969ZM66.9607 21.0905C66.7683 20.7219 66.625 20.1866 66.625 19.4062H62.625C62.625 20.6676 62.8567 21.8719 63.4143 22.9408L66.9607 21.0905ZM66.625 19.4062V13.7031H62.625V19.4062H66.625ZM66.625 13.7031C66.625 13.3744 66.6831 12.9694 66.8341 12.4766L63.0097 11.3046C62.7648 12.1035 62.625 12.9068 62.625 13.7031H66.625ZM66.8367 12.4681C66.9597 12.0601 67.1572 11.6803 67.4425 11.3203L64.3075 8.83596C63.7178 9.58014 63.2798 10.4087 63.0071 11.3131L66.8367 12.4681ZM67.4396 11.324C67.6973 11.0003 68.0521 10.7005 68.5452 10.4395L66.6736 6.9043C65.75 7.39328 64.9485 8.031 64.3104 8.83227L67.4396 11.324ZM68.5345 10.445C68.9031 10.2527 69.4384 10.1094 70.2188 10.1094V6.10938C68.9574 6.10938 67.7531 6.34103 66.6842 6.89871L68.5345 10.445ZM70.2188 10.1094H77.5469V6.10938H70.2188V10.1094ZM77.5469 10.1094C77.8756 10.1094 78.2806 10.1675 78.7734 10.3185L79.9454 6.49403C79.1465 6.24921 78.3432 6.10938 77.5469 6.10938V10.1094ZM78.7819 10.3211C79.18 10.4411 79.5539 10.6378 79.9118 10.9281L82.432 7.82188C81.6857 7.21639 80.8512 6.7672 79.9369 6.49144L78.7819 10.3211ZM79.944 10.9537C80.2507 11.1923 80.5444 11.5352 80.805 12.0345L84.3513 10.1842C83.8618 9.24605 83.218 8.43274 82.3998 7.7963L79.944 10.9537ZM80.8105 12.0452C80.9968 12.397 81.1406 12.9214 81.1406 13.7031H85.1406C85.1406 12.4431 84.9094 11.2384 84.3457 10.1736L80.8105 12.0452ZM100.656 12.1719V14.1719H102.656V12.1719H100.656ZM90.2656 12.5938L91.6529 14.0344L91.6665 14.0213L91.6798 14.008L90.2656 12.5938ZM89.8438 25V27H91.8438V25H89.8438ZM85.7812 25H83.7812V27H85.7812V25ZM86.0469 11.9219L84.1424 11.311L86.0469 11.9219ZM86.75 10.4688L85.1171 9.31381L85.1115 9.32183L86.75 10.4688ZM87.7812 9.39062L88.9881 10.9854L89.0017 10.9752L89.015 10.9647L87.7812 9.39062ZM88.9844 8.65625L88.1804 6.82496L88.172 6.82865L88.1636 6.83241L88.9844 8.65625ZM90.2656 8.25L90.6486 10.213L90.6667 10.2095L90.6847 10.2056L90.2656 8.25ZM100.656 8.10938H102.656V6.10938H100.656V8.10938ZM100.656 10.1719H91.5156V14.1719H100.656V10.1719ZM91.5156 10.1719C90.6427 10.1719 89.6337 10.3973 88.8514 11.1795L91.6798 14.008C91.6332 14.0546 91.5839 14.0922 91.5366 14.1208C91.4899 14.149 91.4517 14.1645 91.4286 14.1723C91.386 14.1867 91.404 14.1719 91.5156 14.1719V10.1719ZM88.8783 11.1531C88.0806 11.9213 87.8438 12.9243 87.8438 13.7969H91.8438C91.8438 13.7026 91.8568 13.7017 91.8366 13.7594C91.8127 13.8275 91.757 13.9341 91.6529 14.0344L88.8783 11.1531ZM87.8438 13.7969V25H91.8438V13.7969H87.8438ZM89.8438 23H85.7812V27H89.8438V23ZM87.7812 25V13.7969H83.7812V25H87.7812ZM87.7812 13.7969C87.7812 13.2655 87.8489 12.8519 87.9513 12.5327L84.1424 11.311C83.8907 12.096 83.7812 12.9325 83.7812 13.7969H87.7812ZM87.9513 12.5327C88.0755 12.1454 88.2266 11.8469 88.3885 11.6157L85.1115 9.32183C84.69 9.92398 84.3724 10.5942 84.1424 11.311L87.9513 12.5327ZM88.3828 11.6237C88.5761 11.3505 88.7794 11.1434 88.9881 10.9854L86.5744 7.79581C86.0123 8.22115 85.5281 8.73287 85.1172 9.31382L88.3828 11.6237ZM89.015 10.9647C89.2824 10.7552 89.5458 10.5968 89.8051 10.4801L88.1636 6.83241C87.5896 7.09073 87.0509 7.42191 86.5475 7.81651L89.015 10.9647ZM89.7884 10.4875C90.09 10.3551 90.3763 10.2661 90.6486 10.213L89.8826 6.28702C89.3008 6.40054 88.7329 6.5824 88.1804 6.82496L89.7884 10.4875ZM90.6847 10.2056C91.01 10.1359 91.2742 10.1094 91.4844 10.1094V6.10938C90.9446 6.10938 90.3963 6.1766 89.8466 6.2944L90.6847 10.2056ZM91.4844 10.1094H100.656V6.10938H91.4844V10.1094ZM98.6562 8.10938V12.1719H102.656V8.10938H98.6562ZM121.703 28.5L119.799 27.8891L119.795 27.8994L121.703 28.5ZM121 29.9688L119.362 28.8218L119.355 28.8313L119.348 28.8408L121 29.9688ZM119.984 31.0469L118.777 29.4521L118.764 29.4623L118.751 29.4728L119.984 31.0469ZM118.766 31.7812L117.962 29.95L117.953 29.9536L117.945 29.9574L118.766 31.7812ZM117.5 32.1875L117.117 30.2245L117.094 30.229L117.071 30.234L117.5 32.1875ZM108.953 32.3281H106.953V34.3281H108.953V32.3281ZM108.953 28.2656V26.2656H106.953V28.2656H108.953ZM117.5 27.8438L118.941 29.231L117.5 27.8438ZM117.906 8.10938V6.10938H115.906V8.10938H117.906ZM121.969 8.10938H123.969V6.10938H121.969V8.10938ZM116.281 25V27H118.281V25H116.281ZM107.078 24.7031L106.501 26.618L106.509 26.6204L107.078 24.7031ZM105.234 23.7344L103.985 25.2961L103.994 25.3031L104.003 25.31L105.234 23.7344ZM103.812 21.9688L102.034 22.8835L102.039 22.8939L103.812 21.9688ZM103.25 8.10938V6.10938H101.25V8.10938H103.25ZM107.312 8.10938H109.312V6.10938H107.312V8.10938ZM116.281 20.9375H118.281V18.9375H116.281V20.9375ZM119.969 26.625C119.969 27.1564 119.901 27.5699 119.799 27.8891L123.608 29.1109C123.859 28.3259 123.969 27.4894 123.969 26.625H119.969ZM119.795 27.8994C119.67 28.2975 119.519 28.5967 119.362 28.8218L122.638 31.1157C123.064 30.5075 123.382 29.8275 123.611 29.1006L119.795 27.8994ZM119.348 28.8408C119.17 29.1018 118.979 29.2998 118.777 29.4521L121.191 32.6417C121.761 32.2106 122.246 31.6899 122.652 31.0967L119.348 28.8408ZM118.751 29.4728C118.491 29.6766 118.228 29.8331 117.962 29.95L119.57 33.6125C120.158 33.3544 120.707 33.0213 121.218 32.621L118.751 29.4728ZM117.945 29.9574C117.661 30.085 117.386 30.172 117.117 30.2245L117.883 34.1505C118.468 34.0363 119.037 33.8525 119.586 33.6051L117.945 29.9574ZM117.071 30.234C116.766 30.3009 116.505 30.3281 116.281 30.3281V34.3281C116.829 34.3281 117.379 34.2616 117.929 34.141L117.071 30.234ZM116.281 30.3281H108.953V34.3281H116.281V30.3281ZM110.953 32.3281V28.2656H106.953V32.3281H110.953ZM108.953 30.2656H116.281V26.2656H108.953V30.2656ZM116.281 30.2656C117.151 30.2656 118.166 30.0358 118.941 29.231L116.059 26.4565C116.164 26.3476 116.274 26.2925 116.338 26.2702C116.392 26.2515 116.385 26.2656 116.281 26.2656V30.2656ZM118.941 29.231C119.684 28.4595 119.906 27.4834 119.906 26.625H115.906C115.906 26.7253 115.893 26.7387 115.907 26.6957C115.915 26.6727 115.93 26.6362 115.956 26.5919C115.982 26.5471 116.017 26.5006 116.059 26.4565L118.941 29.231ZM119.906 26.625V8.10938H115.906V26.625H119.906ZM117.906 10.1094H121.969V6.10938H117.906V10.1094ZM119.969 8.10938V26.625H123.969V8.10938H119.969ZM116.281 23H108.953V27H116.281V23ZM108.953 23C108.595 23 108.164 22.9391 107.647 22.7858L106.509 26.6204C107.326 26.863 108.144 27 108.953 27V23ZM107.656 22.7883C107.251 22.6662 106.856 22.4635 106.466 22.1588L104.003 25.31C104.759 25.9011 105.593 26.3442 106.501 26.6179L107.656 22.7883ZM106.484 22.1726C106.15 21.9053 105.846 21.5421 105.586 21.0436L102.039 22.8939C102.529 23.8329 103.173 24.6468 103.985 25.2961L106.484 22.1726ZM105.591 21.0541C105.397 20.6765 105.25 20.1182 105.25 19.2969H101.25C101.25 20.5797 101.478 21.8027 102.034 22.8834L105.591 21.0541ZM105.25 19.2969V8.10938H101.25V19.2969H105.25ZM103.25 10.1094H107.312V6.10938H103.25V10.1094ZM105.312 8.10938V19.2969H109.312V8.10938H105.312ZM105.312 19.2969C105.312 20.1747 105.551 21.1609 106.32 21.9298L109.149 19.1014C109.191 19.1436 109.226 19.1893 109.254 19.2352C109.282 19.2806 109.299 19.3194 109.308 19.3458C109.325 19.396 109.312 19.3903 109.312 19.2969H105.312ZM106.32 21.9298C107.102 22.7121 108.111 22.9375 108.984 22.9375V18.9375C108.873 18.9375 108.855 18.9227 108.897 18.937C108.92 18.9448 108.959 18.9604 109.005 18.9886C109.053 19.0172 109.102 19.0548 109.149 19.1014L106.32 21.9298ZM108.984 22.9375H116.281V18.9375H108.984V22.9375ZM114.281 20.9375V25H118.281V20.9375H114.281Z" fill="black"/>
</g>
<defs>
<filter id="filter0_d_2455_7211" x="0.5625" y="0.96875" width="130.406" height="41.3594" filterUnits="userSpaceOnUse" color-interpolation-filters="sRGB">
<feFlood flood-opacity="0" result="BackgroundImageFix"/>
<feColorMatrix in="SourceAlpha" type="matrix" values="0 0 0 0 0 0 0 0 0 0 0 0 0 0 0 0 0 0 127 0" result="hardAlpha"/>
<feOffset dx="4" dy="5"/>
<feGaussianBlur stdDeviation="2.5"/>
<feComposite in2="hardAlpha" operator="out"/>
<feColorMatrix type="matrix" values="0 0 0 0 0 0 0 0 0 0 0 0 0 0 0 0 0 0 0.28 0"/>
<feBlend mode="normal" in2="BackgroundImageFix" result="effect1_dropShadow_2455_7211"/>
<feBlend mode="normal" in="SourceGraphic" in2="effect1_dropShadow_2455_7211" result="shape"/>
</filter>
</defs>
</svg>
