<svg width="84" height="37" viewBox="0 0 84 37" fill="none" xmlns="http://www.w3.org/2000/svg">
<g filter="url(#filter0_d_2435_6609)">
<path d="M19.8906 13.8438H7.04688V9.75H19.8906V13.8438ZM21.7031 4.65625H5.42188V23H1.35938V2.64062C1.35938 2.35938 1.41146 2.09375 1.51562 1.84375C1.61979 1.59375 1.76042 1.375 1.9375 1.1875C2.125 1 2.34375 0.854167 2.59375 0.75C2.84375 0.645833 3.11458 0.59375 3.40625 0.59375H21.7031V4.65625ZM46.6562 23H42.5938V17.5H28.3125V23H24.25V11.7969C24.25 10.1615 24.5312 8.65625 25.0938 7.28125C25.6562 5.90625 26.4375 4.72396 27.4375 3.73438C28.4375 2.74479 29.6198 1.97396 30.9844 1.42188C32.349 0.869792 33.8385 0.59375 35.4531 0.59375H44.6094C44.8906 0.59375 45.1562 0.645833 45.4062 0.75C45.6562 0.854167 45.875 1 46.0625 1.1875C46.25 1.375 46.3958 1.59375 46.5 1.84375C46.6042 2.09375 46.6562 2.35938 46.6562 2.64062V23ZM28.3125 13.4375H42.5938V4.65625H35.4531C35.3281 4.65625 35.0625 4.67708 34.6562 4.71875C34.2604 4.75 33.7969 4.83854 33.2656 4.98438C32.7448 5.13021 32.1927 5.35417 31.6094 5.65625C31.026 5.95833 30.4896 6.375 30 6.90625C29.5104 7.4375 29.1042 8.10417 28.7812 8.90625C28.4688 9.69792 28.3125 10.6615 28.3125 11.7969V13.4375ZM74.9062 13.9375C74.9062 14.9792 74.7656 15.9635 74.4844 16.8906C74.2135 17.8073 73.8229 18.6406 73.3125 19.3906C72.8125 20.1406 72.2031 20.7969 71.4844 21.3594C70.776 21.9219 69.9844 22.3646 69.1094 22.6875L73.8594 26.4531H67.9688L64.0625 23.3125H60.0625C58.7188 23.3125 57.474 23.0833 56.3281 22.625C55.1823 22.1562 54.1927 21.5052 53.3594 20.6719C52.526 19.8385 51.8698 18.849 51.3906 17.7031C50.9219 16.5573 50.6875 15.3021 50.6875 13.9375V9.65625C50.6875 8.30208 50.9219 7.05208 51.3906 5.90625C51.8698 4.75 52.526 3.76042 53.3594 2.9375C54.1927 2.10417 55.1823 1.45312 56.3281 0.984375C57.474 0.515625 58.7188 0.28125 60.0625 0.28125H65.5625C66.9062 0.28125 68.1458 0.515625 69.2812 0.984375C70.4271 1.45312 71.4167 2.10417 72.25 2.9375C73.0833 3.76042 73.7344 4.75 74.2031 5.90625C74.6719 7.05208 74.9062 8.30208 74.9062 9.65625V13.9375ZM70.8438 9.65625C70.8438 8.85417 70.7135 8.13021 70.4531 7.48438C70.2031 6.82812 69.8438 6.27083 69.375 5.8125C68.9167 5.34375 68.3594 4.98438 67.7031 4.73438C67.0573 4.47396 66.3438 4.34375 65.5625 4.34375H60.0625C59.2708 4.34375 58.5469 4.47396 57.8906 4.73438C57.2448 4.98438 56.6875 5.34375 56.2188 5.8125C55.75 6.27083 55.3854 6.82812 55.125 7.48438C54.875 8.13021 54.75 8.85417 54.75 9.65625V13.9375C54.75 14.7396 54.875 15.4688 55.125 16.125C55.3854 16.7708 55.75 17.3281 56.2188 17.7969C56.6875 18.2552 57.2448 18.6146 57.8906 18.875C58.5469 19.125 59.2708 19.25 60.0625 19.25H65.5312C66.3229 19.25 67.0417 19.125 67.6875 18.875C68.3438 18.6146 68.9062 18.2552 69.375 17.7969C69.8438 17.3281 70.2031 16.7708 70.4531 16.125C70.7135 15.4688 70.8438 14.7396 70.8438 13.9375V9.65625Z" fill="white"/>
<path d="M19.8906 13.8438V15.8438H21.8906V13.8438H19.8906ZM7.04688 13.8438H5.04688V15.8438H7.04688V13.8438ZM7.04688 9.75V7.75H5.04688V9.75H7.04688ZM19.8906 9.75H21.8906V7.75H19.8906V9.75ZM21.7031 4.65625V6.65625H23.7031V4.65625H21.7031ZM5.42188 4.65625V2.65625H3.42188V4.65625H5.42188ZM5.42188 23V25H7.42188V23H5.42188ZM1.35938 23H-0.640625V25H1.35938V23ZM1.9375 1.1875L0.523286 -0.226714L0.503088 -0.206515L0.483474 -0.185747L1.9375 1.1875ZM21.7031 0.59375H23.7031V-1.40625H21.7031V0.59375ZM19.8906 11.8438H7.04688V15.8438H19.8906V11.8438ZM9.04688 13.8438V9.75H5.04688V13.8438H9.04688ZM7.04688 11.75H19.8906V7.75H7.04688V11.75ZM17.8906 9.75V13.8438H21.8906V9.75H17.8906ZM21.7031 2.65625H5.42188V6.65625H21.7031V2.65625ZM3.42188 4.65625V23H7.42188V4.65625H3.42188ZM5.42188 21H1.35938V25H5.42188V21ZM3.35938 23V2.64062H-0.640625V23H3.35938ZM3.35938 2.64062C3.35938 2.62415 3.36083 2.6165 3.36106 2.6153C3.36127 2.61428 3.36129 2.61415 3.36178 2.61298L-0.330529 1.07452C-0.540164 1.57764 -0.640625 2.10568 -0.640625 2.64062H3.35938ZM3.36178 2.61298C3.37758 2.57505 3.38885 2.56358 3.39153 2.56075L0.483474 -0.185747C0.131983 0.18642 -0.138 0.612449 -0.330529 1.07452L3.36178 2.61298ZM3.35171 2.60171C3.35268 2.60075 3.35296 2.60055 3.35262 2.60083C3.35227 2.60112 3.35186 2.60142 3.35159 2.6016C3.35132 2.60178 3.35178 2.60145 3.35329 2.60064C3.3548 2.59983 3.35791 2.59827 3.36298 2.59615L1.82452 -1.09615C1.33866 -0.893711 0.899508 -0.602935 0.523286 -0.226714L3.35171 2.60171ZM3.36298 2.59615C3.35954 2.59759 3.35838 2.59753 3.36207 2.59683C3.3661 2.59605 3.37993 2.59375 3.40625 2.59375V-1.40625C2.87105 -1.40625 2.33651 -1.30948 1.82452 -1.09615L3.36298 2.59615ZM3.40625 2.59375H21.7031V-1.40625H3.40625V2.59375ZM19.7031 0.59375V4.65625H23.7031V0.59375H19.7031ZM46.6562 23V25H48.6562V23H46.6562ZM42.5938 23H40.5938V25H42.5938V23ZM42.5938 17.5H44.5938V15.5H42.5938V17.5ZM28.3125 17.5V15.5H26.3125V17.5H28.3125ZM28.3125 23V25H30.3125V23H28.3125ZM24.25 23H22.25V25H24.25V23ZM30.9844 1.42188L30.2343 -0.432136L30.9844 1.42188ZM28.3125 13.4375H26.3125V15.4375H28.3125V13.4375ZM42.5938 13.4375V15.4375H44.5938V13.4375H42.5938ZM42.5938 4.65625H44.5938V2.65625H42.5938V4.65625ZM34.6562 4.71875L34.8137 6.71255L34.837 6.7107L34.8603 6.70831L34.6562 4.71875ZM33.2656 4.98438L32.7362 3.0557L32.7264 3.05845L33.2656 4.98438ZM30 6.90625L28.5293 5.55089L30 6.90625ZM28.7812 8.90625L26.9259 8.1593L26.9209 8.17192L28.7812 8.90625ZM46.6562 21H42.5938V25H46.6562V21ZM44.5938 23V17.5H40.5938V23H44.5938ZM42.5938 15.5H28.3125V19.5H42.5938V15.5ZM26.3125 17.5V23H30.3125V17.5H26.3125ZM28.3125 21H24.25V25H28.3125V21ZM26.25 23V11.7969H22.25V23H26.25ZM26.25 11.7969C26.25 10.3949 26.4902 9.14998 26.9448 8.03852L23.2427 6.52398C22.5723 8.16252 22.25 9.92803 22.25 11.7969H26.25ZM26.9448 8.03852C27.4112 6.89842 28.0462 5.94578 28.8443 5.15597L26.0307 2.31278C24.8288 3.50214 23.9013 4.91408 23.2427 6.52398L26.9448 8.03852ZM28.8443 5.15597C29.6475 4.36114 30.6037 3.73339 31.7345 3.27589L30.2343 -0.432136C28.6359 0.214531 27.2275 1.12844 26.0307 2.31278L28.8443 5.15597ZM31.7345 3.27589C32.8386 2.82917 34.0707 2.59375 35.4531 2.59375V-1.40625C33.6064 -1.40625 31.8593 -1.08959 30.2343 -0.432136L31.7345 3.27589ZM35.4531 2.59375H44.6094V-1.40625H35.4531V2.59375ZM44.6094 2.59375C44.6258 2.59375 44.6335 2.5952 44.6347 2.59544C44.6357 2.59564 44.6358 2.59567 44.637 2.59615L46.1755 -1.09615C45.6724 -1.30579 45.1443 -1.40625 44.6094 -1.40625V2.59375ZM44.637 2.59615C44.6421 2.59827 44.6452 2.59983 44.6467 2.60064C44.6482 2.60145 44.6487 2.60178 44.6484 2.6016C44.6481 2.60142 44.6477 2.60112 44.6474 2.60083C44.647 2.60055 44.6473 2.60075 44.6483 2.60171L47.4767 -0.226714C47.1005 -0.602935 46.6613 -0.893711 46.1755 -1.09615L44.637 2.59615ZM44.6483 2.60171C44.6493 2.60268 44.6494 2.60296 44.6492 2.60262C44.6489 2.60227 44.6486 2.60186 44.6484 2.60159C44.6482 2.60132 44.6486 2.60178 44.6494 2.60329C44.6502 2.60481 44.6517 2.60791 44.6538 2.61298L48.3462 1.07452C48.1437 0.588656 47.8529 0.149508 47.4767 -0.226714L44.6483 2.60171ZM44.6538 2.61298C44.6543 2.61415 44.6544 2.61428 44.6546 2.6153C44.6548 2.6165 44.6562 2.62415 44.6562 2.64062H48.6562C48.6562 2.10568 48.5558 1.57764 48.3462 1.07452L44.6538 2.61298ZM44.6562 2.64062V23H48.6562V2.64062H44.6562ZM28.3125 15.4375H42.5938V11.4375H28.3125V15.4375ZM44.5938 13.4375V4.65625H40.5938V13.4375H44.5938ZM42.5938 2.65625H35.4531V6.65625H42.5938V2.65625ZM35.4531 2.65625C35.2067 2.65625 34.8349 2.68993 34.4522 2.72919L34.8603 6.70831C35.0549 6.68835 35.2056 6.67445 35.3165 6.66575C35.4418 6.65593 35.4737 6.65625 35.4531 6.65625V2.65625ZM34.4988 2.72495C33.9395 2.76912 33.3461 2.88829 32.7362 3.05572L33.7951 6.91303C34.2476 6.7888 34.5814 6.73088 34.8137 6.71255L34.4988 2.72495ZM32.7264 3.05845C32.0495 3.24798 31.3695 3.5282 30.6897 3.88026L32.5291 7.43224C33.0159 7.18013 33.4401 7.01244 33.8049 6.9103L32.7264 3.05845ZM30.6897 3.88026C29.88 4.29957 29.161 4.86546 28.5293 5.55089L31.4707 8.26161C31.8182 7.88454 32.1721 7.61709 32.5291 7.43224L30.6897 3.88026ZM28.5293 5.55089C27.847 6.29123 27.3219 7.1759 26.926 8.15932L30.6365 9.65318C30.8864 9.03244 31.1738 8.58377 31.4707 8.26161L28.5293 5.55089ZM26.9209 8.17192C26.491 9.2612 26.3125 10.4892 26.3125 11.7969H30.3125C30.3125 10.8337 30.4465 10.1346 30.6416 9.64058L26.9209 8.17192ZM26.3125 11.7969V13.4375H30.3125V11.7969H26.3125ZM74.4844 16.8906L72.5705 16.31L72.5684 16.317L72.5663 16.3239L74.4844 16.8906ZM73.3125 19.3906L71.6591 18.2654L71.6537 18.2733L71.6484 18.2812L73.3125 19.3906ZM71.4844 21.3594L70.2518 19.7844L70.2462 19.7887L70.2406 19.7932L71.4844 21.3594ZM69.1094 22.6875L68.4169 20.8112L65.0777 22.0435L67.8669 24.2548L69.1094 22.6875ZM73.8594 26.4531V28.4531H79.6016L75.1018 24.8859L73.8594 26.4531ZM67.9688 26.4531L66.7156 28.0118L67.2645 28.4531H67.9688V26.4531ZM64.0625 23.3125L65.3157 21.7538L64.7668 21.3125H64.0625V23.3125ZM56.3281 22.625L55.5709 24.4761L55.5781 24.4791L55.5853 24.482L56.3281 22.625ZM51.3906 17.7031L49.5395 18.4604L49.5425 18.4676L49.5455 18.4747L51.3906 17.7031ZM51.3906 5.90625L49.543 5.14056L49.5395 5.14898L51.3906 5.90625ZM53.3594 2.9375L54.7647 4.36061L54.7736 4.35171L53.3594 2.9375ZM69.2812 0.984375L68.518 2.83304L68.524 2.83547L69.2812 0.984375ZM72.25 2.9375L70.8358 4.35174L70.8447 4.36058L72.25 2.9375ZM74.2031 5.90625L72.3496 6.65766L72.352 6.66352L74.2031 5.90625ZM70.4531 7.48438L68.5842 8.19637L68.591 8.21441L68.5982 8.23231L70.4531 7.48438ZM69.375 5.8125L67.945 7.21074L67.9607 7.2268L67.9768 7.24251L69.375 5.8125ZM67.7031 4.73438L66.9552 6.58926L66.9731 6.59648L66.9911 6.60335L67.7031 4.73438ZM57.8906 4.73438L58.6126 6.59951L58.6205 6.59647L58.6283 6.59336L57.8906 4.73438ZM56.2188 5.8125L57.617 7.24251L57.625 7.23466L57.633 7.22671L56.2188 5.8125ZM55.125 7.48438L53.266 6.74668L53.2629 6.75452L53.2599 6.76239L55.125 7.48438ZM55.125 16.125L53.256 16.837L53.2629 16.855L53.2701 16.8729L55.125 16.125ZM56.2188 17.7969L54.8045 19.2111L54.8125 19.219L54.8205 19.2269L56.2188 17.7969ZM57.8906 18.875L57.1427 20.7299L57.1606 20.7371L57.1786 20.744L57.8906 18.875ZM67.6875 18.875L68.4095 20.7401L68.4174 20.7371L68.4252 20.734L67.6875 18.875ZM69.375 17.7969L70.7732 19.2269L70.7813 19.219L70.7892 19.2111L69.375 17.7969ZM70.4531 16.125L68.5941 15.3873L68.591 15.3951L68.588 15.403L70.4531 16.125ZM72.9062 13.9375C72.9062 14.7972 72.7905 15.5848 72.5705 16.31L76.3982 17.4712C76.7407 16.3423 76.9062 15.1611 76.9062 13.9375H72.9062ZM72.5663 16.3239C72.3511 17.0525 72.0468 17.6957 71.6591 18.2654L74.9659 20.5159C75.5991 19.5855 76.076 18.562 76.4024 17.4573L72.5663 16.3239ZM71.6484 18.2812C71.268 18.8518 70.8049 19.3514 70.2518 19.7844L72.717 22.9344C73.6013 22.2423 74.357 21.4295 74.9766 20.5L71.6484 18.2812ZM70.2406 19.7932C69.7036 20.2196 69.0991 20.5594 68.4169 20.8112L69.8018 24.5638C70.8696 24.1697 71.8485 23.6241 72.7281 22.9256L70.2406 19.7932ZM67.8669 24.2548L72.6169 28.0204L75.1018 24.8859L70.3518 21.1202L67.8669 24.2548ZM73.8594 24.4531H67.9688V28.4531H73.8594V24.4531ZM69.2219 24.8944L65.3157 21.7538L62.8093 24.8712L66.7156 28.0118L69.2219 24.8944ZM64.0625 21.3125H60.0625V25.3125H64.0625V21.3125ZM60.0625 21.3125C58.9505 21.3125 57.9603 21.1238 57.0709 20.768L55.5853 24.482C56.9876 25.0429 58.487 25.3125 60.0625 25.3125V21.3125ZM57.0854 20.7739C56.1728 20.4006 55.4097 19.8938 54.7736 19.2577L51.9452 22.0861C52.9757 23.1166 54.1918 23.9119 55.5709 24.4761L57.0854 20.7739ZM54.7736 19.2577C54.1342 18.6182 53.62 17.8503 53.2358 16.9315L49.5455 18.4747C50.1196 19.8476 50.9179 21.0588 51.9452 22.0861L54.7736 19.2577ZM53.2417 16.9459C52.8809 16.0639 52.6875 15.069 52.6875 13.9375H48.6875C48.6875 15.5352 48.9629 17.0507 49.5395 18.4604L53.2417 16.9459ZM52.6875 13.9375V9.65625H48.6875V13.9375H52.6875ZM52.6875 9.65625C52.6875 8.5373 52.8802 7.54732 53.2417 6.66352L49.5395 5.14898C48.9636 6.55685 48.6875 8.06687 48.6875 9.65625H52.6875ZM53.2383 6.67193C53.6224 5.74498 54.1339 4.98344 54.7647 4.36058L51.9541 1.51442C50.9182 2.53739 50.1172 3.75502 49.543 5.14057L53.2383 6.67193ZM54.7736 4.35171C55.4097 3.71559 56.1728 3.20882 57.0854 2.83547L55.5709 -0.866719C54.1918 -0.302571 52.9757 0.492741 51.9452 1.52329L54.7736 4.35171ZM57.0854 2.83547C57.971 2.47317 58.9561 2.28125 60.0625 2.28125V-1.71875C58.4814 -1.71875 56.9769 -1.44192 55.5709 -0.866719L57.0854 2.83547ZM60.0625 2.28125H65.5625V-1.71875H60.0625V2.28125ZM65.5625 2.28125C66.6691 2.28125 67.6465 2.47322 68.518 2.83303L70.0445 -0.864278C68.6451 -1.44197 67.1434 -1.71875 65.5625 -1.71875V2.28125ZM68.524 2.83547C69.4366 3.20882 70.1997 3.71559 70.8358 4.35171L73.6642 1.52329C72.6337 0.492741 71.4175 -0.302571 70.0385 -0.866719L68.524 2.83547ZM70.8447 4.36058C71.4721 4.98014 71.9763 5.73674 72.3496 6.65766L76.0566 5.15484C75.4924 3.76326 74.6946 2.5407 73.6553 1.51442L70.8447 4.36058ZM72.352 6.66352C72.7136 7.54732 72.9062 8.5373 72.9062 9.65625H76.9062C76.9062 8.06687 76.6302 6.55685 76.0542 5.14898L72.352 6.66352ZM72.9062 9.65625V13.9375H76.9062V9.65625H72.9062ZM72.8438 9.65625C72.8438 8.63635 72.6777 7.65325 72.308 6.73644L68.5982 8.23231C68.7494 8.60717 68.8438 9.07198 68.8438 9.65625H72.8438ZM72.3221 6.77238C71.9765 5.86514 71.4635 5.05743 70.7732 4.38249L67.9768 7.24251C68.224 7.48424 68.4298 7.79111 68.5842 8.19637L72.3221 6.77238ZM70.805 4.41426C70.1301 3.72398 69.3224 3.21102 68.4151 2.8654L66.9911 6.60335C67.3964 6.75773 67.7033 6.96352 67.945 7.21074L70.805 4.41426ZM68.4511 2.87949C67.5402 2.51223 66.5689 2.34375 65.5625 2.34375V6.34375C66.1186 6.34375 66.5743 6.43569 66.9552 6.58926L68.4511 2.87949ZM65.5625 2.34375H60.0625V6.34375H65.5625V2.34375ZM60.0625 2.34375C59.0488 2.34375 58.0708 2.51118 57.1529 2.87539L58.6283 6.59336C59.023 6.43674 59.4929 6.34375 60.0625 6.34375V2.34375ZM57.1686 2.86924C56.275 3.21514 55.4789 3.7239 54.8045 4.39829L57.633 7.22671C57.8961 6.9636 58.2145 6.7536 58.6126 6.59951L57.1686 2.86924ZM54.8205 4.38249C54.1363 5.05149 53.6217 5.85025 53.266 6.74668L56.984 8.22207C57.1491 7.806 57.3637 7.49018 57.617 7.24251L54.8205 4.38249ZM53.2599 6.76239C52.9078 7.67186 52.75 8.64574 52.75 9.65625H56.75C56.75 9.06259 56.8422 8.58856 56.9901 8.20636L53.2599 6.76239ZM52.75 9.65625V13.9375H56.75V9.65625H52.75ZM52.75 13.9375C52.75 14.9487 52.908 15.9234 53.256 16.837L56.994 15.413C56.842 15.0141 56.75 14.5305 56.75 13.9375H52.75ZM53.2701 16.8729C53.626 17.7554 54.1361 18.5426 54.8045 19.2111L57.633 16.3827C57.3639 16.1136 57.1449 15.7862 56.9799 15.3771L53.2701 16.8729ZM54.8205 19.2269C55.4876 19.8792 56.2697 20.3779 57.1427 20.7299L58.6386 17.0201C58.2199 16.8513 57.8874 16.6313 57.617 16.3669L54.8205 19.2269ZM57.1786 20.744C58.0893 21.0909 59.0583 21.25 60.0625 21.25V17.25C59.4834 17.25 59.0044 17.1591 58.6026 17.006L57.1786 20.744ZM60.0625 21.25H65.5312V17.25H60.0625V21.25ZM65.5312 21.25C66.5349 21.25 67.5029 21.0911 68.4095 20.7401L66.9655 17.0099C66.5805 17.1589 66.111 17.25 65.5312 17.25V21.25ZM68.4252 20.734C69.3087 20.3834 70.1007 19.8845 70.7732 19.2269L67.9768 16.3669C67.7118 16.626 67.3788 16.8458 66.9498 17.016L68.4252 20.734ZM70.7892 19.2111C71.4636 18.5367 71.9724 17.7406 72.3183 16.847L68.588 15.403C68.4339 15.8011 68.2239 16.1195 67.9608 16.3827L70.7892 19.2111ZM72.3121 16.8627C72.6775 15.9419 72.8438 14.9581 72.8438 13.9375H68.8438C68.8438 14.5211 68.7496 14.9956 68.5941 15.3873L72.3121 16.8627ZM72.8438 13.9375V9.65625H68.8438V13.9375H72.8438Z" fill="black"/>
</g>
<defs>
<filter id="filter0_d_2435_6609" x="0.359375" y="0.28125" width="83.5469" height="36.1719" filterUnits="userSpaceOnUse" color-interpolation-filters="sRGB">
<feFlood flood-opacity="0" result="BackgroundImageFix"/>
<feColorMatrix in="SourceAlpha" type="matrix" values="0 0 0 0 0 0 0 0 0 0 0 0 0 0 0 0 0 0 127 0" result="hardAlpha"/>
<feOffset dx="4" dy="5"/>
<feGaussianBlur stdDeviation="2.5"/>
<feComposite in2="hardAlpha" operator="out"/>
<feColorMatrix type="matrix" values="0 0 0 0 0 0 0 0 0 0 0 0 0 0 0 0 0 0 0.28 0"/>
<feBlend mode="normal" in2="BackgroundImageFix" result="effect1_dropShadow_2435_6609"/>
<feBlend mode="normal" in="SourceGraphic" in2="effect1_dropShadow_2435_6609" result="shape"/>
</filter>
</defs>
</svg>
