<svg width="172" height="36" viewBox="0 0 172 36" fill="none" xmlns="http://www.w3.org/2000/svg">
<g filter="url(#filter0_d_2435_6608)">
<path d="M20.3438 19.4062C20.3438 19.9688 20.2448 20.5781 20.0469 21.2344C19.849 21.8802 19.526 22.4844 19.0781 23.0469C18.6406 23.599 18.0625 24.0625 17.3438 24.4375C16.6354 24.8125 15.7708 25 14.75 25H7.42188C6.85938 25 6.25 24.901 5.59375 24.7031C4.94792 24.5052 4.34375 24.1875 3.78125 23.75C3.22917 23.3021 2.76562 22.724 2.39062 22.0156C2.01562 21.2969 1.82812 20.4271 1.82812 19.4062C1.82812 18.8438 1.92708 18.2344 2.125 17.5781C2.32292 16.9219 2.64062 16.3177 3.07812 15.7656C3.52604 15.2031 4.10417 14.7344 4.8125 14.3594C5.53125 13.9844 6.40104 13.7969 7.42188 13.7969H14.75V17.6719H7.42188C6.86979 17.6719 6.44271 17.8438 6.14062 18.1875C5.83854 18.5208 5.6875 18.9375 5.6875 19.4375C5.6875 19.9688 5.85938 20.3854 6.20312 20.6875C6.55729 20.9792 6.97396 21.125 7.45312 21.125H14.75C15.3021 21.125 15.7292 20.9583 16.0312 20.625C16.3333 20.2917 16.4844 19.875 16.4844 19.375V13.7031C16.4844 13.1719 16.3177 12.75 15.9844 12.4375C15.6615 12.125 15.25 11.9688 14.75 11.9688H5.82812V8.10938H14.75C15.3125 8.10938 15.9167 8.20833 16.5625 8.40625C17.2188 8.60417 17.8229 8.92708 18.375 9.375C18.9375 9.8125 19.4062 10.3906 19.7812 11.1094C20.1562 11.8177 20.3438 12.6823 20.3438 13.7031V19.4062ZM40.1719 25H29.1562C28.5938 25 27.9792 24.901 27.3125 24.7031C26.6458 24.5052 26.026 24.1823 25.4531 23.7344C24.8906 23.276 24.4167 22.6875 24.0312 21.9688C23.6562 21.2396 23.4688 20.349 23.4688 19.2969V13.7969C23.4688 13.4115 23.5104 13.0052 23.5938 12.5781C23.6875 12.151 23.8281 11.7292 24.0156 11.3125C24.2031 10.8854 24.4427 10.4792 24.7344 10.0938C25.0365 9.70833 25.3958 9.36979 25.8125 9.07812C26.2396 8.78646 26.7292 8.55208 27.2812 8.375C27.8333 8.19792 28.4583 8.10938 29.1562 8.10938H40.1719V12.1719H29.1562C28.625 12.1719 28.2188 12.3073 27.9375 12.5781C27.6667 12.849 27.5312 13.2656 27.5312 13.8281V19.2969C27.5312 19.8281 27.6719 20.2344 27.9531 20.5156C28.2344 20.7969 28.6458 20.9375 29.1875 20.9375H40.1719V25ZM58.8906 12.1719H51.7969V25H47.6875V12.1719H42.4062V8.10938H47.6875V2.59375H51.7969V8.10938H58.8906V12.1719ZM65.6875 4.64062H61.625V0.96875H65.6875V4.64062ZM65.6875 25H61.625V8.10938H65.6875V25ZM89.75 8.10938C89.2917 9.53646 88.7552 10.9427 88.1406 12.3281C87.526 13.7135 86.8177 15.0365 86.0156 16.2969C85.224 17.5469 84.3333 18.7083 83.3438 19.7812C82.3646 20.8438 81.276 21.7656 80.0781 22.5469C78.8906 23.3177 77.5938 23.9271 76.1875 24.375C74.7917 24.8125 73.276 25.0312 71.6406 25.0312C71.3594 25.0312 71.0938 24.9792 70.8438 24.875C70.5938 24.7708 70.375 24.6302 70.1875 24.4531C70 24.2656 69.8542 24.0521 69.75 23.8125C69.6458 23.5625 69.5938 23.2969 69.5938 23.0156V8.10938H73.6562V20.8125C74.6458 20.8125 75.5938 20.599 76.5 20.1719C77.4167 19.7448 78.2812 19.1823 79.0938 18.4844C79.9062 17.776 80.6562 16.974 81.3438 16.0781C82.0417 15.1823 82.6615 14.2656 83.2031 13.3281C83.7448 12.3802 84.2031 11.4531 84.5781 10.5469C84.9635 9.64062 85.25 8.82812 85.4375 8.10938H89.75ZM95.3438 4.64062H91.2812V0.96875H95.3438V4.64062ZM95.3438 25H91.2812V8.10938H95.3438V25ZM114.609 12.1719H107.516V25H103.406V12.1719H98.125V8.10938H103.406V2.59375H107.516V8.10938H114.609V12.1719ZM121.406 4.64062H117.344V0.96875H121.406V4.64062ZM121.406 25H117.344V8.10938H121.406V25ZM143.484 13.7031C143.484 14.2656 143.385 14.875 143.188 15.5312C142.99 16.1771 142.667 16.7812 142.219 17.3438C141.781 17.8958 141.203 18.3594 140.484 18.7344C139.776 19.1094 138.911 19.2969 137.891 19.2969H130.562V15.4375H137.891C138.443 15.4375 138.87 15.2708 139.172 14.9375C139.474 14.5938 139.625 14.1719 139.625 13.6719C139.625 13.1406 139.453 12.724 139.109 12.4219C138.776 12.1198 138.37 11.9688 137.891 11.9688H130.562C130.01 11.9688 129.583 12.1406 129.281 12.4844C128.979 12.8177 128.828 13.2344 128.828 13.7344V19.4062C128.828 19.9479 128.995 20.3698 129.328 20.6719C129.672 20.974 130.094 21.125 130.594 21.125H137.891V25H130.562C130 25 129.391 24.901 128.734 24.7031C128.089 24.5052 127.484 24.1875 126.922 23.75C126.37 23.3021 125.906 22.724 125.531 22.0156C125.156 21.2969 124.969 20.4271 124.969 19.4062V13.7031C124.969 13.1406 125.068 12.5365 125.266 11.8906C125.464 11.2344 125.781 10.6302 126.219 10.0781C126.667 9.51562 127.245 9.04688 127.953 8.67188C128.672 8.29688 129.542 8.10938 130.562 8.10938H137.891C138.453 8.10938 139.057 8.20833 139.703 8.40625C140.359 8.60417 140.964 8.92708 141.516 9.375C142.078 9.8125 142.547 10.3906 142.922 11.1094C143.297 11.8177 143.484 12.6823 143.484 13.7031ZM162.547 19.2969C162.547 19.9948 162.458 20.625 162.281 21.1875C162.104 21.7396 161.87 22.2292 161.578 22.6562C161.286 23.0729 160.948 23.4323 160.562 23.7344C160.177 24.026 159.771 24.2656 159.344 24.4531C158.927 24.6406 158.5 24.7812 158.062 24.875C157.635 24.9583 157.229 25 156.844 25H145.844V20.9375H156.812C157.365 20.9375 157.781 20.7969 158.062 20.5156C158.344 20.2344 158.484 19.8281 158.484 19.2969C158.432 18.2135 157.885 17.6719 156.844 17.6719H150.547C149.651 17.6719 148.891 17.5156 148.266 17.2031C147.641 16.8906 147.13 16.5 146.734 16.0312C146.349 15.5625 146.068 15.0573 145.891 14.5156C145.724 13.974 145.641 13.4688 145.641 13C145.641 12.0938 145.802 11.3333 146.125 10.7188C146.448 10.0938 146.854 9.58854 147.344 9.20312C147.833 8.81771 148.365 8.54167 148.938 8.375C149.51 8.19792 150.047 8.10938 150.547 8.10938H160.531V12.1719H150.578C150.37 12.1719 150.203 12.1979 150.078 12.25C149.964 12.2917 149.875 12.3542 149.812 12.4375C149.76 12.5104 149.729 12.5938 149.719 12.6875C149.708 12.7708 149.703 12.8542 149.703 12.9375C149.714 13.1042 149.745 13.2344 149.797 13.3281C149.849 13.4219 149.911 13.4896 149.984 13.5312C150.068 13.5729 150.156 13.599 150.25 13.6094C150.354 13.6094 150.453 13.6094 150.547 13.6094H156.844C157.885 13.6094 158.771 13.7969 159.5 14.1719C160.229 14.5469 160.818 15.0208 161.266 15.5938C161.714 16.1562 162.036 16.7708 162.234 17.4375C162.443 18.1042 162.547 18.724 162.547 19.2969Z" fill="white"/>
<path d="M20.0469 21.2344L21.9591 21.8204L21.9617 21.8119L20.0469 21.2344ZM19.0781 23.0469L17.5136 21.801L17.5106 21.8047L19.0781 23.0469ZM17.3438 24.4375L16.4186 22.6643L16.408 22.6699L17.3438 24.4375ZM5.59375 24.7031L5.00774 26.6154L5.01627 26.6179L5.59375 24.7031ZM3.78125 23.75L2.52117 25.3031L2.53714 25.3161L2.55337 25.3287L3.78125 23.75ZM2.39062 22.0156L0.617423 22.9408L0.623049 22.9514L2.39062 22.0156ZM2.125 17.5781L0.210186 17.0006L2.125 17.5781ZM3.07812 15.7656L1.51356 14.5198L1.51063 14.5235L3.07812 15.7656ZM4.8125 14.3594L3.88735 12.5862L3.87672 12.5918L4.8125 14.3594ZM14.75 13.7969H16.75V11.7969H14.75V13.7969ZM14.75 17.6719V19.6719H16.75V17.6719H14.75ZM6.14062 18.1875L7.6226 19.5305L7.63286 19.5192L7.64295 19.5077L6.14062 18.1875ZM6.20312 20.6875L4.8829 22.1898L4.90697 22.211L4.93171 22.2314L6.20312 20.6875ZM15.9844 12.4375L14.5935 13.8747L14.6049 13.8857L14.6165 13.8966L15.9844 12.4375ZM5.82812 11.9688H3.82812V13.9688H5.82812V11.9688ZM5.82812 8.10938V6.10938H3.82812V8.10938H5.82812ZM16.5625 8.40625L15.9765 10.3185L15.985 10.3211L16.5625 8.40625ZM18.375 9.375L17.1149 10.9281L17.1309 10.9411L17.1471 10.9537L18.375 9.375ZM19.7812 11.1094L18.008 12.0345L18.0137 12.0452L19.7812 11.1094ZM18.3438 19.4062C18.3438 19.7359 18.2854 20.1486 18.1321 20.6569L21.9617 21.8119C22.2042 21.0077 22.3438 20.2016 22.3438 19.4062H18.3438ZM18.1347 20.6484C18.0149 21.0393 17.8154 21.4219 17.5136 21.801L20.6427 24.2927C21.2367 23.5468 21.6831 22.7212 21.9591 21.8204L18.1347 20.6484ZM17.5106 21.8047C17.272 22.1058 16.9257 22.3998 16.4186 22.6643L18.2689 26.2107C19.1993 25.7252 20.0092 25.0921 20.6456 24.289L17.5106 21.8047ZM16.408 22.6699C16.0561 22.8562 15.5317 23 14.75 23V27C16.01 27 17.2147 26.7688 18.2795 26.2051L16.408 22.6699ZM14.75 23H7.42188V27H14.75V23ZM7.42188 23C7.09224 23 6.67954 22.9416 6.17123 22.7883L5.01627 26.6179C5.82046 26.8605 6.62651 27 7.42188 27V23ZM6.17975 22.7909C5.77895 22.6681 5.39039 22.4678 5.00913 22.1713L2.55337 25.3287C3.29711 25.9072 4.11688 26.3423 5.00775 26.6153L6.17975 22.7909ZM5.04133 22.1969C4.72325 21.9388 4.4233 21.5806 4.1582 21.0798L0.623049 22.9514C1.10795 23.8673 1.73509 24.6654 2.52117 25.3031L5.04133 22.1969ZM4.16379 21.0905C3.97147 20.7219 3.82812 20.1866 3.82812 19.4062H-0.171875C-0.171875 20.6676 0.0597765 21.8719 0.617455 22.9408L4.16379 21.0905ZM3.82812 19.4062C3.82812 19.0766 3.88652 18.6639 4.03981 18.1556L0.210186 17.0006C-0.0323489 17.8048 -0.171875 18.6109 -0.171875 19.4062H3.82812ZM4.03981 18.1556C4.16288 17.7476 4.36034 17.3678 4.64562 17.0078L1.51063 14.5235C0.920906 15.2676 0.482958 16.0962 0.210186 17.0006L4.03981 18.1556ZM4.64269 17.0115C4.90047 16.6877 5.25524 16.388 5.74828 16.127L3.87672 12.5918C2.9531 13.0808 2.15161 13.7185 1.51356 14.5198L4.64269 17.0115ZM5.73763 16.1325C6.10625 15.9402 6.64155 15.7969 7.42188 15.7969V11.7969C6.16053 11.7969 4.95625 12.0285 3.88737 12.5862L5.73763 16.1325ZM7.42188 15.7969H14.75V11.7969H7.42188V15.7969ZM12.75 13.7969V17.6719H16.75V13.7969H12.75ZM14.75 15.6719H7.42188V19.6719H14.75V15.6719ZM7.42188 15.6719C6.42414 15.6719 5.39799 16.0028 4.6383 16.8673L7.64295 19.5077C7.61781 19.5363 7.58506 19.5668 7.54536 19.5949C7.50571 19.6229 7.46713 19.6429 7.43418 19.6562C7.36817 19.6827 7.35188 19.6719 7.42188 19.6719V15.6719ZM4.65865 16.8445C3.98514 17.5876 3.6875 18.5008 3.6875 19.4375H7.6875C7.6875 19.3904 7.69421 19.3953 7.68105 19.4316C7.67483 19.4488 7.66588 19.4681 7.65421 19.4874C7.64259 19.5066 7.63114 19.5211 7.6226 19.5305L4.65865 16.8445ZM3.6875 19.4375C3.6875 20.4418 4.03578 21.4454 4.8829 22.1898L7.52335 19.1852C7.54752 19.2064 7.57554 19.2359 7.60262 19.2736C7.62976 19.3115 7.65057 19.3501 7.66528 19.3858C7.69528 19.4585 7.6875 19.4874 7.6875 19.4375H3.6875ZM4.93171 22.2314C5.6608 22.8318 6.53238 23.125 7.45312 23.125V19.125C7.43502 19.125 7.42683 19.1236 7.42682 19.1236C7.42671 19.1236 7.42818 19.1239 7.431 19.1246C7.43382 19.1253 7.43755 19.1264 7.44195 19.1279C7.45128 19.1312 7.46027 19.1353 7.46768 19.1395C7.47498 19.1437 7.47728 19.1459 7.47454 19.1436L4.93171 22.2314ZM7.45312 23.125H14.75V19.125H7.45312V23.125ZM14.75 23.125C15.7281 23.125 16.748 22.8124 17.5132 21.968L14.5493 19.282C14.5765 19.2519 14.6106 19.2215 14.6502 19.1943C14.6897 19.1672 14.727 19.1487 14.7573 19.1368C14.8175 19.1133 14.8268 19.125 14.75 19.125V23.125ZM17.5132 21.968C18.1867 21.2249 18.4844 20.3117 18.4844 19.375H14.4844C14.4844 19.4221 14.4777 19.4172 14.4908 19.3809C14.497 19.3637 14.506 19.3444 14.5177 19.3251C14.5293 19.3059 14.5407 19.2914 14.5493 19.282L17.5132 21.968ZM18.4844 19.375V13.7031H14.4844V19.375H18.4844ZM18.4844 13.7031C18.4844 12.7173 18.1554 11.7313 17.3523 10.9784L14.6165 13.8966C14.5958 13.8772 14.5723 13.8509 14.5499 13.818C14.5275 13.785 14.5108 13.7522 14.4993 13.7231C14.4758 13.6637 14.4844 13.6467 14.4844 13.7031H18.4844ZM17.3752 11.0003C16.6359 10.2848 15.7054 9.96875 14.75 9.96875V13.9688C14.7901 13.9688 14.7733 13.9746 14.7236 13.9557C14.6998 13.9466 14.6743 13.9341 14.6495 13.9183C14.6248 13.9025 14.6061 13.8869 14.5935 13.8747L17.3752 11.0003ZM14.75 9.96875H5.82812V13.9688H14.75V9.96875ZM7.82812 11.9688V8.10938H3.82812V11.9688H7.82812ZM5.82812 10.1094H14.75V6.10938H5.82812V10.1094ZM14.75 10.1094C15.0787 10.1094 15.4837 10.1675 15.9765 10.3185L17.1485 6.49403C16.3496 6.24921 15.5463 6.10938 14.75 6.10938V10.1094ZM15.985 10.3211C16.3831 10.4411 16.757 10.6378 17.1149 10.9281L19.6351 7.82188C18.8888 7.21639 18.0544 6.7672 17.14 6.49144L15.985 10.3211ZM17.1471 10.9537C17.4538 11.1923 17.7476 11.5352 18.0081 12.0345L21.5544 10.1842C21.0649 9.24605 20.4212 8.43274 19.6029 7.7963L17.1471 10.9537ZM18.0137 12.0452C18.1999 12.397 18.3438 12.9214 18.3438 13.7031H22.3438C22.3438 12.4431 22.1126 11.2384 21.5488 10.1736L18.0137 12.0452ZM18.3438 13.7031V19.4062H22.3438V13.7031H18.3438ZM40.1719 25V27H42.1719V25H40.1719ZM25.4531 23.7344L24.1898 25.2848L24.2054 25.2976L24.2213 25.31L25.4531 23.7344ZM24.0312 21.9688L22.2527 22.8834L22.2605 22.8987L22.2687 22.9139L24.0312 21.9688ZM23.5938 12.5781L21.6403 12.1493L21.6352 12.1722L21.6308 12.1951L23.5938 12.5781ZM24.0156 11.3125L25.8395 12.1332L25.8432 12.1249L25.8469 12.1165L24.0156 11.3125ZM24.7344 10.0938L23.1603 8.85999L23.1498 8.87334L23.1396 8.88686L24.7344 10.0938ZM25.8125 9.07812L24.6846 7.42652L24.675 7.43304L24.6656 7.43966L25.8125 9.07812ZM40.1719 8.10938H42.1719V6.10938H40.1719V8.10938ZM40.1719 12.1719V14.1719H42.1719V12.1719H40.1719ZM27.9375 12.5781L26.5502 11.1375L26.5366 11.1506L26.5233 11.1639L27.9375 12.5781ZM40.1719 20.9375H42.1719V18.9375H40.1719V20.9375ZM40.1719 23H29.1562V27H40.1719V23ZM29.1562 23C28.8257 23 28.4054 22.9413 27.8817 22.7858L26.7433 26.6204C27.553 26.8608 28.3618 27 29.1562 27V23ZM27.8817 22.7858C27.4663 22.6625 27.0695 22.4594 26.685 22.1588L24.2213 25.31C24.9825 25.9052 25.8254 26.3479 26.7433 26.6204L27.8817 22.7858ZM26.7165 22.1839C26.3826 21.9119 26.0699 21.5384 25.7938 21.0236L22.2687 22.9139C22.7635 23.8366 23.3986 24.6402 24.1898 25.2848L26.7165 22.1839ZM25.8098 21.0541C25.6157 20.6765 25.4688 20.1182 25.4688 19.2969H21.4688C21.4688 20.5797 21.6968 21.8027 22.2527 22.8834L25.8098 21.0541ZM25.4688 19.2969V13.7969H21.4688V19.2969H25.4688ZM25.4688 13.7969C25.4688 13.5552 25.4949 13.2779 25.5567 12.9611L21.6308 12.1951C21.5259 12.7325 21.4688 13.2677 21.4688 13.7969H25.4688ZM25.5472 13.0069C25.6101 12.7205 25.706 12.4297 25.8395 12.1332L22.1918 10.4918C21.9502 11.0286 21.7649 11.5816 21.6403 12.1493L25.5472 13.0069ZM25.8469 12.1165C25.9694 11.8376 26.1284 11.566 26.3292 11.3006L23.1396 8.88686C22.757 9.39236 22.4369 9.93326 22.1843 10.5085L25.8469 12.1165ZM26.3085 11.3275C26.4843 11.1032 26.698 10.8996 26.9594 10.7166L24.6656 7.43966C24.0936 7.84003 23.5887 8.31342 23.1603 8.85999L26.3085 11.3275ZM26.9404 10.7297C27.1903 10.5591 27.5018 10.4046 27.8921 10.2794L26.6704 6.47057C25.9566 6.69953 25.2889 7.01384 24.6846 7.42652L26.9404 10.7297ZM27.8921 10.2794C28.2113 10.177 28.6248 10.1094 29.1562 10.1094V6.10938C28.2918 6.10938 27.4554 6.21879 26.6704 6.47057L27.8921 10.2794ZM29.1562 10.1094H40.1719V6.10938H29.1562V10.1094ZM38.1719 8.10938V12.1719H42.1719V8.10938H38.1719ZM40.1719 10.1719H29.1562V14.1719H40.1719V10.1719ZM29.1562 10.1719C28.2979 10.1719 27.3217 10.3945 26.5502 11.1375L29.3248 14.0188C29.2807 14.0613 29.2341 14.0958 29.1893 14.1222C29.1451 14.1484 29.1086 14.1631 29.0856 14.1708C29.0425 14.1852 29.056 14.1719 29.1562 14.1719V10.1719ZM26.5233 11.1639C25.7326 11.9546 25.5312 12.9829 25.5312 13.8281H29.5312C29.5312 13.7003 29.5475 13.6732 29.5349 13.7119C29.5192 13.7603 29.4696 13.8744 29.3517 13.9923L26.5233 11.1639ZM25.5312 13.8281V19.2969H29.5312V13.8281H25.5312ZM25.5312 19.2969C25.5312 20.1747 25.77 21.1609 26.5389 21.9298L29.3673 19.1014C29.4095 19.1436 29.4451 19.1893 29.4732 19.2352C29.5011 19.2806 29.5175 19.3194 29.5267 19.3458C29.5441 19.396 29.5312 19.3903 29.5312 19.2969H25.5312ZM26.5389 21.9298C27.3146 22.7055 28.3122 22.9375 29.1875 22.9375V18.9375C29.0849 18.9375 29.073 18.9236 29.1195 18.9395C29.1442 18.948 29.1827 18.964 29.2288 18.992C29.2754 19.0204 29.323 19.057 29.3673 19.1014L26.5389 21.9298ZM29.1875 22.9375H40.1719V18.9375H29.1875V22.9375ZM38.1719 20.9375V25H42.1719V20.9375H38.1719ZM58.8906 12.1719V14.1719H60.8906V12.1719H58.8906ZM51.7969 12.1719V10.1719H49.7969V12.1719H51.7969ZM51.7969 25V27H53.7969V25H51.7969ZM47.6875 25H45.6875V27H47.6875V25ZM47.6875 12.1719H49.6875V10.1719H47.6875V12.1719ZM42.4062 12.1719H40.4062V14.1719H42.4062V12.1719ZM42.4062 8.10938V6.10938H40.4062V8.10938H42.4062ZM47.6875 8.10938V10.1094H49.6875V8.10938H47.6875ZM47.6875 2.59375V0.59375H45.6875V2.59375H47.6875ZM51.7969 2.59375H53.7969V0.59375H51.7969V2.59375ZM51.7969 8.10938H49.7969V10.1094H51.7969V8.10938ZM58.8906 8.10938H60.8906V6.10938H58.8906V8.10938ZM58.8906 10.1719H51.7969V14.1719H58.8906V10.1719ZM49.7969 12.1719V25H53.7969V12.1719H49.7969ZM51.7969 23H47.6875V27H51.7969V23ZM49.6875 25V12.1719H45.6875V25H49.6875ZM47.6875 10.1719H42.4062V14.1719H47.6875V10.1719ZM44.4062 12.1719V8.10938H40.4062V12.1719H44.4062ZM42.4062 10.1094H47.6875V6.10938H42.4062V10.1094ZM49.6875 8.10938V2.59375H45.6875V8.10938H49.6875ZM47.6875 4.59375H51.7969V0.59375H47.6875V4.59375ZM49.7969 2.59375V8.10938H53.7969V2.59375H49.7969ZM51.7969 10.1094H58.8906V6.10938H51.7969V10.1094ZM56.8906 8.10938V12.1719H60.8906V8.10938H56.8906ZM65.6875 4.64062V6.64062H67.6875V4.64062H65.6875ZM61.625 4.64062H59.625V6.64062H61.625V4.64062ZM61.625 0.96875V-1.03125H59.625V0.96875H61.625ZM65.6875 0.96875H67.6875V-1.03125H65.6875V0.96875ZM65.6875 25V27H67.6875V25H65.6875ZM61.625 25H59.625V27H61.625V25ZM61.625 8.10938V6.10938H59.625V8.10938H61.625ZM65.6875 8.10938H67.6875V6.10938H65.6875V8.10938ZM65.6875 2.64062H61.625V6.64062H65.6875V2.64062ZM63.625 4.64062V0.96875H59.625V4.64062H63.625ZM61.625 2.96875H65.6875V-1.03125H61.625V2.96875ZM63.6875 0.96875V4.64062H67.6875V0.96875H63.6875ZM65.6875 23H61.625V27H65.6875V23ZM63.625 25V8.10938H59.625V25H63.625ZM61.625 10.1094H65.6875V6.10938H61.625V10.1094ZM63.6875 8.10938V25H67.6875V8.10938H63.6875ZM89.75 8.10938L91.6542 8.72094L92.493 6.10938H89.75V8.10938ZM86.0156 16.2969L84.3283 15.2231L84.326 15.2268L86.0156 16.2969ZM83.3438 19.7812L81.8736 18.4253L81.873 18.4259L83.3438 19.7812ZM80.0781 22.5469L81.1671 24.2244L81.1707 24.2221L80.0781 22.5469ZM76.1875 24.375L76.7857 26.2835L76.7945 26.2807L76.1875 24.375ZM70.1875 24.4531L68.7733 25.8673L68.7935 25.8875L68.8143 25.9072L70.1875 24.4531ZM69.75 23.8125L67.9038 24.5817L67.9097 24.5959L67.9159 24.61L69.75 23.8125ZM69.5938 8.10938V6.10938H67.5938V8.10938H69.5938ZM73.6562 8.10938H75.6562V6.10938H73.6562V8.10938ZM73.6562 20.8125H71.6562V22.8125H73.6562V20.8125ZM76.5 20.1719L75.6553 18.359L75.6474 18.3627L76.5 20.1719ZM79.0938 18.4844L80.3969 20.0015L80.4025 19.9967L80.408 19.9919L79.0938 18.4844ZM81.3438 16.0781L79.766 14.849L79.7616 14.8547L79.7571 14.8605L81.3438 16.0781ZM83.2031 13.3281L84.9349 14.3287L84.9396 14.3204L83.2031 13.3281ZM84.5781 10.5469L82.7377 9.76415L82.7338 9.77314L82.7301 9.78217L84.5781 10.5469ZM85.4375 8.10938V6.10938H83.8923L83.5023 7.60453L85.4375 8.10938ZM87.8458 7.49781C87.4095 8.85635 86.8985 10.1961 86.3124 11.5171L89.9688 13.1391C90.6119 11.6894 91.1739 10.2166 91.6542 8.72094L87.8458 7.49781ZM86.3124 11.5171C85.7376 12.8129 85.0762 14.0479 84.3283 15.2231L87.7029 17.3706C88.5592 16.025 89.3145 14.6142 89.9688 13.1391L86.3124 11.5171ZM84.326 15.2268C83.5978 16.3765 82.7804 17.4421 81.8736 18.4253L84.8139 21.1372C85.8862 19.9746 86.8501 18.7173 87.7053 17.367L84.326 15.2268ZM81.873 18.4259C81.005 19.3678 80.0432 20.1819 78.9856 20.8717L81.1707 24.2221C82.5088 23.3494 83.7241 22.3197 84.8145 21.1366L81.873 18.4259ZM78.9892 20.8693C77.9577 21.5389 76.8239 22.0733 75.5805 22.4693L76.7945 26.2807C78.3636 25.7809 79.8236 25.0965 81.1671 24.2244L78.9892 20.8693ZM75.5893 22.4665C74.4084 22.8367 73.0968 23.0312 71.6406 23.0312V27.0312C73.4553 27.0312 75.1749 26.7883 76.7857 26.2835L75.5893 22.4665ZM71.6406 23.0312C71.6242 23.0312 71.6165 23.0298 71.6153 23.0296C71.6143 23.0294 71.6142 23.0293 71.613 23.0288L70.0745 26.7212C70.5776 26.9308 71.1057 27.0312 71.6406 27.0312V23.0312ZM71.613 23.0288C71.5751 23.013 71.5636 23.0018 71.5607 22.9991L68.8143 25.9072C69.1864 26.2586 69.6124 26.5286 70.0745 26.7212L71.613 23.0288ZM71.6017 23.0389C71.5889 23.0261 71.5867 23.021 71.5841 23.015L67.9159 24.61C68.1216 25.0831 68.4111 25.5051 68.7733 25.8673L71.6017 23.0389ZM71.5962 23.0433C71.5957 23.0421 71.5956 23.042 71.5954 23.041C71.5952 23.0397 71.5938 23.0321 71.5938 23.0156H67.5938C67.5938 23.5506 67.6942 24.0786 67.9038 24.5817L71.5962 23.0433ZM71.5938 23.0156V8.10938H67.5938V23.0156H71.5938ZM69.5938 10.1094H73.6562V6.10938H69.5938V10.1094ZM71.6562 8.10938V20.8125H75.6562V8.10938H71.6562ZM73.6562 22.8125C74.9444 22.8125 76.1831 22.5322 77.3526 21.981L75.6474 18.3627C75.0044 18.6657 74.3473 18.8125 73.6562 18.8125V22.8125ZM77.3446 21.9848C78.4365 21.4761 79.454 20.8115 80.3969 20.0015L77.7906 16.9672C77.1085 17.5531 76.3969 18.0135 75.6554 18.359L77.3446 21.9848ZM80.408 19.9919C81.3253 19.1922 82.1658 18.292 82.9304 17.2958L79.7571 14.8605C79.1467 15.6559 78.4872 16.3599 77.7795 16.9768L80.408 19.9919ZM82.9215 17.3073C83.6732 16.3424 84.345 15.3496 84.9349 14.3287L81.4714 12.3276C80.9779 13.1817 80.4102 14.0222 79.766 14.849L82.9215 17.3073ZM84.9396 14.3204C85.5186 13.3072 86.0154 12.3041 86.4262 11.3116L82.7301 9.78217C82.3908 10.6021 81.971 11.4533 81.4666 12.3358L84.9396 14.3204ZM86.4186 11.3296C86.8308 10.3603 87.154 9.4526 87.3727 8.61422L83.5023 7.60453C83.346 8.20365 83.0963 8.92094 82.7377 9.76415L86.4186 11.3296ZM85.4375 10.1094H89.75V6.10938H85.4375V10.1094ZM95.3438 4.64062V6.64062H97.3438V4.64062H95.3438ZM91.2812 4.64062H89.2812V6.64062H91.2812V4.64062ZM91.2812 0.96875V-1.03125H89.2812V0.96875H91.2812ZM95.3438 0.96875H97.3438V-1.03125H95.3438V0.96875ZM95.3438 25V27H97.3438V25H95.3438ZM91.2812 25H89.2812V27H91.2812V25ZM91.2812 8.10938V6.10938H89.2812V8.10938H91.2812ZM95.3438 8.10938H97.3438V6.10938H95.3438V8.10938ZM95.3438 2.64062H91.2812V6.64062H95.3438V2.64062ZM93.2812 4.64062V0.96875H89.2812V4.64062H93.2812ZM91.2812 2.96875H95.3438V-1.03125H91.2812V2.96875ZM93.3438 0.96875V4.64062H97.3438V0.96875H93.3438ZM95.3438 23H91.2812V27H95.3438V23ZM93.2812 25V8.10938H89.2812V25H93.2812ZM91.2812 10.1094H95.3438V6.10938H91.2812V10.1094ZM93.3438 8.10938V25H97.3438V8.10938H93.3438ZM114.609 12.1719V14.1719H116.609V12.1719H114.609ZM107.516 12.1719V10.1719H105.516V12.1719H107.516ZM107.516 25V27H109.516V25H107.516ZM103.406 25H101.406V27H103.406V25ZM103.406 12.1719H105.406V10.1719H103.406V12.1719ZM98.125 12.1719H96.125V14.1719H98.125V12.1719ZM98.125 8.10938V6.10938H96.125V8.10938H98.125ZM103.406 8.10938V10.1094H105.406V8.10938H103.406ZM103.406 2.59375V0.59375H101.406V2.59375H103.406ZM107.516 2.59375H109.516V0.59375H107.516V2.59375ZM107.516 8.10938H105.516V10.1094H107.516V8.10938ZM114.609 8.10938H116.609V6.10938H114.609V8.10938ZM114.609 10.1719H107.516V14.1719H114.609V10.1719ZM105.516 12.1719V25H109.516V12.1719H105.516ZM107.516 23H103.406V27H107.516V23ZM105.406 25V12.1719H101.406V25H105.406ZM103.406 10.1719H98.125V14.1719H103.406V10.1719ZM100.125 12.1719V8.10938H96.125V12.1719H100.125ZM98.125 10.1094H103.406V6.10938H98.125V10.1094ZM105.406 8.10938V2.59375H101.406V8.10938H105.406ZM103.406 4.59375H107.516V0.59375H103.406V4.59375ZM105.516 2.59375V8.10938H109.516V2.59375H105.516ZM107.516 10.1094H114.609V6.10938H107.516V10.1094ZM112.609 8.10938V12.1719H116.609V8.10938H112.609ZM121.406 4.64062V6.64062H123.406V4.64062H121.406ZM117.344 4.64062H115.344V6.64062H117.344V4.64062ZM117.344 0.96875V-1.03125H115.344V0.96875H117.344ZM121.406 0.96875H123.406V-1.03125H121.406V0.96875ZM121.406 25V27H123.406V25H121.406ZM117.344 25H115.344V27H117.344V25ZM117.344 8.10938V6.10938H115.344V8.10938H117.344ZM121.406 8.10938H123.406V6.10938H121.406V8.10938ZM121.406 2.64062H117.344V6.64062H121.406V2.64062ZM119.344 4.64062V0.96875H115.344V4.64062H119.344ZM117.344 2.96875H121.406V-1.03125H117.344V2.96875ZM119.406 0.96875V4.64062H123.406V0.96875H119.406ZM121.406 23H117.344V27H121.406V23ZM119.344 25V8.10938H115.344V25H119.344ZM117.344 10.1094H121.406V6.10938H117.344V10.1094ZM119.406 8.10938V25H123.406V8.10938H119.406ZM143.188 15.5312L145.1 16.1173L145.102 16.1087L143.188 15.5312ZM142.219 17.3438L140.654 16.0979L140.651 16.1016L142.219 17.3438ZM140.484 18.7344L139.559 16.9612L139.549 16.9668L140.484 18.7344ZM130.562 19.2969H128.562V21.2969H130.562V19.2969ZM130.562 15.4375V13.4375H128.562V15.4375H130.562ZM139.172 14.9375L140.654 16.2805L140.664 16.2692L140.674 16.2577L139.172 14.9375ZM139.109 12.4219L137.766 13.9038L137.778 13.9141L137.789 13.9242L139.109 12.4219ZM129.281 12.4844L130.763 13.8274L130.773 13.8161L130.784 13.8046L129.281 12.4844ZM129.328 20.6719L127.985 22.1538L127.996 22.1641L128.008 22.1742L129.328 20.6719ZM137.891 21.125H139.891V19.125H137.891V21.125ZM137.891 25V27H139.891V25H137.891ZM128.734 24.7031L128.148 26.6154L128.157 26.6179L128.734 24.7031ZM126.922 23.75L125.662 25.3031L125.678 25.3161L125.694 25.3287L126.922 23.75ZM125.531 22.0156L123.758 22.9408L123.764 22.9514L125.531 22.0156ZM125.266 11.8906L127.178 12.4766L127.18 12.4681L125.266 11.8906ZM126.219 10.0781L124.654 8.83227L124.651 8.83596L126.219 10.0781ZM127.953 8.67188L127.028 6.89867L127.017 6.9043L127.953 8.67188ZM139.703 8.40625L139.117 10.3185L139.126 10.3211L139.703 8.40625ZM141.516 9.375L140.256 10.9281L140.272 10.9411L140.288 10.9537L141.516 9.375ZM142.922 11.1094L141.149 12.0345L141.154 12.0452L142.922 11.1094ZM141.484 13.7031C141.484 14.0328 141.426 14.4455 141.273 14.9538L145.102 16.1087C145.345 15.3045 145.484 14.4985 145.484 13.7031H141.484ZM141.275 14.9452C141.155 15.3361 140.956 15.7188 140.654 16.0979L143.783 18.5896C144.377 17.8437 144.824 17.018 145.1 16.1173L141.275 14.9452ZM140.651 16.1016C140.413 16.4027 140.066 16.6966 139.559 16.9612L141.41 20.5075C142.34 20.0221 143.15 19.389 143.786 18.5859L140.651 16.1016ZM139.549 16.9668C139.197 17.1531 138.672 17.2969 137.891 17.2969V21.2969C139.151 21.2969 140.355 21.0657 141.42 20.502L139.549 16.9668ZM137.891 17.2969H130.562V21.2969H137.891V17.2969ZM132.562 19.2969V15.4375H128.562V19.2969H132.562ZM130.562 17.4375H137.891V13.4375H130.562V17.4375ZM137.891 17.4375C138.869 17.4375 139.889 17.1249 140.654 16.2805L137.69 13.5945C137.717 13.5644 137.751 13.534 137.791 13.5068C137.83 13.4797 137.868 13.4612 137.898 13.4493C137.958 13.4258 137.967 13.4375 137.891 13.4375V17.4375ZM140.674 16.2577C141.328 15.5141 141.625 14.6092 141.625 13.6719H137.625C137.625 13.6961 137.623 13.7077 137.623 13.7089C137.623 13.7097 137.624 13.7023 137.629 13.6891C137.634 13.6758 137.64 13.6609 137.649 13.6464C137.658 13.6319 137.665 13.6221 137.67 13.6173L140.674 16.2577ZM141.625 13.6719C141.625 12.6676 141.277 11.664 140.43 10.9195L137.789 13.9242C137.765 13.903 137.737 13.8735 137.71 13.8357C137.683 13.7979 137.662 13.7593 137.647 13.7236C137.617 13.6509 137.625 13.6219 137.625 13.6719H141.625ZM140.452 10.9399C139.726 10.2814 138.831 9.96875 137.891 9.96875V13.9688C137.917 13.9688 137.9 13.9724 137.858 13.9567C137.838 13.9493 137.819 13.9399 137.801 13.929C137.783 13.9182 137.772 13.9088 137.766 13.9038L140.452 10.9399ZM137.891 9.96875H130.562V13.9688H137.891V9.96875ZM130.562 9.96875C129.565 9.96875 128.539 10.2997 127.779 11.1641L130.784 13.8046C130.758 13.8332 130.726 13.8637 130.686 13.8918C130.646 13.9198 130.608 13.9398 130.575 13.953C130.509 13.9796 130.493 13.9688 130.562 13.9688V9.96875ZM127.799 11.1413C127.126 11.8845 126.828 12.7976 126.828 13.7344H130.828C130.828 13.6873 130.835 13.6922 130.822 13.7285C130.815 13.7456 130.807 13.7649 130.795 13.7842C130.783 13.8035 130.772 13.818 130.763 13.8274L127.799 11.1413ZM126.828 13.7344V19.4062H130.828V13.7344H126.828ZM126.828 19.4062C126.828 20.3873 127.149 21.396 127.985 22.1538L130.671 19.1899C130.699 19.2152 130.728 19.2476 130.755 19.2863C130.782 19.3249 130.801 19.3623 130.813 19.3941C130.838 19.4577 130.828 19.4733 130.828 19.4062H126.828ZM128.008 22.1742C128.752 22.8277 129.656 23.125 130.594 23.125V19.125C130.57 19.125 130.558 19.1232 130.557 19.123C130.556 19.1229 130.563 19.124 130.576 19.1288C130.59 19.1335 130.605 19.1404 130.619 19.149C130.634 19.1575 130.643 19.1653 130.648 19.1695L128.008 22.1742ZM130.594 23.125H137.891V19.125H130.594V23.125ZM135.891 21.125V25H139.891V21.125H135.891ZM137.891 23H130.562V27H137.891V23ZM130.562 23C130.233 23 129.82 22.9416 129.312 22.7883L128.157 26.6179C128.961 26.8605 129.767 27 130.562 27V23ZM129.32 22.7909C128.92 22.6681 128.531 22.4678 128.15 22.1713L125.694 25.3287C126.438 25.9072 127.258 26.3423 128.148 26.6153L129.32 22.7909ZM128.182 22.1969C127.864 21.9388 127.564 21.5806 127.299 21.0798L123.764 22.9514C124.249 23.8673 124.876 24.6654 125.662 25.3031L128.182 22.1969ZM127.304 21.0905C127.112 20.7219 126.969 20.1866 126.969 19.4062H122.969C122.969 20.6676 123.2 21.8719 123.758 22.9408L127.304 21.0905ZM126.969 19.4062V13.7031H122.969V19.4062H126.969ZM126.969 13.7031C126.969 13.3744 127.027 12.9694 127.178 12.4766L123.353 11.3046C123.109 12.1035 122.969 12.9068 122.969 13.7031H126.969ZM127.18 12.4681C127.303 12.0601 127.501 11.6803 127.786 11.3203L124.651 8.83596C124.062 9.58014 123.624 10.4087 123.351 11.3131L127.18 12.4681ZM127.783 11.324C128.041 11.0003 128.396 10.7005 128.889 10.4395L127.017 6.9043C126.094 7.39328 125.292 8.031 124.654 8.83227L127.783 11.324ZM128.878 10.445C129.247 10.2527 129.782 10.1094 130.562 10.1094V6.10938C129.301 6.10938 128.097 6.34103 127.028 6.89871L128.878 10.445ZM130.562 10.1094H137.891V6.10938H130.562V10.1094ZM137.891 10.1094C138.219 10.1094 138.624 10.1675 139.117 10.3185L140.289 6.49403C139.49 6.24921 138.687 6.10938 137.891 6.10938V10.1094ZM139.126 10.3211C139.524 10.4411 139.898 10.6378 140.256 10.9281L142.776 7.82188C142.029 7.21639 141.195 6.7672 140.281 6.49144L139.126 10.3211ZM140.288 10.9537C140.594 11.1923 140.888 11.5352 141.149 12.0345L144.695 10.1842C144.206 9.24605 143.562 8.43274 142.743 7.7963L140.288 10.9537ZM141.154 12.0452C141.341 12.397 141.484 12.9214 141.484 13.7031H145.484C145.484 12.4431 145.253 11.2384 144.689 10.1736L141.154 12.0452ZM162.281 21.1875L164.186 21.7984L164.189 21.7881L162.281 21.1875ZM161.578 22.6562L163.217 23.8032L163.223 23.7937L163.23 23.7842L161.578 22.6562ZM160.562 23.7344L161.769 25.3292L161.783 25.319L161.796 25.3085L160.562 23.7344ZM159.344 24.4531L158.54 22.6218L158.531 22.6255L158.523 22.6293L159.344 24.4531ZM158.062 24.875L158.446 26.838L158.464 26.8345L158.482 26.8306L158.062 24.875ZM145.844 25H143.844V27H145.844V25ZM145.844 20.9375V18.9375H143.844V20.9375H145.844ZM158.484 19.2969H160.484V19.2488L160.482 19.2008L158.484 19.2969ZM146.734 16.0312L145.19 17.3015L145.198 17.3116L145.206 17.3216L146.734 16.0312ZM145.891 14.5156L143.979 15.1038L143.984 15.1205L143.99 15.1371L145.891 14.5156ZM146.125 10.7188L147.896 11.649L147.902 11.6368L146.125 10.7188ZM147.344 9.20312L148.581 10.7746L147.344 9.20312ZM148.938 8.375L149.496 10.2954L149.512 10.2907L149.528 10.2858L148.938 8.375ZM160.531 8.10938H162.531V6.10938H160.531V8.10938ZM160.531 12.1719V14.1719H162.531V12.1719H160.531ZM150.078 12.25L150.762 14.1296L150.805 14.1139L150.847 14.0962L150.078 12.25ZM149.812 12.4375L148.212 11.2375L148.199 11.2561L148.185 11.275L149.812 12.4375ZM149.719 12.6875L151.703 12.9356L151.705 12.922L151.707 12.9084L149.719 12.6875ZM149.703 12.9375H147.703V12.9999L147.707 13.0623L149.703 12.9375ZM149.984 13.5312L148.992 15.2677L149.04 15.2953L149.09 15.3201L149.984 13.5312ZM150.25 13.6094L150.029 15.5971L150.139 15.6094H150.25V13.6094ZM161.266 15.5938L159.69 16.8256L159.696 16.8326L159.701 16.8396L161.266 15.5938ZM162.234 17.4375L160.317 18.0067L160.321 18.0204L160.325 18.034L162.234 17.4375ZM160.547 19.2969C160.547 19.8274 160.479 20.2506 160.374 20.5869L164.189 21.7881C164.437 20.9994 164.547 20.1622 164.547 19.2969H160.547ZM160.377 20.5766C160.252 20.967 160.097 21.2785 159.927 21.5283L163.23 23.7842C163.642 23.1799 163.957 22.5122 164.186 21.7984L160.377 20.5766ZM159.94 21.5093C159.757 21.7707 159.553 21.9845 159.329 22.1603L161.796 25.3085C162.343 24.8801 162.816 24.3751 163.217 23.8032L159.94 21.5093ZM159.356 22.1396C159.09 22.3404 158.819 22.4994 158.54 22.6218L160.148 26.2844C160.723 26.0319 161.264 25.7117 161.769 25.3292L159.356 22.1396ZM158.523 22.6293C158.232 22.76 157.94 22.8559 157.643 22.9194L158.482 26.8306C159.06 26.7066 159.622 26.5212 160.164 26.277L158.523 22.6293ZM157.679 22.912C157.363 22.9738 157.085 23 156.844 23V27C157.373 27 157.908 26.9428 158.446 26.838L157.679 22.912ZM156.844 23H145.844V27H156.844V23ZM147.844 25V20.9375H143.844V25H147.844ZM145.844 22.9375H156.812V18.9375H145.844V22.9375ZM156.812 22.9375C157.685 22.9375 158.694 22.7121 159.477 21.9298L156.648 19.1014C156.695 19.0548 156.744 19.0172 156.792 18.9886C156.838 18.9604 156.876 18.9448 156.9 18.937C156.942 18.9227 156.924 18.9375 156.812 18.9375V22.9375ZM159.477 21.9298C160.246 21.1609 160.484 20.1747 160.484 19.2969H156.484C156.484 19.3903 156.472 19.396 156.489 19.3458C156.498 19.3194 156.515 19.2806 156.542 19.2352C156.571 19.1893 156.606 19.1436 156.648 19.1014L159.477 21.9298ZM160.482 19.2008C160.442 18.3636 160.194 17.4017 159.443 16.6572C158.678 15.8997 157.701 15.6719 156.844 15.6719V19.6719C156.935 19.6719 156.939 19.6843 156.887 19.6664C156.825 19.6454 156.725 19.5953 156.628 19.4991C156.423 19.2962 156.475 19.1468 156.487 19.3929L160.482 19.2008ZM156.844 15.6719H150.547V19.6719H156.844V15.6719ZM150.547 15.6719C149.877 15.6719 149.44 15.5544 149.16 15.4143L147.371 18.992C148.341 19.4769 149.425 19.6719 150.547 19.6719V15.6719ZM149.16 15.4143C148.744 15.2064 148.46 14.9753 148.262 14.7409L145.206 17.3216C145.8 18.0247 146.537 18.5749 147.371 18.992L149.16 15.4143ZM148.279 14.761C148.041 14.4719 147.886 14.1843 147.792 13.8941L143.99 15.1371C144.249 15.9303 144.656 16.6531 145.19 17.3015L148.279 14.761ZM147.802 13.9275C147.682 13.5379 147.641 13.2328 147.641 13H143.641C143.641 13.7047 143.766 14.41 143.979 15.1038L147.802 13.9275ZM147.641 13C147.641 12.3222 147.762 11.9025 147.895 11.649L144.355 9.78849C143.842 10.7641 143.641 11.8653 143.641 13H147.641ZM147.902 11.6368C148.111 11.2328 148.343 10.9618 148.581 10.7746L146.107 7.63165C145.365 8.21532 144.785 8.95466 144.348 9.80071L147.902 11.6368ZM148.581 10.7746C148.878 10.5408 149.181 10.3872 149.496 10.2954L148.379 6.45461C147.549 6.69613 146.789 7.09462 146.107 7.63165L148.581 10.7746ZM149.528 10.2858C149.947 10.1565 150.282 10.1094 150.547 10.1094V6.10938C149.811 6.10938 149.074 6.23938 148.347 6.46419L149.528 10.2858ZM150.547 10.1094H160.531V6.10938H150.547V10.1094ZM158.531 8.10938V12.1719H162.531V8.10938H158.531ZM160.531 10.1719H150.578V14.1719H160.531V10.1719ZM150.578 10.1719C150.233 10.1719 149.773 10.2106 149.309 10.4038L150.847 14.0962C150.731 14.1445 150.644 14.1615 150.606 14.1674C150.566 14.1736 150.554 14.1719 150.578 14.1719V10.1719ZM149.395 10.3704C148.979 10.5217 148.546 10.7935 148.212 11.2375L151.413 13.6375C151.204 13.9149 150.949 14.0616 150.762 14.1296L149.395 10.3704ZM148.185 11.275C147.924 11.6407 147.777 12.0519 147.731 12.4666L151.707 12.9084C151.681 13.1356 151.597 13.3801 151.44 13.6L148.185 11.275ZM147.734 12.4394C147.714 12.6044 147.703 12.7706 147.703 12.9375H151.703C151.703 12.9375 151.703 12.9375 151.703 12.9375C151.703 12.9375 151.703 12.9375 151.703 12.9375C151.703 12.9375 151.703 12.9375 151.703 12.9375C151.703 12.9375 151.703 12.9375 151.703 12.9375C151.703 12.9374 151.703 12.9374 151.703 12.9373C151.703 12.937 151.703 12.9365 151.703 12.9356L147.734 12.4394ZM147.707 13.0623C147.727 13.3772 147.794 13.8407 148.049 14.2994L151.545 12.3568C151.626 12.502 151.662 12.6239 151.679 12.6934C151.696 12.7641 151.699 12.8077 151.699 12.8127L147.707 13.0623ZM148.049 14.2994C148.23 14.6253 148.525 15.001 148.992 15.2677L150.977 11.7948C151.298 11.9781 151.468 12.2184 151.545 12.3568L148.049 14.2994ZM149.09 15.3201C149.387 15.4686 149.704 15.561 150.029 15.5971L150.471 11.6216C150.609 11.6369 150.748 11.6772 150.879 11.7424L149.09 15.3201ZM150.25 15.6094C150.25 15.6094 150.25 15.6094 150.251 15.6094C150.251 15.6094 150.251 15.6094 150.251 15.6094C150.251 15.6094 150.252 15.6094 150.252 15.6094C150.252 15.6094 150.252 15.6094 150.252 15.6094C150.253 15.6094 150.253 15.6094 150.253 15.6094C150.253 15.6094 150.253 15.6094 150.254 15.6094C150.254 15.6094 150.254 15.6094 150.254 15.6094C150.254 15.6094 150.255 15.6094 150.255 15.6094C150.255 15.6094 150.255 15.6094 150.255 15.6094C150.256 15.6094 150.256 15.6094 150.256 15.6094C150.256 15.6094 150.257 15.6094 150.257 15.6094C150.257 15.6094 150.257 15.6094 150.257 15.6094C150.258 15.6094 150.258 15.6094 150.258 15.6094C150.258 15.6094 150.258 15.6094 150.259 15.6094C150.259 15.6094 150.259 15.6094 150.259 15.6094C150.259 15.6094 150.26 15.6094 150.26 15.6094C150.26 15.6094 150.26 15.6094 150.26 15.6094C150.261 15.6094 150.261 15.6094 150.261 15.6094C150.261 15.6094 150.261 15.6094 150.262 15.6094C150.262 15.6094 150.262 15.6094 150.262 15.6094C150.262 15.6094 150.263 15.6094 150.263 15.6094C150.263 15.6094 150.263 15.6094 150.263 15.6094C150.264 15.6094 150.264 15.6094 150.264 15.6094C150.264 15.6094 150.264 15.6094 150.265 15.6094C150.265 15.6094 150.265 15.6094 150.265 15.6094C150.265 15.6094 150.266 15.6094 150.266 15.6094C150.266 15.6094 150.266 15.6094 150.266 15.6094C150.267 15.6094 150.267 15.6094 150.267 15.6094C150.267 15.6094 150.267 15.6094 150.268 15.6094C150.268 15.6094 150.268 15.6094 150.268 15.6094C150.268 15.6094 150.269 15.6094 150.269 15.6094C150.269 15.6094 150.269 15.6094 150.269 15.6094C150.27 15.6094 150.27 15.6094 150.27 15.6094C150.27 15.6094 150.27 15.6094 150.271 15.6094C150.271 15.6094 150.271 15.6094 150.271 15.6094C150.271 15.6094 150.272 15.6094 150.272 15.6094C150.272 15.6094 150.272 15.6094 150.273 15.6094C150.273 15.6094 150.273 15.6094 150.273 15.6094C150.273 15.6094 150.274 15.6094 150.274 15.6094C150.274 15.6094 150.274 15.6094 150.274 15.6094C150.275 15.6094 150.275 15.6094 150.275 15.6094C150.275 15.6094 150.275 15.6094 150.276 15.6094C150.276 15.6094 150.276 15.6094 150.276 15.6094C150.276 15.6094 150.277 15.6094 150.277 15.6094C150.277 15.6094 150.277 15.6094 150.277 15.6094C150.278 15.6094 150.278 15.6094 150.278 15.6094C150.278 15.6094 150.278 15.6094 150.279 15.6094C150.279 15.6094 150.279 15.6094 150.279 15.6094C150.279 15.6094 150.28 15.6094 150.28 15.6094C150.28 15.6094 150.28 15.6094 150.28 15.6094C150.281 15.6094 150.281 15.6094 150.281 15.6094C150.281 15.6094 150.281 15.6094 150.282 15.6094C150.282 15.6094 150.282 15.6094 150.282 15.6094C150.282 15.6094 150.283 15.6094 150.283 15.6094C150.283 15.6094 150.283 15.6094 150.283 15.6094C150.284 15.6094 150.284 15.6094 150.284 15.6094C150.284 15.6094 150.284 15.6094 150.285 15.6094C150.285 15.6094 150.285 15.6094 150.285 15.6094C150.285 15.6094 150.286 15.6094 150.286 15.6094C150.286 15.6094 150.286 15.6094 150.286 15.6094C150.287 15.6094 150.287 15.6094 150.287 15.6094C150.287 15.6094 150.287 15.6094 150.288 15.6094C150.288 15.6094 150.288 15.6094 150.288 15.6094C150.288 15.6094 150.289 15.6094 150.289 15.6094C150.289 15.6094 150.289 15.6094 150.289 15.6094C150.29 15.6094 150.29 15.6094 150.29 15.6094C150.29 15.6094 150.29 15.6094 150.291 15.6094C150.291 15.6094 150.291 15.6094 150.291 15.6094C150.291 15.6094 150.292 15.6094 150.292 15.6094C150.292 15.6094 150.292 15.6094 150.292 15.6094C150.293 15.6094 150.293 15.6094 150.293 15.6094C150.293 15.6094 150.293 15.6094 150.294 15.6094C150.294 15.6094 150.294 15.6094 150.294 15.6094C150.294 15.6094 150.295 15.6094 150.295 15.6094C150.295 15.6094 150.295 15.6094 150.295 15.6094C150.296 15.6094 150.296 15.6094 150.296 15.6094C150.296 15.6094 150.296 15.6094 150.297 15.6094C150.297 15.6094 150.297 15.6094 150.297 15.6094C150.297 15.6094 150.298 15.6094 150.298 15.6094C150.298 15.6094 150.298 15.6094 150.298 15.6094C150.299 15.6094 150.299 15.6094 150.299 15.6094C150.299 15.6094 150.299 15.6094 150.3 15.6094C150.3 15.6094 150.3 15.6094 150.3 15.6094C150.3 15.6094 150.301 15.6094 150.301 15.6094C150.301 15.6094 150.301 15.6094 150.301 15.6094C150.302 15.6094 150.302 15.6094 150.302 15.6094C150.302 15.6094 150.302 15.6094 150.303 15.6094C150.303 15.6094 150.303 15.6094 150.303 15.6094C150.303 15.6094 150.304 15.6094 150.304 15.6094C150.304 15.6094 150.304 15.6094 150.304 15.6094C150.305 15.6094 150.305 15.6094 150.305 15.6094C150.305 15.6094 150.305 15.6094 150.306 15.6094C150.306 15.6094 150.306 15.6094 150.306 15.6094C150.306 15.6094 150.307 15.6094 150.307 15.6094C150.307 15.6094 150.307 15.6094 150.307 15.6094C150.308 15.6094 150.308 15.6094 150.308 15.6094C150.308 15.6094 150.308 15.6094 150.309 15.6094C150.309 15.6094 150.309 15.6094 150.309 15.6094C150.309 15.6094 150.31 15.6094 150.31 15.6094C150.31 15.6094 150.31 15.6094 150.31 15.6094C150.311 15.6094 150.311 15.6094 150.311 15.6094C150.311 15.6094 150.311 15.6094 150.312 15.6094C150.312 15.6094 150.312 15.6094 150.312 15.6094C150.312 15.6094 150.313 15.6094 150.313 15.6094C150.313 15.6094 150.313 15.6094 150.313 15.6094C150.314 15.6094 150.314 15.6094 150.314 15.6094C150.314 15.6094 150.314 15.6094 150.315 15.6094C150.315 15.6094 150.315 15.6094 150.315 15.6094C150.315 15.6094 150.316 15.6094 150.316 15.6094C150.316 15.6094 150.316 15.6094 150.316 15.6094C150.317 15.6094 150.317 15.6094 150.317 15.6094C150.317 15.6094 150.317 15.6094 150.318 15.6094C150.318 15.6094 150.318 15.6094 150.318 15.6094C150.318 15.6094 150.319 15.6094 150.319 15.6094C150.319 15.6094 150.319 15.6094 150.319 15.6094C150.32 15.6094 150.32 15.6094 150.32 15.6094C150.32 15.6094 150.32 15.6094 150.321 15.6094C150.321 15.6094 150.321 15.6094 150.321 15.6094C150.321 15.6094 150.322 15.6094 150.322 15.6094C150.322 15.6094 150.322 15.6094 150.322 15.6094C150.323 15.6094 150.323 15.6094 150.323 15.6094C150.323 15.6094 150.323 15.6094 150.324 15.6094C150.324 15.6094 150.324 15.6094 150.324 15.6094C150.324 15.6094 150.325 15.6094 150.325 15.6094C150.325 15.6094 150.325 15.6094 150.325 15.6094C150.326 15.6094 150.326 15.6094 150.326 15.6094C150.326 15.6094 150.326 15.6094 150.327 15.6094C150.327 15.6094 150.327 15.6094 150.327 15.6094C150.327 15.6094 150.328 15.6094 150.328 15.6094C150.328 15.6094 150.328 15.6094 150.328 15.6094C150.329 15.6094 150.329 15.6094 150.329 15.6094C150.329 15.6094 150.329 15.6094 150.33 15.6094C150.33 15.6094 150.33 15.6094 150.33 15.6094C150.33 15.6094 150.331 15.6094 150.331 15.6094C150.331 15.6094 150.331 15.6094 150.331 15.6094C150.332 15.6094 150.332 15.6094 150.332 15.6094C150.332 15.6094 150.332 15.6094 150.333 15.6094C150.333 15.6094 150.333 15.6094 150.333 15.6094C150.333 15.6094 150.333 15.6094 150.334 15.6094C150.334 15.6094 150.334 15.6094 150.334 15.6094C150.334 15.6094 150.335 15.6094 150.335 15.6094C150.335 15.6094 150.335 15.6094 150.335 15.6094C150.336 15.6094 150.336 15.6094 150.336 15.6094C150.336 15.6094 150.336 15.6094 150.337 15.6094C150.337 15.6094 150.337 15.6094 150.337 15.6094C150.337 15.6094 150.338 15.6094 150.338 15.6094C150.338 15.6094 150.338 15.6094 150.338 15.6094C150.339 15.6094 150.339 15.6094 150.339 15.6094C150.339 15.6094 150.339 15.6094 150.34 15.6094C150.34 15.6094 150.34 15.6094 150.34 15.6094C150.34 15.6094 150.341 15.6094 150.341 15.6094C150.341 15.6094 150.341 15.6094 150.341 15.6094C150.342 15.6094 150.342 15.6094 150.342 15.6094C150.342 15.6094 150.342 15.6094 150.343 15.6094C150.343 15.6094 150.343 15.6094 150.343 15.6094C150.343 15.6094 150.344 15.6094 150.344 15.6094C150.344 15.6094 150.344 15.6094 150.344 15.6094C150.345 15.6094 150.345 15.6094 150.345 15.6094C150.345 15.6094 150.345 15.6094 150.346 15.6094C150.346 15.6094 150.346 15.6094 150.346 15.6094C150.346 15.6094 150.347 15.6094 150.347 15.6094C150.347 15.6094 150.347 15.6094 150.347 15.6094C150.348 15.6094 150.348 15.6094 150.348 15.6094C150.348 15.6094 150.348 15.6094 150.348 15.6094C150.349 15.6094 150.349 15.6094 150.349 15.6094C150.349 15.6094 150.349 15.6094 150.35 15.6094C150.35 15.6094 150.35 15.6094 150.35 15.6094C150.35 15.6094 150.351 15.6094 150.351 15.6094C150.351 15.6094 150.351 15.6094 150.351 15.6094C150.352 15.6094 150.352 15.6094 150.352 15.6094C150.352 15.6094 150.352 15.6094 150.353 15.6094C150.353 15.6094 150.353 15.6094 150.353 15.6094C150.353 15.6094 150.354 15.6094 150.354 15.6094C150.354 15.6094 150.354 15.6094 150.354 15.6094C150.355 15.6094 150.355 15.6094 150.355 15.6094C150.355 15.6094 150.355 15.6094 150.356 15.6094C150.356 15.6094 150.356 15.6094 150.356 15.6094C150.356 15.6094 150.357 15.6094 150.357 15.6094C150.357 15.6094 150.357 15.6094 150.357 15.6094C150.358 15.6094 150.358 15.6094 150.358 15.6094C150.358 15.6094 150.358 15.6094 150.359 15.6094C150.359 15.6094 150.359 15.6094 150.359 15.6094C150.359 15.6094 150.359 15.6094 150.36 15.6094C150.36 15.6094 150.36 15.6094 150.36 15.6094C150.36 15.6094 150.361 15.6094 150.361 15.6094C150.361 15.6094 150.361 15.6094 150.361 15.6094C150.362 15.6094 150.362 15.6094 150.362 15.6094C150.362 15.6094 150.362 15.6094 150.363 15.6094C150.363 15.6094 150.363 15.6094 150.363 15.6094C150.363 15.6094 150.364 15.6094 150.364 15.6094C150.364 15.6094 150.364 15.6094 150.364 15.6094C150.365 15.6094 150.365 15.6094 150.365 15.6094C150.365 15.6094 150.365 15.6094 150.366 15.6094C150.366 15.6094 150.366 15.6094 150.366 15.6094C150.366 15.6094 150.367 15.6094 150.367 15.6094C150.367 15.6094 150.367 15.6094 150.367 15.6094C150.368 15.6094 150.368 15.6094 150.368 15.6094C150.368 15.6094 150.368 15.6094 150.369 15.6094C150.369 15.6094 150.369 15.6094 150.369 15.6094C150.369 15.6094 150.369 15.6094 150.37 15.6094C150.37 15.6094 150.37 15.6094 150.37 15.6094C150.37 15.6094 150.371 15.6094 150.371 15.6094C150.371 15.6094 150.371 15.6094 150.371 15.6094C150.372 15.6094 150.372 15.6094 150.372 15.6094C150.372 15.6094 150.372 15.6094 150.373 15.6094C150.373 15.6094 150.373 15.6094 150.373 15.6094C150.373 15.6094 150.374 15.6094 150.374 15.6094C150.374 15.6094 150.374 15.6094 150.374 15.6094C150.375 15.6094 150.375 15.6094 150.375 15.6094C150.375 15.6094 150.375 15.6094 150.376 15.6094C150.376 15.6094 150.376 15.6094 150.376 15.6094C150.376 15.6094 150.377 15.6094 150.377 15.6094C150.377 15.6094 150.377 15.6094 150.377 15.6094C150.378 15.6094 150.378 15.6094 150.378 15.6094C150.378 15.6094 150.378 15.6094 150.378 15.6094C150.379 15.6094 150.379 15.6094 150.379 15.6094C150.379 15.6094 150.379 15.6094 150.38 15.6094C150.38 15.6094 150.38 15.6094 150.38 15.6094C150.38 15.6094 150.381 15.6094 150.381 15.6094C150.381 15.6094 150.381 15.6094 150.381 15.6094C150.382 15.6094 150.382 15.6094 150.382 15.6094C150.382 15.6094 150.382 15.6094 150.383 15.6094C150.383 15.6094 150.383 15.6094 150.383 15.6094C150.383 15.6094 150.384 15.6094 150.384 15.6094C150.384 15.6094 150.384 15.6094 150.384 15.6094C150.385 15.6094 150.385 15.6094 150.385 15.6094C150.385 15.6094 150.385 15.6094 150.385 15.6094C150.386 15.6094 150.386 15.6094 150.386 15.6094C150.386 15.6094 150.386 15.6094 150.387 15.6094C150.387 15.6094 150.387 15.6094 150.387 15.6094C150.387 15.6094 150.388 15.6094 150.388 15.6094C150.388 15.6094 150.388 15.6094 150.388 15.6094C150.389 15.6094 150.389 15.6094 150.389 15.6094C150.389 15.6094 150.389 15.6094 150.39 15.6094C150.39 15.6094 150.39 15.6094 150.39 15.6094C150.39 15.6094 150.391 15.6094 150.391 15.6094C150.391 15.6094 150.391 15.6094 150.391 15.6094C150.391 15.6094 150.392 15.6094 150.392 15.6094C150.392 15.6094 150.392 15.6094 150.392 15.6094C150.393 15.6094 150.393 15.6094 150.393 15.6094C150.393 15.6094 150.393 15.6094 150.394 15.6094C150.394 15.6094 150.394 15.6094 150.394 15.6094C150.394 15.6094 150.395 15.6094 150.395 15.6094C150.395 15.6094 150.395 15.6094 150.395 15.6094C150.396 15.6094 150.396 15.6094 150.396 15.6094C150.396 15.6094 150.396 15.6094 150.397 15.6094C150.397 15.6094 150.397 15.6094 150.397 15.6094C150.397 15.6094 150.398 15.6094 150.398 15.6094C150.398 15.6094 150.398 15.6094 150.398 15.6094C150.398 15.6094 150.399 15.6094 150.399 15.6094C150.399 15.6094 150.399 15.6094 150.399 15.6094C150.4 15.6094 150.4 15.6094 150.4 15.6094C150.4 15.6094 150.4 15.6094 150.401 15.6094C150.401 15.6094 150.401 15.6094 150.401 15.6094C150.401 15.6094 150.402 15.6094 150.402 15.6094C150.402 15.6094 150.402 15.6094 150.402 15.6094C150.403 15.6094 150.403 15.6094 150.403 15.6094C150.403 15.6094 150.403 15.6094 150.404 15.6094C150.404 15.6094 150.404 15.6094 150.404 15.6094C150.404 15.6094 150.404 15.6094 150.405 15.6094C150.405 15.6094 150.405 15.6094 150.405 15.6094C150.405 15.6094 150.406 15.6094 150.406 15.6094C150.406 15.6094 150.406 15.6094 150.406 15.6094C150.407 15.6094 150.407 15.6094 150.407 15.6094C150.407 15.6094 150.407 15.6094 150.408 15.6094C150.408 15.6094 150.408 15.6094 150.408 15.6094C150.408 15.6094 150.409 15.6094 150.409 15.6094C150.409 15.6094 150.409 15.6094 150.409 15.6094C150.409 15.6094 150.41 15.6094 150.41 15.6094C150.41 15.6094 150.41 15.6094 150.41 15.6094C150.411 15.6094 150.411 15.6094 150.411 15.6094C150.411 15.6094 150.411 15.6094 150.412 15.6094C150.412 15.6094 150.412 15.6094 150.412 15.6094C150.412 15.6094 150.413 15.6094 150.413 15.6094C150.413 15.6094 150.413 15.6094 150.413 15.6094C150.414 15.6094 150.414 15.6094 150.414 15.6094C150.414 15.6094 150.414 15.6094 150.414 15.6094C150.415 15.6094 150.415 15.6094 150.415 15.6094C150.415 15.6094 150.415 15.6094 150.416 15.6094C150.416 15.6094 150.416 15.6094 150.416 15.6094C150.416 15.6094 150.417 15.6094 150.417 15.6094C150.417 15.6094 150.417 15.6094 150.417 15.6094C150.418 15.6094 150.418 15.6094 150.418 15.6094C150.418 15.6094 150.418 15.6094 150.419 15.6094C150.419 15.6094 150.419 15.6094 150.419 15.6094C150.419 15.6094 150.419 15.6094 150.42 15.6094C150.42 15.6094 150.42 15.6094 150.42 15.6094C150.42 15.6094 150.421 15.6094 150.421 15.6094C150.421 15.6094 150.421 15.6094 150.421 15.6094C150.422 15.6094 150.422 15.6094 150.422 15.6094C150.422 15.6094 150.422 15.6094 150.423 15.6094C150.423 15.6094 150.423 15.6094 150.423 15.6094C150.423 15.6094 150.424 15.6094 150.424 15.6094C150.424 15.6094 150.424 15.6094 150.424 15.6094C150.424 15.6094 150.425 15.6094 150.425 15.6094C150.425 15.6094 150.425 15.6094 150.425 15.6094C150.426 15.6094 150.426 15.6094 150.426 15.6094C150.426 15.6094 150.426 15.6094 150.427 15.6094C150.427 15.6094 150.427 15.6094 150.427 15.6094C150.427 15.6094 150.428 15.6094 150.428 15.6094C150.428 15.6094 150.428 15.6094 150.428 15.6094C150.429 15.6094 150.429 15.6094 150.429 15.6094C150.429 15.6094 150.429 15.6094 150.429 15.6094C150.43 15.6094 150.43 15.6094 150.43 15.6094C150.43 15.6094 150.43 15.6094 150.431 15.6094C150.431 15.6094 150.431 15.6094 150.431 15.6094C150.431 15.6094 150.432 15.6094 150.432 15.6094C150.432 15.6094 150.432 15.6094 150.432 15.6094C150.433 15.6094 150.433 15.6094 150.433 15.6094C150.433 15.6094 150.433 15.6094 150.433 15.6094C150.434 15.6094 150.434 15.6094 150.434 15.6094C150.434 15.6094 150.434 15.6094 150.435 15.6094C150.435 15.6094 150.435 15.6094 150.435 15.6094C150.435 15.6094 150.436 15.6094 150.436 15.6094C150.436 15.6094 150.436 15.6094 150.436 15.6094C150.437 15.6094 150.437 15.6094 150.437 15.6094C150.437 15.6094 150.437 15.6094 150.437 15.6094C150.438 15.6094 150.438 15.6094 150.438 15.6094C150.438 15.6094 150.438 15.6094 150.439 15.6094C150.439 15.6094 150.439 15.6094 150.439 15.6094C150.439 15.6094 150.44 15.6094 150.44 15.6094C150.44 15.6094 150.44 15.6094 150.44 15.6094C150.441 15.6094 150.441 15.6094 150.441 15.6094C150.441 15.6094 150.441 15.6094 150.441 15.6094C150.442 15.6094 150.442 15.6094 150.442 15.6094C150.442 15.6094 150.442 15.6094 150.443 15.6094C150.443 15.6094 150.443 15.6094 150.443 15.6094C150.443 15.6094 150.444 15.6094 150.444 15.6094C150.444 15.6094 150.444 15.6094 150.444 15.6094C150.445 15.6094 150.445 15.6094 150.445 15.6094C150.445 15.6094 150.445 15.6094 150.445 15.6094C150.446 15.6094 150.446 15.6094 150.446 15.6094C150.446 15.6094 150.446 15.6094 150.447 15.6094C150.447 15.6094 150.447 15.6094 150.447 15.6094C150.447 15.6094 150.448 15.6094 150.448 15.6094C150.448 15.6094 150.448 15.6094 150.448 15.6094C150.449 15.6094 150.449 15.6094 150.449 15.6094C150.449 15.6094 150.449 15.6094 150.449 15.6094C150.45 15.6094 150.45 15.6094 150.45 15.6094C150.45 15.6094 150.45 15.6094 150.451 15.6094C150.451 15.6094 150.451 15.6094 150.451 15.6094C150.451 15.6094 150.452 15.6094 150.452 15.6094C150.452 15.6094 150.452 15.6094 150.452 15.6094C150.453 15.6094 150.453 15.6094 150.453 15.6094C150.453 15.6094 150.453 15.6094 150.453 15.6094C150.454 15.6094 150.454 15.6094 150.454 15.6094C150.454 15.6094 150.454 15.6094 150.455 15.6094C150.455 15.6094 150.455 15.6094 150.455 15.6094C150.455 15.6094 150.456 15.6094 150.456 15.6094C150.456 15.6094 150.456 15.6094 150.456 15.6094C150.457 15.6094 150.457 15.6094 150.457 15.6094C150.457 15.6094 150.457 15.6094 150.457 15.6094C150.458 15.6094 150.458 15.6094 150.458 15.6094C150.458 15.6094 150.458 15.6094 150.459 15.6094C150.459 15.6094 150.459 15.6094 150.459 15.6094C150.459 15.6094 150.46 15.6094 150.46 15.6094C150.46 15.6094 150.46 15.6094 150.46 15.6094C150.46 15.6094 150.461 15.6094 150.461 15.6094C150.461 15.6094 150.461 15.6094 150.461 15.6094C150.462 15.6094 150.462 15.6094 150.462 15.6094C150.462 15.6094 150.462 15.6094 150.463 15.6094C150.463 15.6094 150.463 15.6094 150.463 15.6094C150.463 15.6094 150.464 15.6094 150.464 15.6094C150.464 15.6094 150.464 15.6094 150.464 15.6094C150.464 15.6094 150.465 15.6094 150.465 15.6094C150.465 15.6094 150.465 15.6094 150.465 15.6094C150.466 15.6094 150.466 15.6094 150.466 15.6094C150.466 15.6094 150.466 15.6094 150.467 15.6094C150.467 15.6094 150.467 15.6094 150.467 15.6094C150.467 15.6094 150.467 15.6094 150.468 15.6094C150.468 15.6094 150.468 15.6094 150.468 15.6094C150.468 15.6094 150.469 15.6094 150.469 15.6094C150.469 15.6094 150.469 15.6094 150.469 15.6094C150.47 15.6094 150.47 15.6094 150.47 15.6094C150.47 15.6094 150.47 15.6094 150.471 15.6094C150.471 15.6094 150.471 15.6094 150.471 15.6094C150.471 15.6094 150.471 15.6094 150.472 15.6094C150.472 15.6094 150.472 15.6094 150.472 15.6094C150.472 15.6094 150.473 15.6094 150.473 15.6094C150.473 15.6094 150.473 15.6094 150.473 15.6094C150.474 15.6094 150.474 15.6094 150.474 15.6094C150.474 15.6094 150.474 15.6094 150.474 15.6094C150.475 15.6094 150.475 15.6094 150.475 15.6094C150.475 15.6094 150.475 15.6094 150.476 15.6094C150.476 15.6094 150.476 15.6094 150.476 15.6094C150.476 15.6094 150.477 15.6094 150.477 15.6094C150.477 15.6094 150.477 15.6094 150.477 15.6094C150.477 15.6094 150.478 15.6094 150.478 15.6094C150.478 15.6094 150.478 15.6094 150.478 15.6094C150.479 15.6094 150.479 15.6094 150.479 15.6094C150.479 15.6094 150.479 15.6094 150.48 15.6094C150.48 15.6094 150.48 15.6094 150.48 15.6094C150.48 15.6094 150.48 15.6094 150.481 15.6094C150.481 15.6094 150.481 15.6094 150.481 15.6094C150.481 15.6094 150.482 15.6094 150.482 15.6094C150.482 15.6094 150.482 15.6094 150.482 15.6094C150.483 15.6094 150.483 15.6094 150.483 15.6094C150.483 15.6094 150.483 15.6094 150.483 15.6094C150.484 15.6094 150.484 15.6094 150.484 15.6094C150.484 15.6094 150.484 15.6094 150.485 15.6094C150.485 15.6094 150.485 15.6094 150.485 15.6094C150.485 15.6094 150.486 15.6094 150.486 15.6094C150.486 15.6094 150.486 15.6094 150.486 15.6094C150.486 15.6094 150.487 15.6094 150.487 15.6094C150.487 15.6094 150.487 15.6094 150.487 15.6094C150.488 15.6094 150.488 15.6094 150.488 15.6094C150.488 15.6094 150.488 15.6094 150.489 15.6094C150.489 15.6094 150.489 15.6094 150.489 15.6094C150.489 15.6094 150.489 15.6094 150.49 15.6094C150.49 15.6094 150.49 15.6094 150.49 15.6094C150.49 15.6094 150.491 15.6094 150.491 15.6094C150.491 15.6094 150.491 15.6094 150.491 15.6094C150.492 15.6094 150.492 15.6094 150.492 15.6094C150.492 15.6094 150.492 15.6094 150.492 15.6094C150.493 15.6094 150.493 15.6094 150.493 15.6094C150.493 15.6094 150.493 15.6094 150.494 15.6094C150.494 15.6094 150.494 15.6094 150.494 15.6094C150.494 15.6094 150.495 15.6094 150.495 15.6094C150.495 15.6094 150.495 15.6094 150.495 15.6094C150.495 15.6094 150.496 15.6094 150.496 15.6094C150.496 15.6094 150.496 15.6094 150.496 15.6094C150.497 15.6094 150.497 15.6094 150.497 15.6094C150.497 15.6094 150.497 15.6094 150.498 15.6094C150.498 15.6094 150.498 15.6094 150.498 15.6094C150.498 15.6094 150.498 15.6094 150.499 15.6094C150.499 15.6094 150.499 15.6094 150.499 15.6094C150.499 15.6094 150.5 15.6094 150.5 15.6094C150.5 15.6094 150.5 15.6094 150.5 15.6094C150.501 15.6094 150.501 15.6094 150.501 15.6094C150.501 15.6094 150.501 15.6094 150.501 15.6094C150.502 15.6094 150.502 15.6094 150.502 15.6094C150.502 15.6094 150.502 15.6094 150.503 15.6094C150.503 15.6094 150.503 15.6094 150.503 15.6094C150.503 15.6094 150.503 15.6094 150.504 15.6094C150.504 15.6094 150.504 15.6094 150.504 15.6094C150.504 15.6094 150.505 15.6094 150.505 15.6094C150.505 15.6094 150.505 15.6094 150.505 15.6094C150.506 15.6094 150.506 15.6094 150.506 15.6094C150.506 15.6094 150.506 15.6094 150.506 15.6094C150.507 15.6094 150.507 15.6094 150.507 15.6094C150.507 15.6094 150.507 15.6094 150.508 15.6094C150.508 15.6094 150.508 15.6094 150.508 15.6094C150.508 15.6094 150.508 15.6094 150.509 15.6094C150.509 15.6094 150.509 15.6094 150.509 15.6094C150.509 15.6094 150.51 15.6094 150.51 15.6094C150.51 15.6094 150.51 15.6094 150.51 15.6094C150.511 15.6094 150.511 15.6094 150.511 15.6094C150.511 15.6094 150.511 15.6094 150.511 15.6094C150.512 15.6094 150.512 15.6094 150.512 15.6094C150.512 15.6094 150.512 15.6094 150.513 15.6094C150.513 15.6094 150.513 15.6094 150.513 15.6094C150.513 15.6094 150.514 15.6094 150.514 15.6094C150.514 15.6094 150.514 15.6094 150.514 15.6094C150.514 15.6094 150.515 15.6094 150.515 15.6094C150.515 15.6094 150.515 15.6094 150.515 15.6094C150.516 15.6094 150.516 15.6094 150.516 15.6094C150.516 15.6094 150.516 15.6094 150.516 15.6094C150.517 15.6094 150.517 15.6094 150.517 15.6094C150.517 15.6094 150.517 15.6094 150.518 15.6094C150.518 15.6094 150.518 15.6094 150.518 15.6094C150.518 15.6094 150.519 15.6094 150.519 15.6094C150.519 15.6094 150.519 15.6094 150.519 15.6094C150.519 15.6094 150.52 15.6094 150.52 15.6094C150.52 15.6094 150.52 15.6094 150.52 15.6094C150.521 15.6094 150.521 15.6094 150.521 15.6094C150.521 15.6094 150.521 15.6094 150.521 15.6094C150.522 15.6094 150.522 15.6094 150.522 15.6094C150.522 15.6094 150.522 15.6094 150.523 15.6094C150.523 15.6094 150.523 15.6094 150.523 15.6094C150.523 15.6094 150.524 15.6094 150.524 15.6094C150.524 15.6094 150.524 15.6094 150.524 15.6094C150.524 15.6094 150.525 15.6094 150.525 15.6094C150.525 15.6094 150.525 15.6094 150.525 15.6094C150.526 15.6094 150.526 15.6094 150.526 15.6094C150.526 15.6094 150.526 15.6094 150.526 15.6094C150.527 15.6094 150.527 15.6094 150.527 15.6094C150.527 15.6094 150.527 15.6094 150.528 15.6094C150.528 15.6094 150.528 15.6094 150.528 15.6094C150.528 15.6094 150.529 15.6094 150.529 15.6094C150.529 15.6094 150.529 15.6094 150.529 15.6094C150.529 15.6094 150.53 15.6094 150.53 15.6094C150.53 15.6094 150.53 15.6094 150.53 15.6094C150.531 15.6094 150.531 15.6094 150.531 15.6094C150.531 15.6094 150.531 15.6094 150.531 15.6094C150.532 15.6094 150.532 15.6094 150.532 15.6094C150.532 15.6094 150.532 15.6094 150.533 15.6094C150.533 15.6094 150.533 15.6094 150.533 15.6094C150.533 15.6094 150.533 15.6094 150.534 15.6094C150.534 15.6094 150.534 15.6094 150.534 15.6094C150.534 15.6094 150.535 15.6094 150.535 15.6094C150.535 15.6094 150.535 15.6094 150.535 15.6094C150.535 15.6094 150.536 15.6094 150.536 15.6094C150.536 15.6094 150.536 15.6094 150.536 15.6094C150.537 15.6094 150.537 15.6094 150.537 15.6094C150.537 15.6094 150.537 15.6094 150.538 15.6094C150.538 15.6094 150.538 15.6094 150.538 15.6094C150.538 15.6094 150.538 15.6094 150.539 15.6094C150.539 15.6094 150.539 15.6094 150.539 15.6094C150.539 15.6094 150.54 15.6094 150.54 15.6094C150.54 15.6094 150.54 15.6094 150.54 15.6094C150.54 15.6094 150.541 15.6094 150.541 15.6094C150.541 15.6094 150.541 15.6094 150.541 15.6094C150.542 15.6094 150.542 15.6094 150.542 15.6094C150.542 15.6094 150.542 15.6094 150.542 15.6094C150.543 15.6094 150.543 15.6094 150.543 15.6094C150.543 15.6094 150.543 15.6094 150.544 15.6094C150.544 15.6094 150.544 15.6094 150.544 15.6094C150.544 15.6094 150.544 15.6094 150.545 15.6094C150.545 15.6094 150.545 15.6094 150.545 15.6094C150.545 15.6094 150.546 15.6094 150.546 15.6094C150.546 15.6094 150.546 15.6094 150.546 15.6094C150.547 15.6094 150.547 15.6094 150.547 15.6094V11.6094C150.547 11.6094 150.547 11.6094 150.546 11.6094C150.546 11.6094 150.546 11.6094 150.546 11.6094C150.546 11.6094 150.545 11.6094 150.545 11.6094C150.545 11.6094 150.545 11.6094 150.545 11.6094C150.544 11.6094 150.544 11.6094 150.544 11.6094C150.544 11.6094 150.544 11.6094 150.544 11.6094C150.543 11.6094 150.543 11.6094 150.543 11.6094C150.543 11.6094 150.543 11.6094 150.542 11.6094C150.542 11.6094 150.542 11.6094 150.542 11.6094C150.542 11.6094 150.542 11.6094 150.541 11.6094C150.541 11.6094 150.541 11.6094 150.541 11.6094C150.541 11.6094 150.54 11.6094 150.54 11.6094C150.54 11.6094 150.54 11.6094 150.54 11.6094C150.54 11.6094 150.539 11.6094 150.539 11.6094C150.539 11.6094 150.539 11.6094 150.539 11.6094C150.538 11.6094 150.538 11.6094 150.538 11.6094C150.538 11.6094 150.538 11.6094 150.538 11.6094C150.537 11.6094 150.537 11.6094 150.537 11.6094C150.537 11.6094 150.537 11.6094 150.536 11.6094C150.536 11.6094 150.536 11.6094 150.536 11.6094C150.536 11.6094 150.535 11.6094 150.535 11.6094C150.535 11.6094 150.535 11.6094 150.535 11.6094C150.535 11.6094 150.534 11.6094 150.534 11.6094C150.534 11.6094 150.534 11.6094 150.534 11.6094C150.533 11.6094 150.533 11.6094 150.533 11.6094C150.533 11.6094 150.533 11.6094 150.533 11.6094C150.532 11.6094 150.532 11.6094 150.532 11.6094C150.532 11.6094 150.532 11.6094 150.531 11.6094C150.531 11.6094 150.531 11.6094 150.531 11.6094C150.531 11.6094 150.531 11.6094 150.53 11.6094C150.53 11.6094 150.53 11.6094 150.53 11.6094C150.53 11.6094 150.529 11.6094 150.529 11.6094C150.529 11.6094 150.529 11.6094 150.529 11.6094C150.529 11.6094 150.528 11.6094 150.528 11.6094C150.528 11.6094 150.528 11.6094 150.528 11.6094C150.527 11.6094 150.527 11.6094 150.527 11.6094C150.527 11.6094 150.527 11.6094 150.526 11.6094C150.526 11.6094 150.526 11.6094 150.526 11.6094C150.526 11.6094 150.526 11.6094 150.525 11.6094C150.525 11.6094 150.525 11.6094 150.525 11.6094C150.525 11.6094 150.524 11.6094 150.524 11.6094C150.524 11.6094 150.524 11.6094 150.524 11.6094C150.524 11.6094 150.523 11.6094 150.523 11.6094C150.523 11.6094 150.523 11.6094 150.523 11.6094C150.522 11.6094 150.522 11.6094 150.522 11.6094C150.522 11.6094 150.522 11.6094 150.521 11.6094C150.521 11.6094 150.521 11.6094 150.521 11.6094C150.521 11.6094 150.521 11.6094 150.52 11.6094C150.52 11.6094 150.52 11.6094 150.52 11.6094C150.52 11.6094 150.519 11.6094 150.519 11.6094C150.519 11.6094 150.519 11.6094 150.519 11.6094C150.519 11.6094 150.518 11.6094 150.518 11.6094C150.518 11.6094 150.518 11.6094 150.518 11.6094C150.517 11.6094 150.517 11.6094 150.517 11.6094C150.517 11.6094 150.517 11.6094 150.516 11.6094C150.516 11.6094 150.516 11.6094 150.516 11.6094C150.516 11.6094 150.516 11.6094 150.515 11.6094C150.515 11.6094 150.515 11.6094 150.515 11.6094C150.515 11.6094 150.514 11.6094 150.514 11.6094C150.514 11.6094 150.514 11.6094 150.514 11.6094C150.514 11.6094 150.513 11.6094 150.513 11.6094C150.513 11.6094 150.513 11.6094 150.513 11.6094C150.512 11.6094 150.512 11.6094 150.512 11.6094C150.512 11.6094 150.512 11.6094 150.511 11.6094C150.511 11.6094 150.511 11.6094 150.511 11.6094C150.511 11.6094 150.511 11.6094 150.51 11.6094C150.51 11.6094 150.51 11.6094 150.51 11.6094C150.51 11.6094 150.509 11.6094 150.509 11.6094C150.509 11.6094 150.509 11.6094 150.509 11.6094C150.508 11.6094 150.508 11.6094 150.508 11.6094C150.508 11.6094 150.508 11.6094 150.508 11.6094C150.507 11.6094 150.507 11.6094 150.507 11.6094C150.507 11.6094 150.507 11.6094 150.506 11.6094C150.506 11.6094 150.506 11.6094 150.506 11.6094C150.506 11.6094 150.506 11.6094 150.505 11.6094C150.505 11.6094 150.505 11.6094 150.505 11.6094C150.505 11.6094 150.504 11.6094 150.504 11.6094C150.504 11.6094 150.504 11.6094 150.504 11.6094C150.503 11.6094 150.503 11.6094 150.503 11.6094C150.503 11.6094 150.503 11.6094 150.503 11.6094C150.502 11.6094 150.502 11.6094 150.502 11.6094C150.502 11.6094 150.502 11.6094 150.501 11.6094C150.501 11.6094 150.501 11.6094 150.501 11.6094C150.501 11.6094 150.501 11.6094 150.5 11.6094C150.5 11.6094 150.5 11.6094 150.5 11.6094C150.5 11.6094 150.499 11.6094 150.499 11.6094C150.499 11.6094 150.499 11.6094 150.499 11.6094C150.498 11.6094 150.498 11.6094 150.498 11.6094C150.498 11.6094 150.498 11.6094 150.498 11.6094C150.497 11.6094 150.497 11.6094 150.497 11.6094C150.497 11.6094 150.497 11.6094 150.496 11.6094C150.496 11.6094 150.496 11.6094 150.496 11.6094C150.496 11.6094 150.495 11.6094 150.495 11.6094C150.495 11.6094 150.495 11.6094 150.495 11.6094C150.495 11.6094 150.494 11.6094 150.494 11.6094C150.494 11.6094 150.494 11.6094 150.494 11.6094C150.493 11.6094 150.493 11.6094 150.493 11.6094C150.493 11.6094 150.493 11.6094 150.492 11.6094C150.492 11.6094 150.492 11.6094 150.492 11.6094C150.492 11.6094 150.492 11.6094 150.491 11.6094C150.491 11.6094 150.491 11.6094 150.491 11.6094C150.491 11.6094 150.49 11.6094 150.49 11.6094C150.49 11.6094 150.49 11.6094 150.49 11.6094C150.489 11.6094 150.489 11.6094 150.489 11.6094C150.489 11.6094 150.489 11.6094 150.489 11.6094C150.488 11.6094 150.488 11.6094 150.488 11.6094C150.488 11.6094 150.488 11.6094 150.487 11.6094C150.487 11.6094 150.487 11.6094 150.487 11.6094C150.487 11.6094 150.486 11.6094 150.486 11.6094C150.486 11.6094 150.486 11.6094 150.486 11.6094C150.486 11.6094 150.485 11.6094 150.485 11.6094C150.485 11.6094 150.485 11.6094 150.485 11.6094C150.484 11.6094 150.484 11.6094 150.484 11.6094C150.484 11.6094 150.484 11.6094 150.483 11.6094C150.483 11.6094 150.483 11.6094 150.483 11.6094C150.483 11.6094 150.483 11.6094 150.482 11.6094C150.482 11.6094 150.482 11.6094 150.482 11.6094C150.482 11.6094 150.481 11.6094 150.481 11.6094C150.481 11.6094 150.481 11.6094 150.481 11.6094C150.48 11.6094 150.48 11.6094 150.48 11.6094C150.48 11.6094 150.48 11.6094 150.48 11.6094C150.479 11.6094 150.479 11.6094 150.479 11.6094C150.479 11.6094 150.479 11.6094 150.478 11.6094C150.478 11.6094 150.478 11.6094 150.478 11.6094C150.478 11.6094 150.477 11.6094 150.477 11.6094C150.477 11.6094 150.477 11.6094 150.477 11.6094C150.477 11.6094 150.476 11.6094 150.476 11.6094C150.476 11.6094 150.476 11.6094 150.476 11.6094C150.475 11.6094 150.475 11.6094 150.475 11.6094C150.475 11.6094 150.475 11.6094 150.474 11.6094C150.474 11.6094 150.474 11.6094 150.474 11.6094C150.474 11.6094 150.474 11.6094 150.473 11.6094C150.473 11.6094 150.473 11.6094 150.473 11.6094C150.473 11.6094 150.472 11.6094 150.472 11.6094C150.472 11.6094 150.472 11.6094 150.472 11.6094C150.471 11.6094 150.471 11.6094 150.471 11.6094C150.471 11.6094 150.471 11.6094 150.471 11.6094C150.47 11.6094 150.47 11.6094 150.47 11.6094C150.47 11.6094 150.47 11.6094 150.469 11.6094C150.469 11.6094 150.469 11.6094 150.469 11.6094C150.469 11.6094 150.468 11.6094 150.468 11.6094C150.468 11.6094 150.468 11.6094 150.468 11.6094C150.467 11.6094 150.467 11.6094 150.467 11.6094C150.467 11.6094 150.467 11.6094 150.467 11.6094C150.466 11.6094 150.466 11.6094 150.466 11.6094C150.466 11.6094 150.466 11.6094 150.465 11.6094C150.465 11.6094 150.465 11.6094 150.465 11.6094C150.465 11.6094 150.464 11.6094 150.464 11.6094C150.464 11.6094 150.464 11.6094 150.464 11.6094C150.464 11.6094 150.463 11.6094 150.463 11.6094C150.463 11.6094 150.463 11.6094 150.463 11.6094C150.462 11.6094 150.462 11.6094 150.462 11.6094C150.462 11.6094 150.462 11.6094 150.461 11.6094C150.461 11.6094 150.461 11.6094 150.461 11.6094C150.461 11.6094 150.46 11.6094 150.46 11.6094C150.46 11.6094 150.46 11.6094 150.46 11.6094C150.46 11.6094 150.459 11.6094 150.459 11.6094C150.459 11.6094 150.459 11.6094 150.459 11.6094C150.458 11.6094 150.458 11.6094 150.458 11.6094C150.458 11.6094 150.458 11.6094 150.457 11.6094C150.457 11.6094 150.457 11.6094 150.457 11.6094C150.457 11.6094 150.457 11.6094 150.456 11.6094C150.456 11.6094 150.456 11.6094 150.456 11.6094C150.456 11.6094 150.455 11.6094 150.455 11.6094C150.455 11.6094 150.455 11.6094 150.455 11.6094C150.454 11.6094 150.454 11.6094 150.454 11.6094C150.454 11.6094 150.454 11.6094 150.453 11.6094C150.453 11.6094 150.453 11.6094 150.453 11.6094C150.453 11.6094 150.453 11.6094 150.452 11.6094C150.452 11.6094 150.452 11.6094 150.452 11.6094C150.452 11.6094 150.451 11.6094 150.451 11.6094C150.451 11.6094 150.451 11.6094 150.451 11.6094C150.45 11.6094 150.45 11.6094 150.45 11.6094C150.45 11.6094 150.45 11.6094 150.449 11.6094C150.449 11.6094 150.449 11.6094 150.449 11.6094C150.449 11.6094 150.449 11.6094 150.448 11.6094C150.448 11.6094 150.448 11.6094 150.448 11.6094C150.448 11.6094 150.447 11.6094 150.447 11.6094C150.447 11.6094 150.447 11.6094 150.447 11.6094C150.446 11.6094 150.446 11.6094 150.446 11.6094C150.446 11.6094 150.446 11.6094 150.445 11.6094C150.445 11.6094 150.445 11.6094 150.445 11.6094C150.445 11.6094 150.445 11.6094 150.444 11.6094C150.444 11.6094 150.444 11.6094 150.444 11.6094C150.444 11.6094 150.443 11.6094 150.443 11.6094C150.443 11.6094 150.443 11.6094 150.443 11.6094C150.442 11.6094 150.442 11.6094 150.442 11.6094C150.442 11.6094 150.442 11.6094 150.441 11.6094C150.441 11.6094 150.441 11.6094 150.441 11.6094C150.441 11.6094 150.441 11.6094 150.44 11.6094C150.44 11.6094 150.44 11.6094 150.44 11.6094C150.44 11.6094 150.439 11.6094 150.439 11.6094C150.439 11.6094 150.439 11.6094 150.439 11.6094C150.438 11.6094 150.438 11.6094 150.438 11.6094C150.438 11.6094 150.438 11.6094 150.437 11.6094C150.437 11.6094 150.437 11.6094 150.437 11.6094C150.437 11.6094 150.437 11.6094 150.436 11.6094C150.436 11.6094 150.436 11.6094 150.436 11.6094C150.436 11.6094 150.435 11.6094 150.435 11.6094C150.435 11.6094 150.435 11.6094 150.435 11.6094C150.434 11.6094 150.434 11.6094 150.434 11.6094C150.434 11.6094 150.434 11.6094 150.433 11.6094C150.433 11.6094 150.433 11.6094 150.433 11.6094C150.433 11.6094 150.433 11.6094 150.432 11.6094C150.432 11.6094 150.432 11.6094 150.432 11.6094C150.432 11.6094 150.431 11.6094 150.431 11.6094C150.431 11.6094 150.431 11.6094 150.431 11.6094C150.43 11.6094 150.43 11.6094 150.43 11.6094C150.43 11.6094 150.43 11.6094 150.429 11.6094C150.429 11.6094 150.429 11.6094 150.429 11.6094C150.429 11.6094 150.429 11.6094 150.428 11.6094C150.428 11.6094 150.428 11.6094 150.428 11.6094C150.428 11.6094 150.427 11.6094 150.427 11.6094C150.427 11.6094 150.427 11.6094 150.427 11.6094C150.426 11.6094 150.426 11.6094 150.426 11.6094C150.426 11.6094 150.426 11.6094 150.425 11.6094C150.425 11.6094 150.425 11.6094 150.425 11.6094C150.425 11.6094 150.424 11.6094 150.424 11.6094C150.424 11.6094 150.424 11.6094 150.424 11.6094C150.424 11.6094 150.423 11.6094 150.423 11.6094C150.423 11.6094 150.423 11.6094 150.423 11.6094C150.422 11.6094 150.422 11.6094 150.422 11.6094C150.422 11.6094 150.422 11.6094 150.421 11.6094C150.421 11.6094 150.421 11.6094 150.421 11.6094C150.421 11.6094 150.42 11.6094 150.42 11.6094C150.42 11.6094 150.42 11.6094 150.42 11.6094C150.419 11.6094 150.419 11.6094 150.419 11.6094C150.419 11.6094 150.419 11.6094 150.419 11.6094C150.418 11.6094 150.418 11.6094 150.418 11.6094C150.418 11.6094 150.418 11.6094 150.417 11.6094C150.417 11.6094 150.417 11.6094 150.417 11.6094C150.417 11.6094 150.416 11.6094 150.416 11.6094C150.416 11.6094 150.416 11.6094 150.416 11.6094C150.415 11.6094 150.415 11.6094 150.415 11.6094C150.415 11.6094 150.415 11.6094 150.414 11.6094C150.414 11.6094 150.414 11.6094 150.414 11.6094C150.414 11.6094 150.414 11.6094 150.413 11.6094C150.413 11.6094 150.413 11.6094 150.413 11.6094C150.413 11.6094 150.412 11.6094 150.412 11.6094C150.412 11.6094 150.412 11.6094 150.412 11.6094C150.411 11.6094 150.411 11.6094 150.411 11.6094C150.411 11.6094 150.411 11.6094 150.41 11.6094C150.41 11.6094 150.41 11.6094 150.41 11.6094C150.41 11.6094 150.409 11.6094 150.409 11.6094C150.409 11.6094 150.409 11.6094 150.409 11.6094C150.409 11.6094 150.408 11.6094 150.408 11.6094C150.408 11.6094 150.408 11.6094 150.408 11.6094C150.407 11.6094 150.407 11.6094 150.407 11.6094C150.407 11.6094 150.407 11.6094 150.406 11.6094C150.406 11.6094 150.406 11.6094 150.406 11.6094C150.406 11.6094 150.405 11.6094 150.405 11.6094C150.405 11.6094 150.405 11.6094 150.405 11.6094C150.404 11.6094 150.404 11.6094 150.404 11.6094C150.404 11.6094 150.404 11.6094 150.404 11.6094C150.403 11.6094 150.403 11.6094 150.403 11.6094C150.403 11.6094 150.403 11.6094 150.402 11.6094C150.402 11.6094 150.402 11.6094 150.402 11.6094C150.402 11.6094 150.401 11.6094 150.401 11.6094C150.401 11.6094 150.401 11.6094 150.401 11.6094C150.4 11.6094 150.4 11.6094 150.4 11.6094C150.4 11.6094 150.4 11.6094 150.399 11.6094C150.399 11.6094 150.399 11.6094 150.399 11.6094C150.399 11.6094 150.398 11.6094 150.398 11.6094C150.398 11.6094 150.398 11.6094 150.398 11.6094C150.398 11.6094 150.397 11.6094 150.397 11.6094C150.397 11.6094 150.397 11.6094 150.397 11.6094C150.396 11.6094 150.396 11.6094 150.396 11.6094C150.396 11.6094 150.396 11.6094 150.395 11.6094C150.395 11.6094 150.395 11.6094 150.395 11.6094C150.395 11.6094 150.394 11.6094 150.394 11.6094C150.394 11.6094 150.394 11.6094 150.394 11.6094C150.393 11.6094 150.393 11.6094 150.393 11.6094C150.393 11.6094 150.393 11.6094 150.392 11.6094C150.392 11.6094 150.392 11.6094 150.392 11.6094C150.392 11.6094 150.391 11.6094 150.391 11.6094C150.391 11.6094 150.391 11.6094 150.391 11.6094C150.391 11.6094 150.39 11.6094 150.39 11.6094C150.39 11.6094 150.39 11.6094 150.39 11.6094C150.389 11.6094 150.389 11.6094 150.389 11.6094C150.389 11.6094 150.389 11.6094 150.388 11.6094C150.388 11.6094 150.388 11.6094 150.388 11.6094C150.388 11.6094 150.387 11.6094 150.387 11.6094C150.387 11.6094 150.387 11.6094 150.387 11.6094C150.386 11.6094 150.386 11.6094 150.386 11.6094C150.386 11.6094 150.386 11.6094 150.385 11.6094C150.385 11.6094 150.385 11.6094 150.385 11.6094C150.385 11.6094 150.385 11.6094 150.384 11.6094C150.384 11.6094 150.384 11.6094 150.384 11.6094C150.384 11.6094 150.383 11.6094 150.383 11.6094C150.383 11.6094 150.383 11.6094 150.383 11.6094C150.382 11.6094 150.382 11.6094 150.382 11.6094C150.382 11.6094 150.382 11.6094 150.381 11.6094C150.381 11.6094 150.381 11.6094 150.381 11.6094C150.381 11.6094 150.38 11.6094 150.38 11.6094C150.38 11.6094 150.38 11.6094 150.38 11.6094C150.379 11.6094 150.379 11.6094 150.379 11.6094C150.379 11.6094 150.379 11.6094 150.378 11.6094C150.378 11.6094 150.378 11.6094 150.378 11.6094C150.378 11.6094 150.378 11.6094 150.377 11.6094C150.377 11.6094 150.377 11.6094 150.377 11.6094C150.377 11.6094 150.376 11.6094 150.376 11.6094C150.376 11.6094 150.376 11.6094 150.376 11.6094C150.375 11.6094 150.375 11.6094 150.375 11.6094C150.375 11.6094 150.375 11.6094 150.374 11.6094C150.374 11.6094 150.374 11.6094 150.374 11.6094C150.374 11.6094 150.373 11.6094 150.373 11.6094C150.373 11.6094 150.373 11.6094 150.373 11.6094C150.372 11.6094 150.372 11.6094 150.372 11.6094C150.372 11.6094 150.372 11.6094 150.371 11.6094C150.371 11.6094 150.371 11.6094 150.371 11.6094C150.371 11.6094 150.37 11.6094 150.37 11.6094C150.37 11.6094 150.37 11.6094 150.37 11.6094C150.369 11.6094 150.369 11.6094 150.369 11.6094C150.369 11.6094 150.369 11.6094 150.369 11.6094C150.368 11.6094 150.368 11.6094 150.368 11.6094C150.368 11.6094 150.368 11.6094 150.367 11.6094C150.367 11.6094 150.367 11.6094 150.367 11.6094C150.367 11.6094 150.366 11.6094 150.366 11.6094C150.366 11.6094 150.366 11.6094 150.366 11.6094C150.365 11.6094 150.365 11.6094 150.365 11.6094C150.365 11.6094 150.365 11.6094 150.364 11.6094C150.364 11.6094 150.364 11.6094 150.364 11.6094C150.364 11.6094 150.363 11.6094 150.363 11.6094C150.363 11.6094 150.363 11.6094 150.363 11.6094C150.362 11.6094 150.362 11.6094 150.362 11.6094C150.362 11.6094 150.362 11.6094 150.361 11.6094C150.361 11.6094 150.361 11.6094 150.361 11.6094C150.361 11.6094 150.36 11.6094 150.36 11.6094C150.36 11.6094 150.36 11.6094 150.36 11.6094C150.359 11.6094 150.359 11.6094 150.359 11.6094C150.359 11.6094 150.359 11.6094 150.359 11.6094C150.358 11.6094 150.358 11.6094 150.358 11.6094C150.358 11.6094 150.358 11.6094 150.357 11.6094C150.357 11.6094 150.357 11.6094 150.357 11.6094C150.357 11.6094 150.356 11.6094 150.356 11.6094C150.356 11.6094 150.356 11.6094 150.356 11.6094C150.355 11.6094 150.355 11.6094 150.355 11.6094C150.355 11.6094 150.355 11.6094 150.354 11.6094C150.354 11.6094 150.354 11.6094 150.354 11.6094C150.354 11.6094 150.353 11.6094 150.353 11.6094C150.353 11.6094 150.353 11.6094 150.353 11.6094C150.352 11.6094 150.352 11.6094 150.352 11.6094C150.352 11.6094 150.352 11.6094 150.351 11.6094C150.351 11.6094 150.351 11.6094 150.351 11.6094C150.351 11.6094 150.35 11.6094 150.35 11.6094C150.35 11.6094 150.35 11.6094 150.35 11.6094C150.349 11.6094 150.349 11.6094 150.349 11.6094C150.349 11.6094 150.349 11.6094 150.348 11.6094C150.348 11.6094 150.348 11.6094 150.348 11.6094C150.348 11.6094 150.348 11.6094 150.347 11.6094C150.347 11.6094 150.347 11.6094 150.347 11.6094C150.347 11.6094 150.346 11.6094 150.346 11.6094C150.346 11.6094 150.346 11.6094 150.346 11.6094C150.345 11.6094 150.345 11.6094 150.345 11.6094C150.345 11.6094 150.345 11.6094 150.344 11.6094C150.344 11.6094 150.344 11.6094 150.344 11.6094C150.344 11.6094 150.343 11.6094 150.343 11.6094C150.343 11.6094 150.343 11.6094 150.343 11.6094C150.342 11.6094 150.342 11.6094 150.342 11.6094C150.342 11.6094 150.342 11.6094 150.341 11.6094C150.341 11.6094 150.341 11.6094 150.341 11.6094C150.341 11.6094 150.34 11.6094 150.34 11.6094C150.34 11.6094 150.34 11.6094 150.34 11.6094C150.339 11.6094 150.339 11.6094 150.339 11.6094C150.339 11.6094 150.339 11.6094 150.338 11.6094C150.338 11.6094 150.338 11.6094 150.338 11.6094C150.338 11.6094 150.337 11.6094 150.337 11.6094C150.337 11.6094 150.337 11.6094 150.337 11.6094C150.336 11.6094 150.336 11.6094 150.336 11.6094C150.336 11.6094 150.336 11.6094 150.335 11.6094C150.335 11.6094 150.335 11.6094 150.335 11.6094C150.335 11.6094 150.334 11.6094 150.334 11.6094C150.334 11.6094 150.334 11.6094 150.334 11.6094C150.333 11.6094 150.333 11.6094 150.333 11.6094C150.333 11.6094 150.333 11.6094 150.333 11.6094C150.332 11.6094 150.332 11.6094 150.332 11.6094C150.332 11.6094 150.332 11.6094 150.331 11.6094C150.331 11.6094 150.331 11.6094 150.331 11.6094C150.331 11.6094 150.33 11.6094 150.33 11.6094C150.33 11.6094 150.33 11.6094 150.33 11.6094C150.329 11.6094 150.329 11.6094 150.329 11.6094C150.329 11.6094 150.329 11.6094 150.328 11.6094C150.328 11.6094 150.328 11.6094 150.328 11.6094C150.328 11.6094 150.327 11.6094 150.327 11.6094C150.327 11.6094 150.327 11.6094 150.327 11.6094C150.326 11.6094 150.326 11.6094 150.326 11.6094C150.326 11.6094 150.326 11.6094 150.325 11.6094C150.325 11.6094 150.325 11.6094 150.325 11.6094C150.325 11.6094 150.324 11.6094 150.324 11.6094C150.324 11.6094 150.324 11.6094 150.324 11.6094C150.323 11.6094 150.323 11.6094 150.323 11.6094C150.323 11.6094 150.323 11.6094 150.322 11.6094C150.322 11.6094 150.322 11.6094 150.322 11.6094C150.322 11.6094 150.321 11.6094 150.321 11.6094C150.321 11.6094 150.321 11.6094 150.321 11.6094C150.32 11.6094 150.32 11.6094 150.32 11.6094C150.32 11.6094 150.32 11.6094 150.319 11.6094C150.319 11.6094 150.319 11.6094 150.319 11.6094C150.319 11.6094 150.318 11.6094 150.318 11.6094C150.318 11.6094 150.318 11.6094 150.318 11.6094C150.317 11.6094 150.317 11.6094 150.317 11.6094C150.317 11.6094 150.317 11.6094 150.316 11.6094C150.316 11.6094 150.316 11.6094 150.316 11.6094C150.316 11.6094 150.315 11.6094 150.315 11.6094C150.315 11.6094 150.315 11.6094 150.315 11.6094C150.314 11.6094 150.314 11.6094 150.314 11.6094C150.314 11.6094 150.314 11.6094 150.313 11.6094C150.313 11.6094 150.313 11.6094 150.313 11.6094C150.313 11.6094 150.312 11.6094 150.312 11.6094C150.312 11.6094 150.312 11.6094 150.312 11.6094C150.311 11.6094 150.311 11.6094 150.311 11.6094C150.311 11.6094 150.311 11.6094 150.31 11.6094C150.31 11.6094 150.31 11.6094 150.31 11.6094C150.31 11.6094 150.309 11.6094 150.309 11.6094C150.309 11.6094 150.309 11.6094 150.309 11.6094C150.308 11.6094 150.308 11.6094 150.308 11.6094C150.308 11.6094 150.308 11.6094 150.307 11.6094C150.307 11.6094 150.307 11.6094 150.307 11.6094C150.307 11.6094 150.306 11.6094 150.306 11.6094C150.306 11.6094 150.306 11.6094 150.306 11.6094C150.305 11.6094 150.305 11.6094 150.305 11.6094C150.305 11.6094 150.305 11.6094 150.304 11.6094C150.304 11.6094 150.304 11.6094 150.304 11.6094C150.304 11.6094 150.303 11.6094 150.303 11.6094C150.303 11.6094 150.303 11.6094 150.303 11.6094C150.302 11.6094 150.302 11.6094 150.302 11.6094C150.302 11.6094 150.302 11.6094 150.301 11.6094C150.301 11.6094 150.301 11.6094 150.301 11.6094C150.301 11.6094 150.3 11.6094 150.3 11.6094C150.3 11.6094 150.3 11.6094 150.3 11.6094C150.299 11.6094 150.299 11.6094 150.299 11.6094C150.299 11.6094 150.299 11.6094 150.298 11.6094C150.298 11.6094 150.298 11.6094 150.298 11.6094C150.298 11.6094 150.297 11.6094 150.297 11.6094C150.297 11.6094 150.297 11.6094 150.297 11.6094C150.296 11.6094 150.296 11.6094 150.296 11.6094C150.296 11.6094 150.296 11.6094 150.295 11.6094C150.295 11.6094 150.295 11.6094 150.295 11.6094C150.295 11.6094 150.294 11.6094 150.294 11.6094C150.294 11.6094 150.294 11.6094 150.294 11.6094C150.293 11.6094 150.293 11.6094 150.293 11.6094C150.293 11.6094 150.293 11.6094 150.292 11.6094C150.292 11.6094 150.292 11.6094 150.292 11.6094C150.292 11.6094 150.291 11.6094 150.291 11.6094C150.291 11.6094 150.291 11.6094 150.291 11.6094C150.29 11.6094 150.29 11.6094 150.29 11.6094C150.29 11.6094 150.29 11.6094 150.289 11.6094C150.289 11.6094 150.289 11.6094 150.289 11.6094C150.289 11.6094 150.288 11.6094 150.288 11.6094C150.288 11.6094 150.288 11.6094 150.288 11.6094C150.287 11.6094 150.287 11.6094 150.287 11.6094C150.287 11.6094 150.287 11.6094 150.286 11.6094C150.286 11.6094 150.286 11.6094 150.286 11.6094C150.286 11.6094 150.285 11.6094 150.285 11.6094C150.285 11.6094 150.285 11.6094 150.285 11.6094C150.284 11.6094 150.284 11.6094 150.284 11.6094C150.284 11.6094 150.284 11.6094 150.283 11.6094C150.283 11.6094 150.283 11.6094 150.283 11.6094C150.283 11.6094 150.282 11.6094 150.282 11.6094C150.282 11.6094 150.282 11.6094 150.282 11.6094C150.281 11.6094 150.281 11.6094 150.281 11.6094C150.281 11.6094 150.281 11.6094 150.28 11.6094C150.28 11.6094 150.28 11.6094 150.28 11.6094C150.28 11.6094 150.279 11.6094 150.279 11.6094C150.279 11.6094 150.279 11.6094 150.279 11.6094C150.278 11.6094 150.278 11.6094 150.278 11.6094C150.278 11.6094 150.278 11.6094 150.277 11.6094C150.277 11.6094 150.277 11.6094 150.277 11.6094C150.277 11.6094 150.276 11.6094 150.276 11.6094C150.276 11.6094 150.276 11.6094 150.276 11.6094C150.275 11.6094 150.275 11.6094 150.275 11.6094C150.275 11.6094 150.275 11.6094 150.274 11.6094C150.274 11.6094 150.274 11.6094 150.274 11.6094C150.274 11.6094 150.273 11.6094 150.273 11.6094C150.273 11.6094 150.273 11.6094 150.273 11.6094C150.272 11.6094 150.272 11.6094 150.272 11.6094C150.272 11.6094 150.271 11.6094 150.271 11.6094C150.271 11.6094 150.271 11.6094 150.271 11.6094C150.27 11.6094 150.27 11.6094 150.27 11.6094C150.27 11.6094 150.27 11.6094 150.269 11.6094C150.269 11.6094 150.269 11.6094 150.269 11.6094C150.269 11.6094 150.268 11.6094 150.268 11.6094C150.268 11.6094 150.268 11.6094 150.268 11.6094C150.267 11.6094 150.267 11.6094 150.267 11.6094C150.267 11.6094 150.267 11.6094 150.266 11.6094C150.266 11.6094 150.266 11.6094 150.266 11.6094C150.266 11.6094 150.265 11.6094 150.265 11.6094C150.265 11.6094 150.265 11.6094 150.265 11.6094C150.264 11.6094 150.264 11.6094 150.264 11.6094C150.264 11.6094 150.264 11.6094 150.263 11.6094C150.263 11.6094 150.263 11.6094 150.263 11.6094C150.263 11.6094 150.262 11.6094 150.262 11.6094C150.262 11.6094 150.262 11.6094 150.262 11.6094C150.261 11.6094 150.261 11.6094 150.261 11.6094C150.261 11.6094 150.261 11.6094 150.26 11.6094C150.26 11.6094 150.26 11.6094 150.26 11.6094C150.26 11.6094 150.259 11.6094 150.259 11.6094C150.259 11.6094 150.259 11.6094 150.259 11.6094C150.258 11.6094 150.258 11.6094 150.258 11.6094C150.258 11.6094 150.258 11.6094 150.257 11.6094C150.257 11.6094 150.257 11.6094 150.257 11.6094C150.257 11.6094 150.256 11.6094 150.256 11.6094C150.256 11.6094 150.256 11.6094 150.255 11.6094C150.255 11.6094 150.255 11.6094 150.255 11.6094C150.255 11.6094 150.254 11.6094 150.254 11.6094C150.254 11.6094 150.254 11.6094 150.254 11.6094C150.253 11.6094 150.253 11.6094 150.253 11.6094C150.253 11.6094 150.253 11.6094 150.252 11.6094C150.252 11.6094 150.252 11.6094 150.252 11.6094C150.252 11.6094 150.251 11.6094 150.251 11.6094C150.251 11.6094 150.251 11.6094 150.251 11.6094C150.25 11.6094 150.25 11.6094 150.25 11.6094V15.6094ZM150.547 15.6094H156.844V11.6094H150.547V15.6094ZM156.844 15.6094C157.651 15.6094 158.205 15.755 158.585 15.9505L160.415 12.3933C159.336 11.8388 158.12 11.6094 156.844 11.6094V15.6094ZM158.585 15.9505C159.09 16.2101 159.442 16.508 159.69 16.8256L162.841 14.3619C162.194 13.5336 161.368 12.8837 160.415 12.3933L158.585 15.9505ZM159.701 16.8396C159.995 17.2082 160.195 17.5945 160.317 18.0067L164.152 16.8683C163.878 15.9472 163.432 15.1043 162.83 14.3479L159.701 16.8396ZM160.325 18.034C160.486 18.5483 160.547 18.9649 160.547 19.2969H164.547C164.547 18.483 164.399 17.66 164.143 16.841L160.325 18.034Z" fill="black"/>
</g>
<defs>
<filter id="filter0_d_2435_6608" x="0.828125" y="0.96875" width="170.719" height="34.0625" filterUnits="userSpaceOnUse" color-interpolation-filters="sRGB">
<feFlood flood-opacity="0" result="BackgroundImageFix"/>
<feColorMatrix in="SourceAlpha" type="matrix" values="0 0 0 0 0 0 0 0 0 0 0 0 0 0 0 0 0 0 127 0" result="hardAlpha"/>
<feOffset dx="4" dy="5"/>
<feGaussianBlur stdDeviation="2.5"/>
<feComposite in2="hardAlpha" operator="out"/>
<feColorMatrix type="matrix" values="0 0 0 0 0 0 0 0 0 0 0 0 0 0 0 0 0 0 0.28 0"/>
<feBlend mode="normal" in2="BackgroundImageFix" result="effect1_dropShadow_2435_6608"/>
<feBlend mode="normal" in="SourceGraphic" in2="effect1_dropShadow_2435_6608" result="shape"/>
</filter>
</defs>
</svg>
