<svg width="112" height="35" viewBox="0 0 112 35" fill="none" xmlns="http://www.w3.org/2000/svg">
<g filter="url(#filter0_d_2435_6606)">
<path d="M20.5312 19.2969C20.5312 19.6823 20.4844 20.0885 20.3906 20.5156C20.3073 20.9427 20.1719 21.3698 19.9844 21.7969C19.7969 22.2135 19.5521 22.6146 19.25 23C18.9583 23.3854 18.599 23.7292 18.1719 24.0312C17.7552 24.3229 17.2708 24.5573 16.7188 24.7344C16.1667 24.9115 15.5417 25 14.8438 25H7.51562C7.13021 25 6.72396 24.9583 6.29688 24.875C5.86979 24.7812 5.44271 24.6406 5.01562 24.4531C4.59896 24.2656 4.19792 24.026 3.8125 23.7344C3.42708 23.4323 3.08333 23.0729 2.78125 22.6562C2.48958 22.2292 2.25521 21.7396 2.07812 21.1875C1.90104 20.625 1.8125 19.9948 1.8125 19.2969V0.96875H5.875V19.2969C5.875 19.7969 6.03125 20.1979 6.34375 20.5C6.65625 20.7917 7.04688 20.9375 7.51562 20.9375H14.8438C15.3542 20.9375 15.75 20.7865 16.0312 20.4844C16.3229 20.1823 16.4688 19.7865 16.4688 19.2969V13.7969C16.4688 13.2865 16.3177 12.8906 16.0156 12.6094C15.7135 12.3177 15.3229 12.1719 14.8438 12.1719H7.51562V8.10938H14.8438C15.2292 8.10938 15.6354 8.15625 16.0625 8.25C16.4896 8.33333 16.9115 8.46875 17.3281 8.65625C17.7552 8.84375 18.1615 9.08854 18.5469 9.39062C18.9323 9.68229 19.2708 10.0417 19.5625 10.4688C19.8542 10.8854 20.0885 11.3698 20.2656 11.9219C20.4427 12.474 20.5312 13.099 20.5312 13.7969V19.2969ZM42.375 19.2969C42.375 19.9948 42.2865 20.625 42.1094 21.1875C41.9323 21.7396 41.6979 22.2292 41.4062 22.6562C41.1146 23.0729 40.776 23.4323 40.3906 23.7344C40.0052 24.026 39.599 24.2656 39.1719 24.4531C38.7552 24.6406 38.3281 24.7812 37.8906 24.875C37.4635 24.9583 37.0573 25 36.6719 25H29.3438C28.7812 25 28.1667 24.901 27.5 24.7031C26.8333 24.5052 26.2135 24.1823 25.6406 23.7344C25.0781 23.276 24.6042 22.6875 24.2188 21.9688C23.8438 21.2396 23.6562 20.349 23.6562 19.2969V13.7969C23.6562 12.7552 23.8438 11.875 24.2188 11.1562C24.6042 10.4271 25.0781 9.83854 25.6406 9.39062C26.2135 8.93229 26.8333 8.60417 27.5 8.40625C28.1667 8.20833 28.7812 8.10938 29.3438 8.10938H36.6719C37.7135 8.10938 38.599 8.29688 39.3281 8.67188C40.0573 9.04688 40.6458 9.52083 41.0938 10.0938C41.5417 10.6562 41.8646 11.2708 42.0625 11.9375C42.2708 12.6042 42.375 13.224 42.375 13.7969V19.2969ZM38.3125 13.8281C38.3125 13.2656 38.1719 12.849 37.8906 12.5781C37.6094 12.3073 37.2031 12.1719 36.6719 12.1719H29.375C28.8333 12.1719 28.4219 12.3125 28.1406 12.5938C27.8594 12.8646 27.7188 13.2656 27.7188 13.7969V19.2969C27.7188 19.8281 27.8594 20.2344 28.1406 20.5156C28.4219 20.7969 28.8333 20.9375 29.375 20.9375H36.6719C37.224 20.9375 37.6354 20.7969 37.9062 20.5156C38.1771 20.2344 38.3125 19.8281 38.3125 19.2969V13.8281ZM63.2812 19.4062C63.2812 19.9688 63.1823 20.5781 62.9844 21.2344C62.7865 21.8802 62.4635 22.4844 62.0156 23.0469C61.5781 23.599 61 24.0625 60.2812 24.4375C59.5729 24.8125 58.7083 25 57.6875 25H50.3594C49.7969 25 49.1875 24.901 48.5312 24.7031C47.8854 24.5052 47.2812 24.1875 46.7188 23.75C46.1667 23.3021 45.7031 22.724 45.3281 22.0156C44.9531 21.2969 44.7656 20.4271 44.7656 19.4062C44.7656 18.8438 44.8646 18.2344 45.0625 17.5781C45.2604 16.9219 45.5781 16.3177 46.0156 15.7656C46.4635 15.2031 47.0417 14.7344 47.75 14.3594C48.4688 13.9844 49.3385 13.7969 50.3594 13.7969H57.6875V17.6719H50.3594C49.8073 17.6719 49.3802 17.8438 49.0781 18.1875C48.776 18.5208 48.625 18.9375 48.625 19.4375C48.625 19.9688 48.7969 20.3854 49.1406 20.6875C49.4948 20.9792 49.9115 21.125 50.3906 21.125H57.6875C58.2396 21.125 58.6667 20.9583 58.9688 20.625C59.2708 20.2917 59.4219 19.875 59.4219 19.375V13.7031C59.4219 13.1719 59.2552 12.75 58.9219 12.4375C58.599 12.125 58.1875 11.9688 57.6875 11.9688H48.7656V8.10938H57.6875C58.25 8.10938 58.8542 8.20833 59.5 8.40625C60.1562 8.60417 60.7604 8.92708 61.3125 9.375C61.875 9.8125 62.3438 10.3906 62.7188 11.1094C63.0938 11.8177 63.2812 12.6823 63.2812 13.7031V19.4062ZM81.5312 12.1719H72.3906C71.8385 12.1719 71.4219 12.3125 71.1406 12.5938C70.8594 12.8646 70.7188 13.2656 70.7188 13.7969V25H66.6562V13.7969C66.6562 13.099 66.7448 12.474 66.9219 11.9219C67.099 11.3698 67.3333 10.8854 67.625 10.4688C67.9271 10.0417 68.2708 9.68229 68.6562 9.39062C69.0417 9.08854 69.4427 8.84375 69.8594 8.65625C70.2865 8.46875 70.7135 8.33333 71.1406 8.25C71.5781 8.15625 71.9844 8.10938 72.3594 8.10938H81.5312V12.1719ZM102.688 19.2969C102.688 19.9948 102.599 20.625 102.422 21.1875C102.245 21.7396 102.01 22.2292 101.719 22.6562C101.427 23.0729 101.089 23.4323 100.703 23.7344C100.318 24.026 99.9115 24.2656 99.4844 24.4531C99.0677 24.6406 98.6406 24.7812 98.2031 24.875C97.776 24.9583 97.3698 25 96.9844 25H89.6562C88.9583 25 88.3333 24.9115 87.7812 24.7344C87.2292 24.5573 86.7396 24.3229 86.3125 24.0312C85.8958 23.7292 85.5365 23.3854 85.2344 23C84.9427 22.6146 84.7031 22.2135 84.5156 21.7969C84.3281 21.3698 84.1875 20.9427 84.0938 20.5156C84.0104 20.0781 83.9688 19.6719 83.9688 19.2969V13.7969C83.9688 12.7552 84.1562 11.875 84.5312 11.1562C84.9167 10.4271 85.3906 9.83854 85.9531 9.39062C86.526 8.93229 87.1458 8.60417 87.8125 8.40625C88.4792 8.20833 89.0938 8.10938 89.6562 8.10938H96.9844V12.1719H89.6875C89.1458 12.1719 88.7344 12.3125 88.4531 12.5938C88.1719 12.8646 88.0312 13.2656 88.0312 13.7969V19.2656C88.0312 19.8177 88.1667 20.2344 88.4375 20.5156C88.7188 20.7969 89.125 20.9375 89.6562 20.9375H96.9844C97.5365 20.9375 97.9479 20.7969 98.2188 20.5156C98.4896 20.2344 98.625 19.8281 98.625 19.2969V0.96875H102.688V19.2969Z" fill="white"/>
<path d="M20.3906 20.5156L18.4371 20.0868L18.4321 20.1097L18.4276 20.1326L20.3906 20.5156ZM19.9844 21.7969L21.8082 22.6176L21.812 22.6092L21.8157 22.6009L19.9844 21.7969ZM19.25 23L17.6759 21.7662L17.6654 21.7796L17.6552 21.7931L19.25 23ZM18.1719 24.0312L19.3188 25.6697L19.3268 25.6641L18.1719 24.0312ZM6.29688 24.875L5.86806 26.8285L5.8909 26.8335L5.91385 26.838L6.29688 24.875ZM5.01562 24.4531L4.1949 26.277L4.20325 26.2807L4.21164 26.2844L5.01562 24.4531ZM3.8125 23.7344L2.57874 25.3085L2.59209 25.319L2.60561 25.3292L3.8125 23.7344ZM2.78125 22.6562L1.12965 23.7842L1.14551 23.8074L1.16203 23.8302L2.78125 22.6562ZM2.07812 21.1875L0.170399 21.7881L0.173694 21.7984L2.07812 21.1875ZM1.8125 0.96875V-1.03125H-0.1875V0.96875H1.8125ZM5.875 0.96875H7.875V-1.03125H5.875V0.96875ZM6.34375 20.5L4.95371 21.938L4.9663 21.9502L4.97911 21.9621L6.34375 20.5ZM16.0312 20.4844L14.5924 19.0952L14.5798 19.1082L14.5675 19.1215L16.0312 20.4844ZM16.0156 12.6094L14.6264 14.0482L14.6395 14.0608L14.6528 14.0732L16.0156 12.6094ZM7.51562 12.1719H5.51562V14.1719H7.51562V12.1719ZM7.51562 8.10938V6.10938H5.51562V8.10938H7.51562ZM16.0625 8.25L15.6337 10.2035L15.6565 10.2085L15.6795 10.213L16.0625 8.25ZM17.3281 8.65625L16.5074 10.4801L16.5158 10.4839L16.5241 10.4875L17.3281 8.65625ZM18.5469 9.39062L17.3131 10.9647L17.3265 10.9752L17.34 10.9854L18.5469 9.39062ZM19.5625 10.4688L17.9109 11.5967L17.9174 11.6062L17.924 11.6157L19.5625 10.4688ZM18.5312 19.2969C18.5312 19.5203 18.504 19.7821 18.4371 20.0868L22.3441 20.9444C22.4647 20.395 22.5312 19.8442 22.5312 19.2969H18.5312ZM18.4276 20.1326C18.3745 20.405 18.2855 20.6912 18.1531 20.9929L21.8157 22.6009C22.0582 22.0484 22.2401 21.4804 22.3536 20.8986L18.4276 20.1326ZM18.1605 20.9761C18.0439 21.2354 17.8855 21.4989 17.6759 21.7662L20.8241 24.2338C21.2187 23.7303 21.5499 23.1917 21.8082 22.6176L18.1605 20.9761ZM17.6552 21.7931C17.4972 22.0019 17.2902 22.2052 17.0169 22.3984L19.3268 25.6641C19.9078 25.2532 20.4195 24.7689 20.8448 24.2069L17.6552 21.7931ZM17.025 22.3928C16.7938 22.5546 16.4952 22.7057 16.1079 22.8299L17.3296 26.6388C18.0465 26.4089 18.7166 26.0912 19.3188 25.6697L17.025 22.3928ZM16.1079 22.8299C15.7887 22.9323 15.3752 23 14.8438 23V27C15.7082 27 16.5446 26.8906 17.3296 26.6388L16.1079 22.8299ZM14.8438 23H7.51562V27H14.8438V23ZM7.51562 23C7.27399 23 6.99666 22.9738 6.6799 22.912L5.91385 26.838C6.45126 26.9428 6.98643 27 7.51562 27V23ZM6.72569 22.9215C6.43563 22.8578 6.13395 22.7598 5.81961 22.6218L4.21164 26.2844C4.75147 26.5214 5.30396 26.7047 5.86806 26.8285L6.72569 22.9215ZM5.83635 22.6293C5.56425 22.5068 5.29198 22.3458 5.01939 22.1396L2.60561 25.3292C3.10386 25.7062 3.63366 26.0244 4.1949 26.277L5.83635 22.6293ZM5.04626 22.1603C4.81462 21.9787 4.59889 21.756 4.40047 21.4823L1.16203 23.8302C1.56778 24.3898 2.03955 24.8859 2.57874 25.3085L5.04626 22.1603ZM4.43285 21.5283C4.2622 21.2785 4.10776 20.967 3.98256 20.5766L0.173694 21.7984C0.402657 22.5122 0.716963 23.1799 1.12965 23.7842L4.43285 21.5283ZM3.98582 20.5869C3.87994 20.2506 3.8125 19.8274 3.8125 19.2969H-0.1875C-0.1875 20.1622 -0.0778546 20.9994 0.170427 21.7881L3.98582 20.5869ZM3.8125 19.2969V0.96875H-0.1875V19.2969H3.8125ZM1.8125 2.96875H5.875V-1.03125H1.8125V2.96875ZM3.875 0.96875V19.2969H7.875V0.96875H3.875ZM3.875 19.2969C3.875 20.2502 4.19179 21.2015 4.95371 21.938L7.73379 19.062C7.78275 19.1093 7.82813 19.1757 7.85574 19.2466C7.88112 19.3117 7.875 19.338 7.875 19.2969H3.875ZM4.97911 21.9621C5.69912 22.6341 6.59353 22.9375 7.51562 22.9375V18.9375C7.49064 18.9375 7.51614 18.9341 7.5706 18.9544C7.62821 18.9759 7.67714 19.0087 7.70839 19.0379L4.97911 21.9621ZM7.51562 22.9375H14.8438V18.9375H7.51562V22.9375ZM14.8438 22.9375C15.7685 22.9375 16.7491 22.6484 17.495 21.8472L14.5675 19.1215C14.6408 19.0428 14.7305 18.9861 14.8104 18.9556C14.8815 18.9285 14.9038 18.9375 14.8438 18.9375V22.9375ZM17.4701 21.8736C18.1811 21.1371 18.4688 20.2124 18.4688 19.2969H14.4688C14.4688 19.343 14.4621 19.3254 14.4827 19.2695C14.5053 19.2082 14.5446 19.1448 14.5924 19.0952L17.4701 21.8736ZM18.4688 19.2969V13.7969H14.4688V19.2969H18.4688ZM18.4688 13.7969C18.4688 12.8721 18.1797 11.8915 17.3785 11.1456L14.6528 14.0732C14.574 13.9998 14.5174 13.9101 14.4869 13.8302C14.4598 13.7591 14.4688 13.7368 14.4688 13.7969H18.4688ZM17.4048 11.1706C16.6766 10.4675 15.7621 10.1719 14.8438 10.1719V14.1719C14.8796 14.1719 14.8557 14.177 14.7966 14.1549C14.7327 14.1311 14.6715 14.0917 14.6264 14.0482L17.4048 11.1706ZM14.8438 10.1719H7.51562V14.1719H14.8438V10.1719ZM9.51562 12.1719V8.10938H5.51562V12.1719H9.51562ZM7.51562 10.1094H14.8438V6.10938H7.51562V10.1094ZM14.8438 10.1094C15.0672 10.1094 15.329 10.1366 15.6337 10.2035L16.4913 6.29651C15.9419 6.1759 15.3911 6.10938 14.8438 6.10938V10.1094ZM15.6795 10.213C15.9485 10.2655 16.2238 10.3525 16.5074 10.4801L18.1489 6.83241C17.5991 6.58502 17.0307 6.4012 16.4455 6.28702L15.6795 10.213ZM16.5241 10.4875C16.7903 10.6044 17.053 10.7609 17.3131 10.9647L19.7806 7.81651C19.2699 7.41619 18.7201 7.08312 18.1321 6.82496L16.5241 10.4875ZM17.34 10.9854C17.5412 11.1377 17.7327 11.3357 17.9109 11.5967L21.2141 9.34083C20.809 8.74762 20.3234 8.22689 19.7538 7.79581L17.34 10.9854ZM17.924 11.6157C18.0859 11.8469 18.237 12.1454 18.3612 12.5327L22.1701 11.311C21.9401 10.5942 21.6225 9.92398 21.201 9.32183L17.924 11.6157ZM18.3612 12.5327C18.4636 12.8519 18.5312 13.2655 18.5312 13.7969H22.5312C22.5312 12.9325 22.4218 12.096 22.1701 11.311L18.3612 12.5327ZM18.5312 13.7969V19.2969H22.5312V13.7969H18.5312ZM42.1094 21.1875L44.0138 21.7984L44.0171 21.7881L42.1094 21.1875ZM41.4062 22.6562L43.0447 23.8032L43.0513 23.7937L43.0579 23.7842L41.4062 22.6562ZM40.3906 23.7344L41.5975 25.3292L41.611 25.319L41.6244 25.3085L40.3906 23.7344ZM39.1719 24.4531L38.3679 22.6218L38.3595 22.6255L38.3511 22.6293L39.1719 24.4531ZM37.8906 24.875L38.2736 26.838L38.2917 26.8345L38.3097 26.8306L37.8906 24.875ZM25.6406 23.7344L24.3773 25.2848L24.3929 25.2976L24.4088 25.31L25.6406 23.7344ZM24.2188 21.9688L22.4402 22.8834L22.448 22.8987L22.4562 22.9139L24.2188 21.9688ZM24.2188 11.1562L22.4505 10.2216L22.4456 10.2311L24.2188 11.1562ZM25.6406 9.39062L26.8865 10.9552L26.89 10.9524L25.6406 9.39062ZM41.0938 10.0938L39.5181 11.3256L39.5236 11.3326L39.5292 11.3396L41.0938 10.0938ZM42.0625 11.9375L40.1452 12.5067L40.1493 12.5204L40.1535 12.534L42.0625 11.9375ZM28.1406 12.5938L29.5279 14.0344L29.5415 14.0213L29.5548 14.008L28.1406 12.5938ZM37.9062 20.5156L39.3469 21.9029L37.9062 20.5156ZM40.375 19.2969C40.375 19.8274 40.3076 20.2506 40.2017 20.5869L44.0171 21.7881C44.2654 20.9994 44.375 20.1622 44.375 19.2969H40.375ZM40.2049 20.5766C40.0797 20.967 39.9253 21.2785 39.7546 21.5283L43.0579 23.7842C43.4705 23.1799 43.7848 22.5122 44.0138 21.7984L40.2049 20.5766ZM39.7678 21.5093C39.5848 21.7707 39.3811 21.9845 39.1569 22.1603L41.6244 25.3085C42.171 24.8801 42.6443 24.3751 43.0447 23.8032L39.7678 21.5093ZM39.1837 22.1396C38.9184 22.3404 38.6468 22.4994 38.3679 22.6218L39.9759 26.2844C40.5511 26.0319 41.092 25.7117 41.5975 25.3292L39.1837 22.1396ZM38.3511 22.6293C38.0606 22.76 37.768 22.8559 37.4716 22.9194L38.3097 26.8306C38.8883 26.7066 39.4498 26.5212 39.9926 26.277L38.3511 22.6293ZM37.5076 22.912C37.1908 22.9738 36.9135 23 36.6719 23V27C37.2011 27 37.7362 26.9428 38.2736 26.838L37.5076 22.912ZM36.6719 23H29.3438V27H36.6719V23ZM29.3438 23C29.0132 23 28.5929 22.9413 28.0692 22.7858L26.9308 26.6204C27.7405 26.8608 28.5493 27 29.3438 27V23ZM28.0692 22.7858C27.6538 22.6625 27.257 22.4594 26.8725 22.1588L24.4088 25.31C25.17 25.9052 26.0129 26.3479 26.9308 26.6204L28.0692 22.7858ZM26.904 22.1839C26.5701 21.9119 26.2574 21.5384 25.9813 21.0236L22.4562 22.9139C22.951 23.8366 23.5861 24.6402 24.3773 25.2848L26.904 22.1839ZM25.9973 21.0541C25.8032 20.6765 25.6562 20.1182 25.6562 19.2969H21.6562C21.6562 20.5797 21.8843 21.8027 22.4402 22.8834L25.9973 21.0541ZM25.6562 19.2969V13.7969H21.6562V19.2969H25.6562ZM25.6562 13.7969C25.6562 12.9882 25.8023 12.4448 25.9919 12.0814L22.4456 10.2311C21.8852 11.3052 21.6562 12.5222 21.6562 13.7969H25.6562ZM25.9869 12.0909C26.2624 11.5698 26.5691 11.2079 26.8865 10.9552L24.3948 7.82606C23.5872 8.46917 22.946 9.28437 22.4506 10.2216L25.9869 12.0909ZM26.89 10.9524C27.2725 10.6463 27.6635 10.444 28.0692 10.3235L26.9308 6.48896C26.0031 6.76436 25.1545 7.21824 24.3912 7.82889L26.89 10.9524ZM28.0692 10.3235C28.5929 10.1681 29.0132 10.1094 29.3438 10.1094V6.10938C28.5493 6.10938 27.7405 6.24859 26.9308 6.48896L28.0692 10.3235ZM29.3438 10.1094H36.6719V6.10938H29.3438V10.1094ZM36.6719 10.1094C37.4791 10.1094 38.0333 10.255 38.4134 10.4505L40.2428 6.8933C39.1646 6.33877 37.9479 6.10938 36.6719 6.10938V10.1094ZM38.4134 10.4505C38.9182 10.7101 39.2699 11.008 39.5181 11.3256L42.6694 8.86191C42.0218 8.03365 41.1963 7.38368 40.2428 6.8933L38.4134 10.4505ZM39.5292 11.3396C39.8227 11.7082 40.0228 12.0945 40.1452 12.5067L43.9798 11.3683C43.7063 10.4472 43.2606 9.60426 42.6583 8.8479L39.5292 11.3396ZM40.1535 12.534C40.3143 13.0483 40.375 13.4649 40.375 13.7969H44.375C44.375 12.983 44.2274 12.16 43.9715 11.341L40.1535 12.534ZM40.375 13.7969V19.2969H44.375V13.7969H40.375ZM40.3125 13.8281C40.3125 12.964 40.0961 11.9253 39.2779 11.1375L36.5033 14.0188C36.3851 13.9049 36.3312 13.79 36.312 13.7333C36.2965 13.6873 36.3125 13.7067 36.3125 13.8281H40.3125ZM39.2779 11.1375C38.5064 10.3945 37.5302 10.1719 36.6719 10.1719V14.1719C36.7721 14.1719 36.7856 14.1852 36.7425 14.1708C36.7196 14.1631 36.6831 14.1484 36.6388 14.1222C36.594 14.0958 36.5475 14.0613 36.5033 14.0188L39.2779 11.1375ZM36.6719 10.1719H29.375V14.1719H36.6719V10.1719ZM29.375 10.1719C28.4997 10.1719 27.5021 10.4038 26.7264 11.1795L29.5548 14.008C29.5105 14.0523 29.4629 14.0889 29.4163 14.1173C29.3702 14.1454 29.3317 14.1614 29.307 14.1699C29.2605 14.1857 29.2724 14.1719 29.375 14.1719V10.1719ZM26.7533 11.1531C25.9556 11.9213 25.7188 12.9243 25.7188 13.7969H29.7188C29.7188 13.7026 29.7318 13.7017 29.7116 13.7594C29.6877 13.8275 29.632 13.9341 29.5279 14.0344L26.7533 11.1531ZM25.7188 13.7969V19.2969H29.7188V13.7969H25.7188ZM25.7188 19.2969C25.7188 20.1747 25.9575 21.1609 26.7264 21.9298L29.5548 19.1014C29.597 19.1436 29.6326 19.1893 29.6607 19.2352C29.6886 19.2806 29.705 19.3194 29.7142 19.3458C29.7316 19.396 29.7188 19.3903 29.7188 19.2969H25.7188ZM26.7264 21.9298C27.5021 22.7055 28.4997 22.9375 29.375 22.9375V18.9375C29.2724 18.9375 29.2605 18.9236 29.307 18.9395C29.3317 18.948 29.3702 18.964 29.4163 18.992C29.4629 19.0204 29.5105 19.057 29.5548 19.1014L26.7264 21.9298ZM29.375 22.9375H36.6719V18.9375H29.375V22.9375ZM36.6719 22.9375C37.5386 22.9375 38.5654 22.7145 39.3469 21.9029L36.4656 19.1283C36.575 19.0148 36.6871 18.9602 36.7477 18.9395C36.7977 18.9224 36.7844 18.9375 36.6719 18.9375V22.9375ZM39.3469 21.9029C40.0898 21.1314 40.3125 20.1552 40.3125 19.2969H36.3125C36.3125 19.3971 36.2992 19.4106 36.3136 19.3675C36.3212 19.3446 36.336 19.3081 36.3621 19.2638C36.3886 19.219 36.4231 19.1725 36.4656 19.1283L39.3469 21.9029ZM40.3125 19.2969V13.8281H36.3125V19.2969H40.3125ZM62.9844 21.2344L64.8966 21.8204L64.8992 21.8119L62.9844 21.2344ZM62.0156 23.0469L60.4511 21.801L60.4481 21.8047L62.0156 23.0469ZM60.2812 24.4375L59.3561 22.6643L59.3455 22.6699L60.2812 24.4375ZM48.5312 24.7031L47.9452 26.6154L47.9538 26.6179L48.5312 24.7031ZM46.7188 23.75L45.4587 25.3031L45.4746 25.3161L45.4909 25.3287L46.7188 23.75ZM45.3281 22.0156L43.5549 22.9408L43.5606 22.9514L45.3281 22.0156ZM45.0625 17.5781L43.1477 17.0006L45.0625 17.5781ZM46.0156 15.7656L44.4511 14.5198L44.4481 14.5235L46.0156 15.7656ZM47.75 14.3594L46.8249 12.5862L46.8142 12.5918L47.75 14.3594ZM57.6875 13.7969H59.6875V11.7969H57.6875V13.7969ZM57.6875 17.6719V19.6719H59.6875V17.6719H57.6875ZM49.0781 18.1875L50.5601 19.5305L50.5704 19.5192L50.5805 19.5077L49.0781 18.1875ZM49.1406 20.6875L47.8204 22.1898L47.8445 22.211L47.8692 22.2314L49.1406 20.6875ZM58.9219 12.4375L57.531 13.8747L57.5424 13.8857L57.554 13.8966L58.9219 12.4375ZM48.7656 11.9688H46.7656V13.9688H48.7656V11.9688ZM48.7656 8.10938V6.10938H46.7656V8.10938H48.7656ZM59.5 8.40625L58.914 10.3185L58.9225 10.3211L59.5 8.40625ZM61.3125 9.375L60.0524 10.9281L60.0684 10.9411L60.0846 10.9537L61.3125 9.375ZM62.7188 11.1094L60.9455 12.0345L60.9512 12.0452L62.7188 11.1094ZM61.2812 19.4062C61.2812 19.7359 61.2229 20.1486 61.0696 20.6569L64.8992 21.8119C65.1417 21.0077 65.2812 20.2016 65.2812 19.4062H61.2812ZM61.0722 20.6484C60.9524 21.0393 60.7529 21.4219 60.4511 21.801L63.5802 24.2927C64.1742 23.5468 64.6206 22.7212 64.8966 21.8204L61.0722 20.6484ZM60.4481 21.8047C60.2095 22.1058 59.8632 22.3998 59.3561 22.6643L61.2064 26.2107C62.1368 25.7252 62.9467 25.0921 63.5831 24.289L60.4481 21.8047ZM59.3455 22.6699C58.9936 22.8562 58.4692 23 57.6875 23V27C58.9475 27 60.1522 26.7688 61.217 26.2051L59.3455 22.6699ZM57.6875 23H50.3594V27H57.6875V23ZM50.3594 23C50.0297 23 49.617 22.9416 49.1087 22.7883L47.9538 26.6179C48.758 26.8605 49.564 27 50.3594 27V23ZM49.1173 22.7909C48.7165 22.6681 48.3279 22.4678 47.9466 22.1713L45.4909 25.3287C46.2346 25.9072 47.0544 26.3423 47.9452 26.6153L49.1173 22.7909ZM47.9788 22.1969C47.6607 21.9388 47.3608 21.5806 47.0957 21.0798L43.5606 22.9514C44.0455 23.8673 44.6726 24.6654 45.4587 25.3031L47.9788 22.1969ZM47.1013 21.0905C46.909 20.7219 46.7656 20.1866 46.7656 19.4062H42.7656C42.7656 20.6676 42.9973 21.8719 43.555 22.9408L47.1013 21.0905ZM46.7656 19.4062C46.7656 19.0766 46.824 18.6639 46.9773 18.1556L43.1477 17.0006C42.9052 17.8048 42.7656 18.6109 42.7656 19.4062H46.7656ZM46.9773 18.1556C47.1004 17.7476 47.2978 17.3678 47.5831 17.0078L44.4481 14.5235C43.8584 15.2676 43.4205 16.0962 43.1477 17.0006L46.9773 18.1556ZM47.5802 17.0115C47.838 16.6877 48.1927 16.388 48.6858 16.127L46.8142 12.5918C45.8906 13.0808 45.0891 13.7185 44.4511 14.5198L47.5802 17.0115ZM48.6751 16.1325C49.0437 15.9402 49.5791 15.7969 50.3594 15.7969V11.7969C49.098 11.7969 47.8938 12.0285 46.8249 12.5862L48.6751 16.1325ZM50.3594 15.7969H57.6875V11.7969H50.3594V15.7969ZM55.6875 13.7969V17.6719H59.6875V13.7969H55.6875ZM57.6875 15.6719H50.3594V19.6719H57.6875V15.6719ZM50.3594 15.6719C49.3616 15.6719 48.3355 16.0028 47.5758 16.8673L50.5805 19.5077C50.5553 19.5363 50.5226 19.5668 50.4829 19.5949C50.4432 19.6229 50.4046 19.6429 50.3717 19.6562C50.3057 19.6827 50.2894 19.6719 50.3594 19.6719V15.6719ZM47.5961 16.8445C46.9226 17.5876 46.625 18.5008 46.625 19.4375H50.625C50.625 19.3904 50.6317 19.3953 50.6186 19.4316C50.6123 19.4488 50.6034 19.4681 50.5917 19.4874C50.5801 19.5066 50.5686 19.5211 50.5601 19.5305L47.5961 16.8445ZM46.625 19.4375C46.625 20.4418 46.9733 21.4454 47.8204 22.1898L50.4609 19.1852C50.485 19.2064 50.513 19.2359 50.5401 19.2736C50.5673 19.3115 50.5881 19.3501 50.6028 19.3858C50.6328 19.4585 50.625 19.4874 50.625 19.4375H46.625ZM47.8692 22.2314C48.5983 22.8318 49.4699 23.125 50.3906 23.125V19.125C50.3725 19.125 50.3643 19.1236 50.3643 19.1236C50.3642 19.1236 50.3657 19.1239 50.3685 19.1246C50.3713 19.1253 50.375 19.1264 50.3795 19.1279C50.3888 19.1312 50.3978 19.1353 50.4052 19.1395C50.4125 19.1437 50.4148 19.1459 50.412 19.1436L47.8692 22.2314ZM50.3906 23.125H57.6875V19.125H50.3906V23.125ZM57.6875 23.125C58.6656 23.125 59.6855 22.8124 60.4507 21.968L57.4868 19.282C57.514 19.2519 57.5481 19.2215 57.5877 19.1943C57.6272 19.1672 57.6645 19.1487 57.6948 19.1368C57.755 19.1133 57.7643 19.125 57.6875 19.125V23.125ZM60.4507 21.968C61.1242 21.2249 61.4219 20.3117 61.4219 19.375H57.4219C57.4219 19.4221 57.4152 19.4172 57.4283 19.3809C57.4345 19.3637 57.4435 19.3444 57.4552 19.3251C57.4668 19.3059 57.4782 19.2914 57.4868 19.282L60.4507 21.968ZM61.4219 19.375V13.7031H57.4219V19.375H61.4219ZM61.4219 13.7031C61.4219 12.7173 61.0929 11.7313 60.2898 10.9784L57.554 13.8966C57.5333 13.8772 57.5098 13.8509 57.4874 13.818C57.465 13.785 57.4483 13.7522 57.4368 13.7231C57.4133 13.6637 57.4219 13.6467 57.4219 13.7031H61.4219ZM60.3127 11.0003C59.5734 10.2848 58.6429 9.96875 57.6875 9.96875V13.9688C57.7276 13.9688 57.7108 13.9746 57.6611 13.9557C57.6373 13.9466 57.6118 13.9341 57.587 13.9183C57.5623 13.9025 57.5436 13.8869 57.531 13.8747L60.3127 11.0003ZM57.6875 9.96875H48.7656V13.9688H57.6875V9.96875ZM50.7656 11.9688V8.10938H46.7656V11.9688H50.7656ZM48.7656 10.1094H57.6875V6.10938H48.7656V10.1094ZM57.6875 10.1094C58.0162 10.1094 58.4212 10.1675 58.914 10.3185L60.086 6.49403C59.2871 6.24921 58.4838 6.10938 57.6875 6.10938V10.1094ZM58.9225 10.3211C59.3206 10.4411 59.6945 10.6378 60.0524 10.9281L62.5726 7.82188C61.8263 7.21639 60.9919 6.7672 60.0775 6.49144L58.9225 10.3211ZM60.0846 10.9537C60.3913 11.1923 60.6851 11.5352 60.9456 12.0345L64.4919 10.1842C64.0024 9.24605 63.3587 8.43274 62.5404 7.7963L60.0846 10.9537ZM60.9512 12.0452C61.1374 12.397 61.2812 12.9214 61.2812 13.7031H65.2812C65.2812 12.4431 65.0501 11.2384 64.4863 10.1736L60.9512 12.0452ZM61.2812 13.7031V19.4062H65.2812V13.7031H61.2812ZM81.5312 12.1719V14.1719H83.5312V12.1719H81.5312ZM71.1406 12.5938L72.5279 14.0344L72.5415 14.0213L72.5548 14.008L71.1406 12.5938ZM70.7188 25V27H72.7188V25H70.7188ZM66.6562 25H64.6562V27H66.6562V25ZM66.9219 11.9219L65.0174 11.311L66.9219 11.9219ZM67.625 10.4688L65.9921 9.31381L65.9865 9.32183L67.625 10.4688ZM68.6562 9.39062L69.8631 10.9854L69.8767 10.9752L69.89 10.9647L68.6562 9.39062ZM69.8594 8.65625L69.0554 6.82496L69.047 6.82865L69.0386 6.83241L69.8594 8.65625ZM71.1406 8.25L71.5236 10.213L71.5417 10.2095L71.5597 10.2056L71.1406 8.25ZM81.5312 8.10938H83.5312V6.10938H81.5312V8.10938ZM81.5312 10.1719H72.3906V14.1719H81.5312V10.1719ZM72.3906 10.1719C71.5177 10.1719 70.5087 10.3973 69.7264 11.1795L72.5548 14.008C72.5082 14.0546 72.4589 14.0922 72.4116 14.1208C72.3649 14.149 72.3267 14.1645 72.3036 14.1723C72.261 14.1867 72.279 14.1719 72.3906 14.1719V10.1719ZM69.7533 11.1531C68.9556 11.9213 68.7188 12.9243 68.7188 13.7969H72.7188C72.7188 13.7026 72.7318 13.7017 72.7116 13.7594C72.6877 13.8275 72.632 13.9341 72.5279 14.0344L69.7533 11.1531ZM68.7188 13.7969V25H72.7188V13.7969H68.7188ZM70.7188 23H66.6562V27H70.7188V23ZM68.6562 25V13.7969H64.6562V25H68.6562ZM68.6562 13.7969C68.6562 13.2655 68.7239 12.8519 68.8263 12.5327L65.0174 11.311C64.7657 12.096 64.6562 12.9325 64.6562 13.7969H68.6562ZM68.8263 12.5327C68.9505 12.1454 69.1016 11.8469 69.2635 11.6157L65.9865 9.32183C65.565 9.92398 65.2474 10.5942 65.0174 11.311L68.8263 12.5327ZM69.2578 11.6237C69.4511 11.3505 69.6544 11.1434 69.8631 10.9854L67.4494 7.79581C66.8873 8.22115 66.4031 8.73287 65.9922 9.31382L69.2578 11.6237ZM69.89 10.9647C70.1574 10.7552 70.4208 10.5968 70.6801 10.4801L69.0386 6.83241C68.4646 7.09073 67.9259 7.42191 67.4225 7.81651L69.89 10.9647ZM70.6634 10.4875C70.965 10.3551 71.2513 10.2661 71.5236 10.213L70.7576 6.28702C70.1758 6.40054 69.6079 6.5824 69.0554 6.82496L70.6634 10.4875ZM71.5597 10.2056C71.885 10.1359 72.1492 10.1094 72.3594 10.1094V6.10938C71.8196 6.10938 71.2713 6.1766 70.7216 6.2944L71.5597 10.2056ZM72.3594 10.1094H81.5312V6.10938H72.3594V10.1094ZM79.5312 8.10938V12.1719H83.5312V8.10938H79.5312ZM102.422 21.1875L104.326 21.7984L104.33 21.7881L102.422 21.1875ZM101.719 22.6562L103.357 23.8032L103.364 23.7937L103.37 23.7842L101.719 22.6562ZM100.703 23.7344L101.91 25.3292L101.924 25.319L101.937 25.3085L100.703 23.7344ZM99.4844 24.4531L98.6804 22.6218L98.672 22.6255L98.6636 22.6293L99.4844 24.4531ZM98.2031 24.875L98.5861 26.838L98.6042 26.8345L98.6222 26.8306L98.2031 24.875ZM86.3125 24.0312L85.1386 25.6505L85.1613 25.667L85.1846 25.6829L86.3125 24.0312ZM85.2344 23L83.6396 24.2069L83.6498 24.2204L83.6603 24.2338L85.2344 23ZM84.5156 21.7969L82.6843 22.6009L82.688 22.6092L82.6918 22.6176L84.5156 21.7969ZM84.0938 20.5156L82.1291 20.8898L82.1343 20.9172L82.1403 20.9444L84.0938 20.5156ZM84.5312 11.1562L82.763 10.2216L82.7581 10.2311L84.5312 11.1562ZM85.9531 9.39062L87.199 10.9552L87.2025 10.9524L85.9531 9.39062ZM96.9844 8.10938H98.9844V6.10938H96.9844V8.10938ZM96.9844 12.1719V14.1719H98.9844V12.1719H96.9844ZM88.4531 12.5938L89.8404 14.0344L89.854 14.0213L89.8673 14.008L88.4531 12.5938ZM88.4375 20.5156L86.9969 21.9029L87.0099 21.9165L87.0233 21.9298L88.4375 20.5156ZM98.2188 20.5156L99.6594 21.9029L98.2188 20.5156ZM98.625 0.96875V-1.03125H96.625V0.96875H98.625ZM102.688 0.96875H104.688V-1.03125H102.688V0.96875ZM100.688 19.2969C100.688 19.8274 100.62 20.2506 100.514 20.5869L104.33 21.7881C104.578 20.9994 104.688 20.1622 104.688 19.2969H100.688ZM100.517 20.5766C100.392 20.967 100.238 21.2785 100.067 21.5283L103.37 23.7842C103.783 23.1799 104.097 22.5122 104.326 21.7984L100.517 20.5766ZM100.08 21.5093C99.8973 21.7707 99.6936 21.9845 99.4694 22.1603L101.937 25.3085C102.483 24.8801 102.957 24.3751 103.357 23.8032L100.08 21.5093ZM99.4962 22.1396C99.2309 22.3404 98.9593 22.4994 98.6804 22.6218L100.288 26.2844C100.864 26.0319 101.405 25.7117 101.91 25.3292L99.4962 22.1396ZM98.6636 22.6293C98.3731 22.76 98.0805 22.8559 97.7841 22.9194L98.6222 26.8306C99.2008 26.7066 99.7623 26.5212 100.305 26.277L98.6636 22.6293ZM97.8201 22.912C97.5033 22.9738 97.226 23 96.9844 23V27C97.5136 27 98.0487 26.9428 98.5861 26.838L97.8201 22.912ZM96.9844 23H89.6562V27H96.9844V23ZM89.6562 23C89.1248 23 88.7113 22.9323 88.3921 22.8299L87.1704 26.6388C87.9554 26.8906 88.7918 27 89.6562 27V23ZM88.3921 22.8299C88.0018 22.7047 87.6903 22.5503 87.4404 22.3796L85.1846 25.6829C85.7889 26.0955 86.4566 26.4098 87.1704 26.6388L88.3921 22.8299ZM87.4864 22.412C87.2128 22.2136 86.99 21.9979 86.8085 21.7662L83.6603 24.2338C84.0829 24.773 84.5789 25.2447 85.1386 25.6505L87.4864 22.412ZM86.8292 21.7931C86.6229 21.5205 86.4619 21.2482 86.3395 20.9761L82.6918 22.6176C82.9443 23.1788 83.2625 23.7086 83.6396 24.2069L86.8292 21.7931ZM86.3469 20.9929C86.2089 20.6786 86.1109 20.3769 86.0472 20.0868L82.1403 20.9444C82.2641 21.5085 82.4473 22.061 82.6843 22.6009L86.3469 20.9929ZM86.0584 20.1414C85.9944 19.805 85.9688 19.5255 85.9688 19.2969H81.9688C81.9688 19.8182 82.0265 20.3512 82.1291 20.8898L86.0584 20.1414ZM85.9688 19.2969V13.7969H81.9688V19.2969H85.9688ZM85.9688 13.7969C85.9688 12.9882 86.1148 12.4448 86.3044 12.0814L82.7581 10.2311C82.1977 11.3052 81.9688 12.5222 81.9688 13.7969H85.9688ZM86.2994 12.0909C86.5749 11.5698 86.8816 11.2079 87.199 10.9552L84.7073 7.82606C83.8997 8.46917 83.2585 9.28437 82.7631 10.2216L86.2994 12.0909ZM87.2025 10.9524C87.585 10.6463 87.976 10.444 88.3817 10.3235L87.2433 6.48896C86.3156 6.76436 85.467 7.21824 84.7037 7.82889L87.2025 10.9524ZM88.3817 10.3235C88.9054 10.1681 89.3257 10.1094 89.6562 10.1094V6.10938C88.8618 6.10938 88.053 6.24859 87.2433 6.48896L88.3817 10.3235ZM89.6562 10.1094H96.9844V6.10938H89.6562V10.1094ZM94.9844 8.10938V12.1719H98.9844V8.10938H94.9844ZM96.9844 10.1719H89.6875V14.1719H96.9844V10.1719ZM89.6875 10.1719C88.8122 10.1719 87.8146 10.4038 87.0389 11.1795L89.8673 14.008C89.823 14.0523 89.7754 14.0889 89.7288 14.1173C89.6827 14.1454 89.6442 14.1614 89.6195 14.1699C89.573 14.1857 89.5849 14.1719 89.6875 14.1719V10.1719ZM87.0658 11.1531C86.2681 11.9213 86.0312 12.9243 86.0312 13.7969H90.0312C90.0312 13.7026 90.0443 13.7017 90.0241 13.7594C90.0002 13.8275 89.9445 13.9341 89.8404 14.0344L87.0658 11.1531ZM86.0312 13.7969V19.2656H90.0312V13.7969H86.0312ZM86.0312 19.2656C86.0312 20.1198 86.2414 21.1184 86.9969 21.9029L89.8781 19.1283C89.925 19.177 89.9614 19.227 89.9883 19.2732C90.0147 19.3186 90.0285 19.3544 90.0349 19.374C90.0464 19.4094 90.0312 19.3838 90.0312 19.2656H86.0312ZM87.0233 21.9298C87.7922 22.6987 88.7784 22.9375 89.6562 22.9375V18.9375C89.5628 18.9375 89.5571 18.9247 89.6073 18.9421C89.6338 18.9512 89.6725 18.9677 89.7179 18.9956C89.7638 19.0237 89.8096 19.0593 89.8517 19.1014L87.0233 21.9298ZM89.6562 22.9375H96.9844V18.9375H89.6562V22.9375ZM96.9844 22.9375C97.8511 22.9375 98.8779 22.7145 99.6594 21.9029L96.7781 19.1283C96.8875 19.0148 96.9996 18.9602 97.0602 18.9395C97.1102 18.9224 97.0969 18.9375 96.9844 18.9375V22.9375ZM99.6594 21.9029C100.402 21.1314 100.625 20.1552 100.625 19.2969H96.625C96.625 19.3971 96.6117 19.4106 96.6261 19.3675C96.6337 19.3446 96.6485 19.3081 96.6746 19.2638C96.7011 19.219 96.7356 19.1725 96.7781 19.1283L99.6594 21.9029ZM100.625 19.2969V0.96875H96.625V19.2969H100.625ZM98.625 2.96875H102.688V-1.03125H98.625V2.96875ZM100.688 0.96875V19.2969H104.688V0.96875H100.688Z" fill="black"/>
</g>
<defs>
<filter id="filter0_d_2435_6606" x="0.8125" y="0.96875" width="110.875" height="34.0312" filterUnits="userSpaceOnUse" color-interpolation-filters="sRGB">
<feFlood flood-opacity="0" result="BackgroundImageFix"/>
<feColorMatrix in="SourceAlpha" type="matrix" values="0 0 0 0 0 0 0 0 0 0 0 0 0 0 0 0 0 0 127 0" result="hardAlpha"/>
<feOffset dx="4" dy="5"/>
<feGaussianBlur stdDeviation="2.5"/>
<feComposite in2="hardAlpha" operator="out"/>
<feColorMatrix type="matrix" values="0 0 0 0 0 0 0 0 0 0 0 0 0 0 0 0 0 0 0.28 0"/>
<feBlend mode="normal" in2="BackgroundImageFix" result="effect1_dropShadow_2435_6606"/>
<feBlend mode="normal" in="SourceGraphic" in2="effect1_dropShadow_2435_6606" result="shape"/>
</filter>
</defs>
</svg>
