<svg width="115" height="35" viewBox="0 0 115 35" fill="none" xmlns="http://www.w3.org/2000/svg">
<g filter="url(#filter0_d_2434_6709)">
<path d="M20.3438 19.248C20.3438 19.8105 20.2448 20.4199 20.0469 21.0762C19.849 21.722 19.526 22.3262 19.0781 22.8887C18.6406 23.4408 18.0625 23.9043 17.3438 24.2793C16.6354 24.6543 15.7708 24.8418 14.75 24.8418H7.42188C6.85938 24.8418 6.25 24.7428 5.59375 24.5449C4.94792 24.347 4.34375 24.0293 3.78125 23.5918C3.22917 23.1439 2.76562 22.5658 2.39062 21.8574C2.01562 21.1387 1.82812 20.2689 1.82812 19.248C1.82812 18.6855 1.92708 18.0762 2.125 17.4199C2.32292 16.7637 2.64062 16.1595 3.07812 15.6074C3.52604 15.0449 4.10417 14.5762 4.8125 14.2012C5.53125 13.8262 6.40104 13.6387 7.42188 13.6387H14.75V17.5137H7.42188C6.86979 17.5137 6.44271 17.6855 6.14062 18.0293C5.83854 18.3626 5.6875 18.7793 5.6875 19.2793C5.6875 19.8105 5.85938 20.2272 6.20312 20.5293C6.55729 20.821 6.97396 20.9668 7.45312 20.9668H14.75C15.3021 20.9668 15.7292 20.8001 16.0312 20.4668C16.3333 20.1335 16.4844 19.7168 16.4844 19.2168V13.5449C16.4844 13.0137 16.3177 12.5918 15.9844 12.2793C15.6615 11.9668 15.25 11.8105 14.75 11.8105H5.82812V7.95117H14.75C15.3125 7.95117 15.9167 8.05013 16.5625 8.24805C17.2188 8.44596 17.8229 8.76888 18.375 9.2168C18.9375 9.6543 19.4062 10.2324 19.7812 10.9512C20.1562 11.6595 20.3438 12.5241 20.3438 13.5449V19.248ZM42.4375 19.1387C42.4375 19.5241 42.3906 19.9303 42.2969 20.3574C42.2135 20.7845 42.0781 21.2116 41.8906 21.6387C41.7031 22.0553 41.4583 22.4564 41.1562 22.8418C40.8646 23.2272 40.5052 23.571 40.0781 23.873C39.6615 24.1647 39.1771 24.3991 38.625 24.5762C38.0729 24.7533 37.4479 24.8418 36.75 24.8418H29.4219C29.0365 24.8418 28.6302 24.8001 28.2031 24.7168C27.776 24.623 27.349 24.4824 26.9219 24.2949C26.5052 24.1074 26.1042 23.8678 25.7188 23.5762C25.3333 23.2741 24.9896 22.9147 24.6875 22.498C24.3958 22.071 24.1615 21.5814 23.9844 21.0293C23.8073 20.4668 23.7188 19.8366 23.7188 19.1387V0.810547H27.7812V19.1387C27.7812 19.6387 27.9375 20.0397 28.25 20.3418C28.5625 20.6335 28.9531 20.7793 29.4219 20.7793H36.75C37.2604 20.7793 37.6562 20.6283 37.9375 20.3262C38.2292 20.0241 38.375 19.6283 38.375 19.1387V13.6387C38.375 13.1283 38.224 12.7324 37.9219 12.4512C37.6198 12.1595 37.2292 12.0137 36.75 12.0137H29.4219V7.95117H36.75C37.1354 7.95117 37.5417 7.99805 37.9688 8.0918C38.3958 8.17513 38.8177 8.31055 39.2344 8.49805C39.6615 8.68555 40.0677 8.93034 40.4531 9.23242C40.8385 9.52409 41.1771 9.88346 41.4688 10.3105C41.7604 10.7272 41.9948 11.2116 42.1719 11.7637C42.349 12.3158 42.4375 12.9408 42.4375 13.6387V19.1387ZM64.2812 19.1387C64.2812 19.8366 64.1927 20.4668 64.0156 21.0293C63.8385 21.5814 63.6042 22.071 63.3125 22.498C63.0208 22.9147 62.6823 23.2741 62.2969 23.5762C61.9115 23.8678 61.5052 24.1074 61.0781 24.2949C60.6615 24.4824 60.2344 24.623 59.7969 24.7168C59.3698 24.8001 58.9635 24.8418 58.5781 24.8418H51.25C50.6875 24.8418 50.0729 24.7428 49.4062 24.5449C48.7396 24.347 48.1198 24.0241 47.5469 23.5762C46.9844 23.1178 46.5104 22.5293 46.125 21.8105C45.75 21.0814 45.5625 20.1908 45.5625 19.1387V13.6387C45.5625 12.597 45.75 11.7168 46.125 10.998C46.5104 10.2689 46.9844 9.68034 47.5469 9.23242C48.1198 8.77409 48.7396 8.44596 49.4062 8.24805C50.0729 8.05013 50.6875 7.95117 51.25 7.95117H58.5781C59.6198 7.95117 60.5052 8.13867 61.2344 8.51367C61.9635 8.88867 62.5521 9.36263 63 9.93555C63.4479 10.498 63.7708 11.1126 63.9688 11.7793C64.1771 12.446 64.2812 13.0658 64.2812 13.6387V19.1387ZM60.2188 13.6699C60.2188 13.1074 60.0781 12.6908 59.7969 12.4199C59.5156 12.1491 59.1094 12.0137 58.5781 12.0137H51.2812C50.7396 12.0137 50.3281 12.1543 50.0469 12.4355C49.7656 12.7064 49.625 13.1074 49.625 13.6387V19.1387C49.625 19.6699 49.7656 20.0762 50.0469 20.3574C50.3281 20.6387 50.7396 20.7793 51.2812 20.7793H58.5781C59.1302 20.7793 59.5417 20.6387 59.8125 20.3574C60.0833 20.0762 60.2188 19.6699 60.2188 19.1387V13.6699ZM86.2188 22.7949C86.2188 23.0866 86.1667 23.3574 86.0625 23.6074C85.9583 23.8574 85.8125 24.0762 85.625 24.2637C85.4479 24.4408 85.2344 24.5814 84.9844 24.6855C84.7448 24.7897 84.4844 24.8418 84.2031 24.8418H75.0156C74.5156 24.8418 73.9792 24.7845 73.4062 24.6699C72.8438 24.5553 72.2865 24.373 71.7344 24.123C71.1823 23.8626 70.6458 23.5397 70.125 23.1543C69.6146 22.7585 69.1667 22.2845 68.7812 21.7324C68.3958 21.1699 68.0833 20.5241 67.8438 19.7949C67.6146 19.0658 67.5 18.2428 67.5 17.3262V7.95117H71.5625V17.3262C71.5625 17.8574 71.651 18.3366 71.8281 18.7637C72.0156 19.1803 72.2656 19.5397 72.5781 19.8418C72.8906 20.1439 73.2552 20.3783 73.6719 20.5449C74.099 20.7012 74.5573 20.7793 75.0469 20.7793H82.1562V7.95117H86.2188V22.7949ZM105.391 12.0137H98.2969V24.8418H94.1875V12.0137H88.9062V7.95117H94.1875V2.43555H98.2969V7.95117H105.391V12.0137Z" fill="white"/>
<path d="M20.0469 21.0762L21.9591 21.6622L21.9617 21.6537L20.0469 21.0762ZM19.0781 22.8887L17.5136 21.6428L17.5106 21.6465L19.0781 22.8887ZM17.3438 24.2793L16.4186 22.5061L16.408 22.5117L17.3438 24.2793ZM5.59375 24.5449L5.00774 26.4572L5.01627 26.4597L5.59375 24.5449ZM3.78125 23.5918L2.52117 25.1449L2.53714 25.1579L2.55337 25.1705L3.78125 23.5918ZM2.39062 21.8574L0.617423 22.7826L0.623049 22.7932L2.39062 21.8574ZM2.125 17.4199L0.210186 16.8424L2.125 17.4199ZM3.07812 15.6074L1.51356 14.3616L1.51063 14.3653L3.07812 15.6074ZM4.8125 14.2012L3.88735 12.428L3.87672 12.4336L4.8125 14.2012ZM14.75 13.6387H16.75V11.6387H14.75V13.6387ZM14.75 17.5137V19.5137H16.75V17.5137H14.75ZM6.14062 18.0293L7.6226 19.3723L7.63286 19.361L7.64295 19.3495L6.14062 18.0293ZM6.20312 20.5293L4.8829 22.0316L4.90697 22.0528L4.93171 22.0732L6.20312 20.5293ZM15.9844 12.2793L14.5935 13.7165L14.6049 13.7275L14.6165 13.7384L15.9844 12.2793ZM5.82812 11.8105H3.82812V13.8105H5.82812V11.8105ZM5.82812 7.95117V5.95117H3.82812V7.95117H5.82812ZM16.5625 8.24805L15.9765 10.1603L15.985 10.1629L16.5625 8.24805ZM18.375 9.2168L17.1149 10.7699L17.1309 10.7829L17.1471 10.7955L18.375 9.2168ZM19.7812 10.9512L18.008 11.8763L18.0137 11.8869L19.7812 10.9512ZM18.3438 19.248C18.3438 19.5777 18.2854 19.9904 18.1321 20.4987L21.9617 21.6537C22.2042 20.8495 22.3438 20.0434 22.3438 19.248H18.3438ZM18.1347 20.4902C18.0149 20.881 17.8154 21.2637 17.5136 21.6428L20.6427 24.1345C21.2367 23.3886 21.6831 22.563 21.9591 21.6622L18.1347 20.4902ZM17.5106 21.6465C17.272 21.9476 16.9257 22.2416 16.4186 22.5061L18.2689 26.0525C19.1993 25.567 20.0092 24.9339 20.6456 24.1308L17.5106 21.6465ZM16.408 22.5117C16.0561 22.698 15.5317 22.8418 14.75 22.8418V26.8418C16.01 26.8418 17.2147 26.6106 18.2795 26.0469L16.408 22.5117ZM14.75 22.8418H7.42188V26.8418H14.75V22.8418ZM7.42188 22.8418C7.09224 22.8418 6.67954 22.7834 6.17123 22.6301L5.01627 26.4597C5.82046 26.7023 6.62651 26.8418 7.42188 26.8418V22.8418ZM6.17975 22.6327C5.77895 22.5099 5.39039 22.3096 5.00913 22.0131L2.55337 25.1705C3.29711 25.749 4.11688 26.1841 5.00775 26.4571L6.17975 22.6327ZM5.04133 22.0387C4.72325 21.7806 4.4233 21.4224 4.1582 20.9216L0.623049 22.7932C1.10795 23.7091 1.73509 24.5072 2.52117 25.1449L5.04133 22.0387ZM4.16379 20.9323C3.97147 20.5637 3.82812 20.0284 3.82812 19.248H-0.171875C-0.171875 20.5094 0.0597765 21.7137 0.617455 22.7826L4.16379 20.9323ZM3.82812 19.248C3.82812 18.9184 3.88652 18.5057 4.03981 17.9974L0.210186 16.8424C-0.0323489 17.6466 -0.171875 18.4527 -0.171875 19.248H3.82812ZM4.03981 17.9974C4.16288 17.5894 4.36034 17.2096 4.64562 16.8496L1.51063 14.3653C0.920906 15.1094 0.482958 15.938 0.210186 16.8424L4.03981 17.9974ZM4.64269 16.8533C4.90047 16.5295 5.25524 16.2298 5.74828 15.9687L3.87672 12.4336C2.9531 12.9226 2.15161 13.5603 1.51356 14.3616L4.64269 16.8533ZM5.73763 15.9743C6.10625 15.782 6.64155 15.6387 7.42188 15.6387V11.6387C6.16053 11.6387 4.95625 11.8703 3.88737 12.428L5.73763 15.9743ZM7.42188 15.6387H14.75V11.6387H7.42188V15.6387ZM12.75 13.6387V17.5137H16.75V13.6387H12.75ZM14.75 15.5137H7.42188V19.5137H14.75V15.5137ZM7.42188 15.5137C6.42414 15.5137 5.39799 15.8446 4.6383 16.7091L7.64295 19.3495C7.61781 19.3781 7.58506 19.4086 7.54536 19.4367C7.50571 19.4647 7.46713 19.4847 7.43418 19.498C7.36817 19.5245 7.35188 19.5137 7.42188 19.5137V15.5137ZM4.65865 16.6863C3.98514 17.4294 3.6875 18.3426 3.6875 19.2793H7.6875C7.6875 19.2322 7.69421 19.2371 7.68105 19.2734C7.67483 19.2906 7.66588 19.3098 7.65421 19.3292C7.64259 19.3484 7.63114 19.3629 7.6226 19.3723L4.65865 16.6863ZM3.6875 19.2793C3.6875 20.2836 4.03578 21.2872 4.8829 22.0316L7.52335 19.027C7.54752 19.0482 7.57554 19.0777 7.60262 19.1154C7.62976 19.1533 7.65057 19.1919 7.66528 19.2276C7.69528 19.3003 7.6875 19.3292 7.6875 19.2793H3.6875ZM4.93171 22.0732C5.6608 22.6736 6.53238 22.9668 7.45312 22.9668V18.9668C7.43502 18.9668 7.42683 18.9654 7.42682 18.9654C7.42671 18.9654 7.42818 18.9657 7.431 18.9664C7.43382 18.9671 7.43755 18.9682 7.44195 18.9697C7.45128 18.973 7.46027 18.9771 7.46768 18.9813C7.47498 18.9855 7.47728 18.9877 7.47454 18.9854L4.93171 22.0732ZM7.45312 22.9668H14.75V18.9668H7.45312V22.9668ZM14.75 22.9668C15.7281 22.9668 16.748 22.6542 17.5132 21.8098L14.5493 19.1238C14.5765 19.0937 14.6106 19.0633 14.6502 19.0361C14.6897 19.009 14.727 18.9905 14.7573 18.9786C14.8175 18.9551 14.8268 18.9668 14.75 18.9668V22.9668ZM17.5132 21.8098C18.1867 21.0667 18.4844 20.1535 18.4844 19.2168H14.4844C14.4844 19.2639 14.4777 19.259 14.4908 19.2227C14.497 19.2055 14.506 19.1862 14.5177 19.1669C14.5293 19.1477 14.5407 19.1332 14.5493 19.1238L17.5132 21.8098ZM18.4844 19.2168V13.5449H14.4844V19.2168H18.4844ZM18.4844 13.5449C18.4844 12.5591 18.1554 11.5731 17.3523 10.8202L14.6165 13.7384C14.5958 13.719 14.5723 13.6927 14.5499 13.6598C14.5275 13.6268 14.5108 13.594 14.4993 13.5649C14.4758 13.5055 14.4844 13.4885 14.4844 13.5449H18.4844ZM17.3752 10.8421C16.6359 10.1266 15.7054 9.81055 14.75 9.81055V13.8105C14.7901 13.8105 14.7733 13.8164 14.7236 13.7975C14.6998 13.7884 14.6743 13.7759 14.6495 13.7601C14.6248 13.7443 14.6061 13.7287 14.5935 13.7165L17.3752 10.8421ZM14.75 9.81055H5.82812V13.8105H14.75V9.81055ZM7.82812 11.8105V7.95117H3.82812V11.8105H7.82812ZM5.82812 9.95117H14.75V5.95117H5.82812V9.95117ZM14.75 9.95117C15.0787 9.95117 15.4837 10.0093 15.9765 10.1603L17.1485 6.33582C16.3496 6.09101 15.5463 5.95117 14.75 5.95117V9.95117ZM15.985 10.1629C16.3831 10.2829 16.757 10.4796 17.1149 10.7699L19.6351 7.66367C18.8888 7.05819 18.0544 6.609 17.14 6.33323L15.985 10.1629ZM17.1471 10.7955C17.4538 11.0341 17.7476 11.377 18.0081 11.8763L21.5544 10.026C21.0649 9.08785 20.4212 8.27454 19.6029 7.63809L17.1471 10.7955ZM18.0137 11.8869C18.1999 12.2388 18.3438 12.7632 18.3438 13.5449H22.3438C22.3438 12.2849 22.1126 11.0802 21.5488 10.0154L18.0137 11.8869ZM18.3438 13.5449V19.248H22.3438V13.5449H18.3438ZM42.2969 20.3574L40.3434 19.9286L40.3384 19.9514L40.3339 19.9744L42.2969 20.3574ZM41.8906 21.6387L43.7145 22.4594L43.7182 22.451L43.7219 22.4427L41.8906 21.6387ZM41.1562 22.8418L39.5821 21.608L39.5717 21.6214L39.5614 21.6349L41.1562 22.8418ZM40.0781 23.873L41.2251 25.5115L41.2331 25.5059L40.0781 23.873ZM28.2031 24.7168L27.7743 26.6703L27.7972 26.6753L27.8201 26.6798L28.2031 24.7168ZM26.9219 24.2949L26.1011 26.1188L26.1095 26.1225L26.1179 26.1262L26.9219 24.2949ZM25.7188 23.5762L24.485 25.1503L24.4983 25.1607L24.5119 25.171L25.7188 23.5762ZM24.6875 22.498L23.0359 23.626L23.0518 23.6492L23.0683 23.672L24.6875 22.498ZM23.9844 21.0293L22.0766 21.6299L22.0799 21.6402L23.9844 21.0293ZM23.7188 0.810547V-1.18945H21.7188V0.810547H23.7188ZM27.7812 0.810547H29.7812V-1.18945H27.7812V0.810547ZM28.25 20.3418L26.86 21.7798L26.8726 21.792L26.8854 21.8039L28.25 20.3418ZM37.9375 20.3262L36.4987 18.937L36.4861 18.95L36.4737 18.9633L37.9375 20.3262ZM37.9219 12.4512L36.5327 13.89L36.5457 13.9026L36.559 13.915L37.9219 12.4512ZM29.4219 12.0137H27.4219V14.0137H29.4219V12.0137ZM29.4219 7.95117V5.95117H27.4219V7.95117H29.4219ZM37.9688 8.0918L37.5399 10.0453L37.5628 10.0503L37.5857 10.0548L37.9688 8.0918ZM39.2344 8.49805L38.4136 10.3219L38.422 10.3257L38.4304 10.3293L39.2344 8.49805ZM40.4531 9.23242L39.2194 10.8065L39.2327 10.817L39.2462 10.8272L40.4531 9.23242ZM41.4688 10.3105L39.8171 11.4385L39.8237 11.448L39.8303 11.4575L41.4688 10.3105ZM40.4375 19.1387C40.4375 19.3621 40.4103 19.6239 40.3434 19.9286L44.2504 20.7862C44.371 20.2368 44.4375 19.686 44.4375 19.1387H40.4375ZM40.3339 19.9744C40.2807 20.2468 40.1918 20.533 40.0593 20.8347L43.7219 22.4427C43.9645 21.8902 44.1463 21.3222 44.2599 20.7404L40.3339 19.9744ZM40.0668 20.8179C39.9501 21.0772 39.7917 21.3407 39.5821 21.608L42.7304 24.0756C43.125 23.5721 43.4561 23.0335 43.7145 22.4594L40.0668 20.8179ZM39.5614 21.6349C39.4034 21.8437 39.1964 22.047 38.9232 22.2402L41.2331 25.5059C41.814 25.095 42.3257 24.6107 42.7511 24.0487L39.5614 21.6349ZM38.9312 22.2346C38.7 22.3964 38.4015 22.5475 38.0141 22.6717L39.2359 26.4806C39.9527 26.2507 40.6229 25.933 41.225 25.5115L38.9312 22.2346ZM38.0141 22.6717C37.695 22.7741 37.2814 22.8418 36.75 22.8418V26.8418C37.6144 26.8418 38.4509 26.7324 39.2359 26.4806L38.0141 22.6717ZM36.75 22.8418H29.4219V26.8418H36.75V22.8418ZM29.4219 22.8418C29.1802 22.8418 28.9029 22.8156 28.5861 22.7538L27.8201 26.6798C28.3575 26.7846 28.8927 26.8418 29.4219 26.8418V22.8418ZM28.6319 22.7633C28.3419 22.6996 28.0402 22.6016 27.7259 22.4636L26.1179 26.1262C26.6577 26.3632 27.2102 26.5465 27.7743 26.6703L28.6319 22.7633ZM27.7426 22.4711C27.4705 22.3486 27.1982 22.1876 26.9256 21.9814L24.5119 25.171C25.0101 25.548 25.5399 25.8662 26.1011 26.1188L27.7426 22.4711ZM26.9525 22.0021C26.7209 21.8205 26.5051 21.5978 26.3067 21.3241L23.0683 23.672C23.474 24.2316 23.9458 24.7277 24.485 25.1503L26.9525 22.0021ZM26.3391 21.3701C26.1685 21.1202 26.014 20.8088 25.8888 20.4184L22.0799 21.6402C22.3089 22.354 22.6232 23.0217 23.0359 23.626L26.3391 21.3701ZM25.8921 20.4287C25.7862 20.0924 25.7188 19.6692 25.7188 19.1387H21.7188C21.7188 20.004 21.8284 20.8412 22.0767 21.6299L25.8921 20.4287ZM25.7188 19.1387V0.810547H21.7188V19.1387H25.7188ZM23.7188 2.81055H27.7812V-1.18945H23.7188V2.81055ZM25.7812 0.810547V19.1387H29.7812V0.810547H25.7812ZM25.7812 19.1387C25.7812 20.092 26.098 21.0433 26.86 21.7798L29.64 18.9038C29.689 18.9511 29.7344 19.0175 29.762 19.0884C29.7874 19.1535 29.7812 19.1798 29.7812 19.1387H25.7812ZM26.8854 21.8039C27.6054 22.4759 28.4998 22.7793 29.4219 22.7793V18.7793C29.3969 18.7793 29.4224 18.7759 29.4769 18.7962C29.5345 18.8177 29.5834 18.8505 29.6146 18.8797L26.8854 21.8039ZM29.4219 22.7793H36.75V18.7793H29.4219V22.7793ZM36.75 22.7793C37.6748 22.7793 38.6553 22.4902 39.4013 21.689L36.4737 18.9633C36.547 18.8846 36.6368 18.8279 36.7167 18.7974C36.7878 18.7703 36.8101 18.7793 36.75 18.7793V22.7793ZM39.3763 21.7154C40.0874 20.9789 40.375 20.0542 40.375 19.1387H36.375C36.375 19.1848 36.3683 19.1672 36.3889 19.1113C36.4115 19.05 36.4508 18.9866 36.4987 18.937L39.3763 21.7154ZM40.375 19.1387V13.6387H36.375V19.1387H40.375ZM40.375 13.6387C40.375 12.7139 40.0859 11.7333 39.2847 10.9874L36.559 13.915C36.4803 13.8416 36.4236 13.7519 36.3931 13.672C36.366 13.6009 36.375 13.5786 36.375 13.6387H40.375ZM39.3111 11.0124C38.5829 10.3093 37.6684 10.0137 36.75 10.0137V14.0137C36.7859 14.0137 36.762 14.0188 36.7028 13.9967C36.639 13.9729 36.5778 13.9335 36.5327 13.89L39.3111 11.0124ZM36.75 10.0137H29.4219V14.0137H36.75V10.0137ZM31.4219 12.0137V7.95117H27.4219V12.0137H31.4219ZM29.4219 9.95117H36.75V5.95117H29.4219V9.95117ZM36.75 9.95117C36.9735 9.95117 37.2352 9.9784 37.5399 10.0453L38.3976 6.13831C37.8481 6.0177 37.2974 5.95117 36.75 5.95117V9.95117ZM37.5857 10.0548C37.8547 10.1073 38.1301 10.1943 38.4136 10.3219L40.0551 6.6742C39.5054 6.42682 38.937 6.243 38.3518 6.12882L37.5857 10.0548ZM38.4304 10.3293C38.6965 10.4462 38.9593 10.6027 39.2194 10.8065L41.6869 7.65831C41.1761 7.25798 40.6264 6.92491 40.0384 6.66676L38.4304 10.3293ZM39.2462 10.8272C39.4474 10.9795 39.6389 11.1775 39.8171 11.4385L43.1204 9.18262C42.7152 8.58942 42.2296 8.06868 41.66 7.63761L39.2462 10.8272ZM39.8303 11.4575C39.9921 11.6886 40.1432 11.9872 40.2674 12.3745L44.0763 11.1528C43.8464 10.436 43.5287 9.76578 43.1072 9.16362L39.8303 11.4575ZM40.2674 12.3745C40.3698 12.6937 40.4375 13.1073 40.4375 13.6387H44.4375C44.4375 12.7743 44.3281 11.9378 44.0763 11.1528L40.2674 12.3745ZM40.4375 13.6387V19.1387H44.4375V13.6387H40.4375ZM64.0156 21.0293L65.9201 21.6402L65.9233 21.6299L64.0156 21.0293ZM63.3125 22.498L64.951 23.645L64.9576 23.6355L64.9641 23.626L63.3125 22.498ZM62.2969 23.5762L63.5038 25.171L63.5173 25.1607L63.5306 25.1503L62.2969 23.5762ZM61.0781 24.2949L60.2741 22.4636L60.2658 22.4673L60.2574 22.4711L61.0781 24.2949ZM59.7969 24.7168L60.1799 26.6798L60.1979 26.6763L60.2159 26.6724L59.7969 24.7168ZM47.5469 23.5762L46.2835 25.1266L46.2992 25.1394L46.315 25.1518L47.5469 23.5762ZM46.125 21.8105L44.3464 22.7252L44.3543 22.7405L44.3624 22.7557L46.125 21.8105ZM46.125 10.998L44.3568 10.0634L44.3518 10.0729L46.125 10.998ZM47.5469 9.23242L48.7927 10.797L48.7963 10.7942L47.5469 9.23242ZM63 9.93555L61.4244 11.1674L61.4299 11.1744L61.4354 11.1814L63 9.93555ZM63.9688 11.7793L62.0515 12.3485L62.0555 12.3622L62.0598 12.3758L63.9688 11.7793ZM50.0469 12.4355L51.4342 13.8762L51.4477 13.8631L51.4611 13.8498L50.0469 12.4355ZM59.8125 20.3574L61.2531 21.7447L59.8125 20.3574ZM62.2812 19.1387C62.2812 19.6692 62.2138 20.0924 62.1079 20.4287L65.9233 21.6299C66.1716 20.8412 66.2812 20.004 66.2812 19.1387H62.2812ZM62.1112 20.4184C61.986 20.8088 61.8315 21.1202 61.6609 21.3701L64.9641 23.626C65.3768 23.0217 65.6911 22.354 65.9201 21.6402L62.1112 20.4184ZM61.674 21.3511C61.4911 21.6125 61.2874 21.8263 61.0631 22.0021L63.5306 25.1503C64.0772 24.7219 64.5506 24.2169 64.951 23.645L61.674 21.3511ZM61.09 21.9814C60.8247 22.1822 60.553 22.3412 60.2741 22.4636L61.8821 26.1262C62.4574 25.8737 62.9983 25.5535 63.5038 25.171L61.09 21.9814ZM60.2574 22.4711C59.9669 22.6018 59.6742 22.6977 59.3778 22.7612L60.2159 26.6724C60.7945 26.5484 61.3561 26.363 61.8989 26.1188L60.2574 22.4711ZM59.4139 22.7538C59.0971 22.8156 58.8198 22.8418 58.5781 22.8418V26.8418C59.1073 26.8418 59.6425 26.7846 60.1799 26.6798L59.4139 22.7538ZM58.5781 22.8418H51.25V26.8418H58.5781V22.8418ZM51.25 22.8418C50.9194 22.8418 50.4991 22.7831 49.9754 22.6276L48.8371 26.4622C49.6467 26.7026 50.4556 26.8418 51.25 26.8418V22.8418ZM49.9754 22.6276C49.56 22.5043 49.1633 22.3012 48.7787 22.0006L46.315 25.1518C47.0763 25.747 47.9191 26.1897 48.8371 26.4622L49.9754 22.6276ZM48.8102 22.0257C48.4764 21.7537 48.1636 21.3802 47.8876 20.8654L44.3624 22.7557C44.8572 23.6784 45.4924 24.482 46.2835 25.1266L48.8102 22.0257ZM47.9036 20.8959C47.7094 20.5183 47.5625 19.96 47.5625 19.1387H43.5625C43.5625 20.4215 43.7906 21.6445 44.3464 22.7252L47.9036 20.8959ZM47.5625 19.1387V13.6387H43.5625V19.1387H47.5625ZM47.5625 13.6387C47.5625 12.83 47.7086 12.2866 47.8982 11.9232L44.3518 10.0729C43.7914 11.147 43.5625 12.364 43.5625 13.6387H47.5625ZM47.8932 11.9327C48.1686 11.4116 48.4753 11.0497 48.7927 10.797L46.301 7.66786C45.4934 8.31097 44.8522 9.12617 44.3568 10.0634L47.8932 11.9327ZM48.7963 10.7942C49.1788 10.4881 49.5698 10.2858 49.9754 10.1653L48.8371 6.33075C47.9094 6.60616 47.0608 7.06004 46.2975 7.67068L48.7963 10.7942ZM49.9754 10.1653C50.4991 10.0099 50.9194 9.95117 51.25 9.95117V5.95117C50.4556 5.95117 49.6467 6.09038 48.8371 6.33075L49.9754 10.1653ZM51.25 9.95117H58.5781V5.95117H51.25V9.95117ZM58.5781 9.95117C59.3854 9.95117 59.9396 10.0968 60.3197 10.2922L62.1491 6.7351C61.0708 6.18057 59.8542 5.95117 58.5781 5.95117V9.95117ZM60.3197 10.2922C60.8245 10.5519 61.1761 10.8498 61.4244 11.1674L64.5756 8.7037C63.9281 7.87544 63.1026 7.22548 62.1491 6.7351L60.3197 10.2922ZM61.4354 11.1814C61.729 11.55 61.9291 11.9363 62.0515 12.3485L65.886 11.2101C65.6126 10.289 65.1669 9.44606 64.5646 8.68969L61.4354 11.1814ZM62.0598 12.3758C62.2205 12.8901 62.2812 13.3067 62.2812 13.6387H66.2812C66.2812 12.8248 66.1337 12.0018 65.8777 11.1827L62.0598 12.3758ZM62.2812 13.6387V19.1387H66.2812V13.6387H62.2812ZM62.2188 13.6699C62.2188 12.8058 62.0023 11.7671 61.1842 10.9793L58.4096 13.8606C58.2914 13.7467 58.2374 13.6318 58.2183 13.5751C58.2028 13.5291 58.2188 13.5485 58.2188 13.6699H62.2188ZM61.1842 10.9793C60.4126 10.2363 59.4365 10.0137 58.5781 10.0137V14.0137C58.6784 14.0137 58.6919 14.027 58.6488 14.0126C58.6258 14.0049 58.5893 13.9902 58.545 13.964C58.5002 13.9376 58.4537 13.9031 58.4096 13.8606L61.1842 10.9793ZM58.5781 10.0137H51.2812V14.0137H58.5781V10.0137ZM51.2812 10.0137C50.4059 10.0137 49.4083 10.2456 48.6327 11.0213L51.4611 13.8498C51.4167 13.8941 51.3691 13.9307 51.3225 13.9591C51.2765 13.9872 51.238 14.0032 51.2132 14.0117C51.1668 14.0275 51.1786 14.0137 51.2812 14.0137V10.0137ZM48.6596 10.9949C47.8618 11.7631 47.625 12.7661 47.625 13.6387H51.625C51.625 13.5444 51.6381 13.5435 51.6178 13.6012C51.594 13.6693 51.5383 13.7759 51.4342 13.8762L48.6596 10.9949ZM47.625 13.6387V19.1387H51.625V13.6387H47.625ZM47.625 19.1387C47.625 20.0165 47.8638 21.0027 48.6327 21.7716L51.4611 18.9432C51.5032 18.9854 51.5388 19.0311 51.567 19.077C51.5948 19.1224 51.6113 19.1612 51.6204 19.1876C51.6378 19.2378 51.625 19.2321 51.625 19.1387H47.625ZM48.6327 21.7716C49.4083 22.5473 50.4059 22.7793 51.2812 22.7793V18.7793C51.1786 18.7793 51.1668 18.7654 51.2132 18.7813C51.238 18.7898 51.2765 18.8058 51.3225 18.8338C51.3691 18.8622 51.4167 18.8988 51.4611 18.9432L48.6327 21.7716ZM51.2812 22.7793H58.5781V18.7793H51.2812V22.7793ZM58.5781 22.7793C59.4449 22.7793 60.4716 22.5563 61.2531 21.7447L58.3719 18.9701C58.4812 18.8566 58.5934 18.802 58.654 18.7813C58.704 18.7642 58.6906 18.7793 58.5781 18.7793V22.7793ZM61.2531 21.7447C61.9961 20.9732 62.2188 19.997 62.2188 19.1387H58.2188C58.2188 19.2389 58.2055 19.2524 58.2198 19.2093C58.2275 19.1864 58.2422 19.1499 58.2684 19.1056C58.2949 19.0608 58.3294 19.0143 58.3719 18.9701L61.2531 21.7447ZM62.2188 19.1387V13.6699H58.2188V19.1387H62.2188ZM85.625 24.2637L84.2108 22.8495L85.625 24.2637ZM84.9844 24.6855L84.2151 22.8394L84.201 22.8453L84.1869 22.8514L84.9844 24.6855ZM73.4062 24.6699L73.007 26.6297L73.014 26.6311L73.4062 24.6699ZM71.7344 24.123L70.8811 25.9319L70.8952 25.9385L70.9094 25.945L71.7344 24.123ZM70.125 23.1543L68.8994 24.7347L68.9172 24.7486L68.9353 24.762L70.125 23.1543ZM68.7812 21.7324L67.1314 22.8629L67.1363 22.8701L67.1413 22.8773L68.7812 21.7324ZM67.8438 19.7949L65.9358 20.3946L65.9396 20.4069L65.9437 20.4192L67.8438 19.7949ZM67.5 7.95117V5.95117H65.5V7.95117H67.5ZM71.5625 7.95117H73.5625V5.95117H71.5625V7.95117ZM71.8281 18.7637L69.9806 19.5297L69.9921 19.5572L70.0043 19.5844L71.8281 18.7637ZM73.6719 20.5449L72.9291 22.4019L72.9567 22.4129L72.9847 22.4232L73.6719 20.5449ZM82.1562 20.7793V22.7793H84.1562V20.7793H82.1562ZM82.1562 7.95117V5.95117H80.1562V7.95117H82.1562ZM86.2188 7.95117H88.2188V5.95117H86.2188V7.95117ZM84.2188 22.7949C84.2188 22.8212 84.2165 22.8351 84.2157 22.8391C84.215 22.8428 84.2149 22.8416 84.2163 22.8382L87.9087 24.3767C88.122 23.8647 88.2188 23.3301 88.2188 22.7949H84.2188ZM84.2163 22.8382C84.2142 22.8433 84.2127 22.8464 84.2119 22.8479C84.2111 22.8494 84.2107 22.8499 84.2109 22.8496C84.2111 22.8493 84.2114 22.8489 84.2117 22.8486C84.2119 22.8482 84.2118 22.8485 84.2108 22.8495L87.0392 25.6779C87.4154 25.3017 87.7062 24.8625 87.9087 24.3767L84.2163 22.8382ZM84.2108 22.8495C84.2151 22.8451 84.2194 22.8413 84.2234 22.8381C84.2273 22.8348 84.2304 22.8327 84.232 22.8316C84.2358 22.8292 84.2314 22.8326 84.2151 22.8394L85.7536 26.5317C86.2249 26.3353 86.6628 26.0543 87.0392 25.6779L84.2108 22.8495ZM84.1869 22.8514C84.1928 22.8489 84.1987 22.8467 84.2042 22.8449C84.2098 22.8432 84.2142 22.8422 84.2171 22.8416C84.2234 22.8403 84.2198 22.8418 84.2031 22.8418V26.8418C84.7375 26.8418 85.2718 26.7414 85.7818 26.5197L84.1869 22.8514ZM84.2031 22.8418H75.0156V26.8418H84.2031V22.8418ZM75.0156 22.8418C74.6671 22.8418 74.2633 22.8017 73.7985 22.7088L73.014 26.6311C73.6951 26.7673 74.3641 26.8418 75.0156 26.8418V22.8418ZM73.8055 22.7102C73.3975 22.6271 72.9827 22.4928 72.5594 22.3011L70.9094 25.945C71.5902 26.2533 72.29 26.4836 73.007 26.6297L73.8055 22.7102ZM72.5876 22.3142C72.161 22.113 71.7366 21.8589 71.3147 21.5466L68.9353 24.762C69.555 25.2206 70.2036 25.6123 70.8811 25.9319L72.5876 22.3142ZM71.3506 21.5739C71.0061 21.3067 70.6962 20.9815 70.4212 20.5876L67.1413 22.8773C67.6372 23.5875 68.223 24.2102 68.8994 24.7347L71.3506 21.5739ZM70.4311 20.602C70.1651 20.2137 69.9316 19.7423 69.7438 19.1706L65.9437 20.4192C66.235 21.3059 66.6266 22.1262 67.1314 22.8629L70.4311 20.602ZM69.7517 19.1953C69.5943 18.6943 69.5 18.0786 69.5 17.3262H65.5C65.5 18.407 65.6349 19.4372 65.9358 20.3946L69.7517 19.1953ZM69.5 17.3262V7.95117H65.5V17.3262H69.5ZM67.5 9.95117H71.5625V5.95117H67.5V9.95117ZM69.5625 7.95117V17.3262H73.5625V7.95117H69.5625ZM69.5625 17.3262C69.5625 18.0815 69.689 18.8263 69.9806 19.5297L73.6756 17.9976C73.6131 17.8469 73.5625 17.6334 73.5625 17.3262H69.5625ZM70.0043 19.5844C70.2905 20.2204 70.6839 20.7924 71.1881 21.2798L73.9682 18.4038C73.8474 18.287 73.7407 18.1402 73.652 17.9429L70.0043 19.5844ZM71.1881 21.2798C71.6932 21.7681 72.2795 22.142 72.9291 22.4019L74.4147 18.688C74.2309 18.6145 74.088 18.5197 73.9682 18.4038L71.1881 21.2798ZM72.9847 22.4232C73.6483 22.6659 74.3409 22.7793 75.0469 22.7793V18.7793C74.7737 18.7793 74.5497 18.7364 74.359 18.6667L72.9847 22.4232ZM75.0469 22.7793H82.1562V18.7793H75.0469V22.7793ZM84.1562 20.7793V7.95117H80.1562V20.7793H84.1562ZM82.1562 9.95117H86.2188V5.95117H82.1562V9.95117ZM84.2188 7.95117V22.7949H88.2188V7.95117H84.2188ZM105.391 12.0137V14.0137H107.391V12.0137H105.391ZM98.2969 12.0137V10.0137H96.2969V12.0137H98.2969ZM98.2969 24.8418V26.8418H100.297V24.8418H98.2969ZM94.1875 24.8418H92.1875V26.8418H94.1875V24.8418ZM94.1875 12.0137H96.1875V10.0137H94.1875V12.0137ZM88.9062 12.0137H86.9062V14.0137H88.9062V12.0137ZM88.9062 7.95117V5.95117H86.9062V7.95117H88.9062ZM94.1875 7.95117V9.95117H96.1875V7.95117H94.1875ZM94.1875 2.43555V0.435547H92.1875V2.43555H94.1875ZM98.2969 2.43555H100.297V0.435547H98.2969V2.43555ZM98.2969 7.95117H96.2969V9.95117H98.2969V7.95117ZM105.391 7.95117H107.391V5.95117H105.391V7.95117ZM105.391 10.0137H98.2969V14.0137H105.391V10.0137ZM96.2969 12.0137V24.8418H100.297V12.0137H96.2969ZM98.2969 22.8418H94.1875V26.8418H98.2969V22.8418ZM96.1875 24.8418V12.0137H92.1875V24.8418H96.1875ZM94.1875 10.0137H88.9062V14.0137H94.1875V10.0137ZM90.9062 12.0137V7.95117H86.9062V12.0137H90.9062ZM88.9062 9.95117H94.1875V5.95117H88.9062V9.95117ZM96.1875 7.95117V2.43555H92.1875V7.95117H96.1875ZM94.1875 4.43555H98.2969V0.435547H94.1875V4.43555ZM96.2969 2.43555V7.95117H100.297V2.43555H96.2969ZM98.2969 9.95117H105.391V5.95117H98.2969V9.95117ZM103.391 7.95117V12.0137H107.391V7.95117H103.391Z" fill="black"/>
</g>
<defs>
<filter id="filter0_d_2434_6709" x="0.828125" y="0.810547" width="113.562" height="34.0312" filterUnits="userSpaceOnUse" color-interpolation-filters="sRGB">
<feFlood flood-opacity="0" result="BackgroundImageFix"/>
<feColorMatrix in="SourceAlpha" type="matrix" values="0 0 0 0 0 0 0 0 0 0 0 0 0 0 0 0 0 0 127 0" result="hardAlpha"/>
<feOffset dx="4" dy="5"/>
<feGaussianBlur stdDeviation="2.5"/>
<feComposite in2="hardAlpha" operator="out"/>
<feColorMatrix type="matrix" values="0 0 0 0 0 0 0 0 0 0 0 0 0 0 0 0 0 0 0.28 0"/>
<feBlend mode="normal" in2="BackgroundImageFix" result="effect1_dropShadow_2434_6709"/>
<feBlend mode="normal" in="SourceGraphic" in2="effect1_dropShadow_2434_6709" result="shape"/>
</filter>
</defs>
</svg>
